G75*
G70*
%OFA0B0*%
%FSLAX24Y24*%
%IPPOS*%
%LPD*%
%AMOC8*
5,1,8,0,0,1.08239X$1,22.5*
%
%ADD10C,0.0080*%
%ADD11C,0.0060*%
%ADD12C,0.0120*%
%ADD13C,0.0050*%
%ADD14C,0.0040*%
%ADD15R,0.0659X0.7461*%
%ADD16R,0.0118X0.0620*%
D10*
X003370Y002435D02*
X003370Y006845D01*
X003764Y006845D01*
X003764Y002435D01*
X003370Y002435D01*
X003764Y002435D02*
X006323Y002435D01*
X006323Y006845D01*
X003764Y006845D01*
X013000Y002804D02*
X013000Y002304D01*
X013250Y002054D01*
X013750Y002054D01*
X014000Y002304D01*
X014250Y002054D01*
X014750Y002054D01*
X015000Y002304D01*
X015250Y002054D01*
X015750Y002054D01*
X016000Y002304D01*
X016250Y002054D01*
X016750Y002054D01*
X017000Y002304D01*
X017250Y002054D01*
X017750Y002054D01*
X018000Y002304D01*
X018250Y002054D01*
X018750Y002054D01*
X019000Y002304D01*
X019000Y002804D01*
X018750Y003054D01*
X018250Y003054D01*
X018000Y002804D01*
X017750Y003054D01*
X017250Y003054D01*
X017000Y002804D01*
X016750Y003054D01*
X016250Y003054D01*
X016000Y002804D01*
X015750Y003054D01*
X015250Y003054D01*
X015000Y002804D01*
X014750Y003054D01*
X014250Y003054D01*
X014000Y002804D01*
X013750Y003054D01*
X013250Y003054D01*
X013000Y002804D01*
X020000Y002804D02*
X020000Y002304D01*
X020250Y002054D01*
X020750Y002054D01*
X021000Y002304D01*
X021250Y002054D01*
X021750Y002054D01*
X022000Y002304D01*
X022250Y002054D01*
X022750Y002054D01*
X023000Y002304D01*
X023250Y002054D01*
X023750Y002054D01*
X024000Y002304D01*
X024250Y002054D01*
X024750Y002054D01*
X025000Y002304D01*
X025250Y002054D01*
X025750Y002054D01*
X026000Y002304D01*
X026250Y002054D01*
X026750Y002054D01*
X027000Y002304D01*
X027250Y002054D01*
X027750Y002054D01*
X028000Y002304D01*
X028000Y002804D01*
X027750Y003054D01*
X027250Y003054D01*
X027000Y002804D01*
X026750Y003054D01*
X026250Y003054D01*
X026000Y002804D01*
X025750Y003054D01*
X025250Y003054D01*
X025000Y002804D01*
X024750Y003054D01*
X024250Y003054D01*
X024000Y002804D01*
X023750Y003054D01*
X023250Y003054D01*
X023000Y002804D01*
X022750Y003054D01*
X022250Y003054D01*
X022000Y002804D01*
X021750Y003054D01*
X021250Y003054D01*
X021000Y002804D01*
X020750Y003054D01*
X020250Y003054D01*
X020000Y002804D01*
X020440Y003404D02*
X020280Y003564D01*
X020440Y003724D01*
X020760Y003724D01*
X020680Y003919D02*
X020360Y004239D01*
X020680Y004239D01*
X020760Y004159D01*
X020760Y003999D01*
X020680Y003919D01*
X020360Y003919D01*
X020280Y003999D01*
X020280Y004159D01*
X020360Y004239D01*
X020520Y003724D02*
X020520Y003404D01*
X020440Y003404D02*
X020760Y003404D01*
X021180Y003564D02*
X021340Y003724D01*
X021660Y003724D01*
X021660Y003919D02*
X021660Y004239D01*
X021660Y004079D02*
X021180Y004079D01*
X021340Y003919D01*
X021420Y003724D02*
X021420Y003404D01*
X021340Y003404D02*
X021660Y003404D01*
X021340Y003404D02*
X021180Y003564D01*
X022280Y003564D02*
X022440Y003724D01*
X022760Y003724D01*
X022760Y003919D02*
X022440Y004239D01*
X022360Y004239D01*
X022280Y004159D01*
X022280Y003999D01*
X022360Y003919D01*
X022520Y003724D02*
X022520Y003404D01*
X022440Y003404D02*
X022280Y003564D01*
X022440Y003404D02*
X022760Y003404D01*
X022760Y003919D02*
X022760Y004239D01*
X023280Y004159D02*
X023360Y004239D01*
X023440Y004239D01*
X023520Y004159D01*
X023600Y004239D01*
X023680Y004239D01*
X023760Y004159D01*
X023760Y003999D01*
X023680Y003919D01*
X023760Y003724D02*
X023440Y003724D01*
X023280Y003564D01*
X023440Y003404D01*
X023760Y003404D01*
X023520Y003404D02*
X023520Y003724D01*
X023360Y003919D02*
X023280Y003999D01*
X023280Y004159D01*
X023520Y004159D02*
X023520Y004079D01*
X024280Y004159D02*
X024520Y003919D01*
X024520Y004239D01*
X024760Y004159D02*
X024280Y004159D01*
X024440Y003724D02*
X024760Y003724D01*
X024520Y003724D02*
X024520Y003404D01*
X024440Y003404D02*
X024280Y003564D01*
X024440Y003724D01*
X024440Y003404D02*
X024760Y003404D01*
X025230Y003564D02*
X025390Y003724D01*
X025710Y003724D01*
X025630Y003919D02*
X025710Y003999D01*
X025710Y004159D01*
X025630Y004239D01*
X025470Y004239D01*
X025390Y004159D01*
X025390Y004079D01*
X025470Y003919D01*
X025230Y003919D01*
X025230Y004239D01*
X025470Y003724D02*
X025470Y003404D01*
X025390Y003404D02*
X025230Y003564D01*
X025390Y003404D02*
X025710Y003404D01*
X026230Y003724D02*
X026310Y003564D01*
X026470Y003404D01*
X026470Y003644D01*
X026550Y003724D01*
X026630Y003724D01*
X026710Y003644D01*
X026710Y003484D01*
X026630Y003404D01*
X026470Y003404D01*
X027280Y003564D02*
X027440Y003724D01*
X027760Y003724D01*
X027760Y003919D02*
X027680Y003919D01*
X027360Y004239D01*
X027280Y004239D01*
X027280Y003919D01*
X027520Y003724D02*
X027520Y003404D01*
X027440Y003404D02*
X027760Y003404D01*
X027440Y003404D02*
X027280Y003564D01*
X029000Y002804D02*
X029000Y002304D01*
X029250Y002054D01*
X029750Y002054D01*
X030000Y002304D01*
X030250Y002054D01*
X030750Y002054D01*
X031000Y002304D01*
X031250Y002054D01*
X031750Y002054D01*
X032000Y002304D01*
X032250Y002054D01*
X032750Y002054D01*
X033000Y002304D01*
X033250Y002054D01*
X033750Y002054D01*
X034000Y002304D01*
X034250Y002054D01*
X034750Y002054D01*
X035000Y002304D01*
X035250Y002054D01*
X035750Y002054D01*
X036000Y002304D01*
X036250Y002054D01*
X036750Y002054D01*
X037000Y002304D01*
X037000Y002804D01*
X036750Y003054D01*
X036250Y003054D01*
X036000Y002804D01*
X035750Y003054D01*
X035250Y003054D01*
X035000Y002804D01*
X034750Y003054D01*
X034250Y003054D01*
X034000Y002804D01*
X033750Y003054D01*
X033250Y003054D01*
X033000Y002804D01*
X032750Y003054D01*
X032250Y003054D01*
X032000Y002804D01*
X031750Y003054D01*
X031250Y003054D01*
X031000Y002804D01*
X030750Y003054D01*
X030250Y003054D01*
X030000Y002804D01*
X029750Y003054D01*
X029250Y003054D01*
X029000Y002804D01*
X029440Y003404D02*
X029280Y003564D01*
X029440Y003724D01*
X029760Y003724D01*
X029680Y003919D02*
X029600Y003919D01*
X029520Y003999D01*
X029520Y004159D01*
X029600Y004239D01*
X029680Y004239D01*
X029760Y004159D01*
X029760Y003999D01*
X029680Y003919D01*
X029520Y003999D02*
X029440Y003919D01*
X029360Y003919D01*
X029280Y003999D01*
X029280Y004159D01*
X029360Y004239D01*
X029440Y004239D01*
X029520Y004159D01*
X029520Y003724D02*
X029520Y003404D01*
X029440Y003404D02*
X029760Y003404D01*
X030280Y003564D02*
X030440Y003724D01*
X030760Y003724D01*
X030680Y003919D02*
X030760Y003999D01*
X030760Y004159D01*
X030680Y004239D01*
X030360Y004239D01*
X030280Y004159D01*
X030280Y003999D01*
X030360Y003919D01*
X030440Y003919D01*
X030520Y003999D01*
X030520Y004239D01*
X030520Y003724D02*
X030520Y003404D01*
X030440Y003404D02*
X030280Y003564D01*
X030440Y003404D02*
X030760Y003404D01*
X031280Y003564D02*
X031440Y003724D01*
X031760Y003724D01*
X031760Y003919D02*
X031760Y004239D01*
X031760Y004079D02*
X031280Y004079D01*
X031440Y003919D01*
X031520Y003724D02*
X031520Y003404D01*
X031440Y003404D02*
X031280Y003564D01*
X031440Y003404D02*
X031760Y003404D01*
X032280Y003564D02*
X032440Y003724D01*
X032760Y003724D01*
X032760Y003919D02*
X032760Y004239D01*
X032760Y004079D02*
X032280Y004079D01*
X032440Y003919D01*
X032520Y003724D02*
X032520Y003404D01*
X032440Y003404D02*
X032280Y003564D01*
X032440Y003404D02*
X032760Y003404D01*
X033280Y003564D02*
X033440Y003724D01*
X033760Y003724D01*
X033760Y003919D02*
X033760Y004239D01*
X033760Y004079D02*
X033280Y004079D01*
X033440Y003919D01*
X033520Y003724D02*
X033520Y003404D01*
X033440Y003404D02*
X033280Y003564D01*
X033440Y003404D02*
X033760Y003404D01*
X034280Y003564D02*
X034440Y003724D01*
X034760Y003724D01*
X034760Y003919D02*
X034760Y004239D01*
X034760Y004079D02*
X034280Y004079D01*
X034440Y003919D01*
X034520Y003724D02*
X034520Y003404D01*
X034440Y003404D02*
X034760Y003404D01*
X034440Y003404D02*
X034280Y003564D01*
X035280Y003564D02*
X035440Y003724D01*
X035760Y003724D01*
X035760Y003919D02*
X035760Y004239D01*
X035760Y004079D02*
X035280Y004079D01*
X035440Y003919D01*
X035520Y003724D02*
X035520Y003404D01*
X035440Y003404D02*
X035280Y003564D01*
X035440Y003404D02*
X035760Y003404D01*
X036230Y003564D02*
X036390Y003724D01*
X036710Y003724D01*
X036710Y003919D02*
X036710Y004239D01*
X036710Y004079D02*
X036230Y004079D01*
X036390Y003919D01*
X036470Y003724D02*
X036470Y003404D01*
X036390Y003404D02*
X036230Y003564D01*
X036390Y003404D02*
X036710Y003404D01*
X037250Y004054D02*
X038750Y004054D01*
X039000Y004304D01*
X039000Y004804D01*
X038750Y005054D01*
X037250Y005054D01*
X037000Y004804D01*
X037000Y004304D01*
X037250Y004054D01*
X036710Y004515D02*
X036630Y004435D01*
X036710Y004515D02*
X036710Y004675D01*
X036630Y004755D01*
X036470Y004755D01*
X036390Y004675D01*
X036390Y004595D01*
X036470Y004435D01*
X036230Y004435D01*
X036230Y004755D01*
X035760Y004675D02*
X035280Y004675D01*
X035520Y004435D01*
X035520Y004755D01*
X035930Y005294D02*
X035850Y005374D01*
X035930Y005294D02*
X036090Y005294D01*
X036170Y005374D01*
X036170Y005534D01*
X036090Y005614D01*
X036010Y005614D01*
X035850Y005534D01*
X035850Y005774D01*
X036170Y005774D01*
X036366Y005694D02*
X036446Y005774D01*
X036606Y005774D01*
X036686Y005694D01*
X036686Y005614D01*
X036366Y005294D01*
X036686Y005294D01*
X036606Y006294D02*
X036446Y006294D01*
X036366Y006374D01*
X036686Y006694D01*
X036686Y006374D01*
X036606Y006294D01*
X036366Y006374D02*
X036366Y006694D01*
X036446Y006774D01*
X036606Y006774D01*
X036686Y006694D01*
X036170Y006774D02*
X035850Y006774D01*
X035850Y006534D01*
X036010Y006614D01*
X036090Y006614D01*
X036170Y006534D01*
X036170Y006374D01*
X036090Y006294D01*
X035930Y006294D01*
X035850Y006374D01*
X036090Y007294D02*
X036090Y007774D01*
X035850Y007534D01*
X036170Y007534D01*
X036366Y007614D02*
X036366Y007694D01*
X036446Y007774D01*
X036606Y007774D01*
X036686Y007694D01*
X036686Y007614D01*
X036606Y007534D01*
X036446Y007534D01*
X036366Y007614D01*
X036446Y007534D02*
X036366Y007454D01*
X036366Y007374D01*
X036446Y007294D01*
X036606Y007294D01*
X036686Y007374D01*
X036686Y007454D01*
X036606Y007534D01*
X036606Y008294D02*
X036686Y008374D01*
X036686Y008454D01*
X036606Y008534D01*
X036366Y008534D01*
X036366Y008374D01*
X036446Y008294D01*
X036606Y008294D01*
X036366Y008534D02*
X036526Y008694D01*
X036686Y008774D01*
X036606Y009294D02*
X036606Y009774D01*
X036366Y009534D01*
X036686Y009534D01*
X036170Y009534D02*
X035850Y009534D01*
X036090Y009774D01*
X036090Y009294D01*
X036090Y008774D02*
X035850Y008534D01*
X036170Y008534D01*
X036090Y008294D02*
X036090Y008774D01*
X036090Y010294D02*
X036090Y010774D01*
X035850Y010534D01*
X036170Y010534D01*
X036366Y010694D02*
X036446Y010774D01*
X036606Y010774D01*
X036686Y010694D01*
X036686Y010614D01*
X036366Y010294D01*
X036686Y010294D01*
X036606Y011294D02*
X036446Y011294D01*
X036366Y011374D01*
X036686Y011694D01*
X036686Y011374D01*
X036606Y011294D01*
X036366Y011374D02*
X036366Y011694D01*
X036446Y011774D01*
X036606Y011774D01*
X036686Y011694D01*
X036170Y011534D02*
X035850Y011534D01*
X036090Y011774D01*
X036090Y011294D01*
X036090Y012294D02*
X035930Y012294D01*
X035850Y012374D01*
X036010Y012534D02*
X036090Y012534D01*
X036170Y012454D01*
X036170Y012374D01*
X036090Y012294D01*
X036090Y012534D02*
X036170Y012614D01*
X036170Y012694D01*
X036090Y012774D01*
X035930Y012774D01*
X035850Y012694D01*
X036366Y012694D02*
X036366Y012614D01*
X036446Y012534D01*
X036606Y012534D01*
X036686Y012454D01*
X036686Y012374D01*
X036606Y012294D01*
X036446Y012294D01*
X036366Y012374D01*
X036366Y012454D01*
X036446Y012534D01*
X036606Y012534D02*
X036686Y012614D01*
X036686Y012694D01*
X036606Y012774D01*
X036446Y012774D01*
X036366Y012694D01*
X036446Y013294D02*
X036606Y013294D01*
X036686Y013374D01*
X036686Y013454D01*
X036606Y013534D01*
X036366Y013534D01*
X036366Y013374D01*
X036446Y013294D01*
X036366Y013534D02*
X036526Y013694D01*
X036686Y013774D01*
X036170Y013694D02*
X036170Y013614D01*
X036090Y013534D01*
X036170Y013454D01*
X036170Y013374D01*
X036090Y013294D01*
X035930Y013294D01*
X035850Y013374D01*
X036010Y013534D02*
X036090Y013534D01*
X036170Y013694D02*
X036090Y013774D01*
X035930Y013774D01*
X035850Y013694D01*
X035930Y014294D02*
X035850Y014374D01*
X035930Y014294D02*
X036090Y014294D01*
X036170Y014374D01*
X036170Y014454D01*
X036090Y014534D01*
X036010Y014534D01*
X036090Y014534D02*
X036170Y014614D01*
X036170Y014694D01*
X036090Y014774D01*
X035930Y014774D01*
X035850Y014694D01*
X036366Y014534D02*
X036686Y014534D01*
X036606Y014774D02*
X036366Y014534D01*
X036606Y014294D02*
X036606Y014774D01*
X036686Y015294D02*
X036366Y015294D01*
X036686Y015614D01*
X036686Y015694D01*
X036606Y015774D01*
X036446Y015774D01*
X036366Y015694D01*
X036170Y015694D02*
X036170Y015614D01*
X036090Y015534D01*
X036170Y015454D01*
X036170Y015374D01*
X036090Y015294D01*
X035930Y015294D01*
X035850Y015374D01*
X036010Y015534D02*
X036090Y015534D01*
X036170Y015694D02*
X036090Y015774D01*
X035930Y015774D01*
X035850Y015694D01*
X035930Y016294D02*
X035850Y016374D01*
X035930Y016294D02*
X036090Y016294D01*
X036170Y016374D01*
X036170Y016454D01*
X036090Y016534D01*
X036010Y016534D01*
X036090Y016534D02*
X036170Y016614D01*
X036170Y016694D01*
X036090Y016774D01*
X035930Y016774D01*
X035850Y016694D01*
X036366Y016694D02*
X036366Y016374D01*
X036686Y016694D01*
X036686Y016374D01*
X036606Y016294D01*
X036446Y016294D01*
X036366Y016374D01*
X036366Y016694D02*
X036446Y016774D01*
X036606Y016774D01*
X036686Y016694D01*
X036606Y017294D02*
X036446Y017294D01*
X036366Y017374D01*
X036366Y017454D01*
X036446Y017534D01*
X036606Y017534D01*
X036686Y017454D01*
X036686Y017374D01*
X036606Y017294D01*
X036606Y017534D02*
X036686Y017614D01*
X036686Y017694D01*
X036606Y017774D01*
X036446Y017774D01*
X036366Y017694D01*
X036366Y017614D01*
X036446Y017534D01*
X036170Y017614D02*
X035850Y017294D01*
X036170Y017294D01*
X036170Y017614D02*
X036170Y017694D01*
X036090Y017774D01*
X035930Y017774D01*
X035850Y017694D01*
X035850Y018294D02*
X036170Y018614D01*
X036170Y018694D01*
X036090Y018774D01*
X035930Y018774D01*
X035850Y018694D01*
X035850Y018294D02*
X036170Y018294D01*
X036366Y018374D02*
X036366Y018534D01*
X036606Y018534D01*
X036686Y018454D01*
X036686Y018374D01*
X036606Y018294D01*
X036446Y018294D01*
X036366Y018374D01*
X036366Y018534D02*
X036526Y018694D01*
X036686Y018774D01*
X036606Y019294D02*
X036606Y019774D01*
X036366Y019534D01*
X036686Y019534D01*
X036170Y019614D02*
X035850Y019294D01*
X036170Y019294D01*
X036170Y019614D02*
X036170Y019694D01*
X036090Y019774D01*
X035930Y019774D01*
X035850Y019694D01*
X035850Y020294D02*
X036170Y020614D01*
X036170Y020694D01*
X036090Y020774D01*
X035930Y020774D01*
X035850Y020694D01*
X035850Y020294D02*
X036170Y020294D01*
X036366Y020294D02*
X036686Y020614D01*
X036686Y020694D01*
X036606Y020774D01*
X036446Y020774D01*
X036366Y020694D01*
X036366Y020294D02*
X036686Y020294D01*
X037250Y021054D02*
X038750Y021054D01*
X039000Y021304D01*
X039000Y021804D01*
X038750Y022054D01*
X037250Y022054D01*
X037000Y021804D01*
X037000Y021304D01*
X037250Y021054D01*
X035000Y021304D02*
X034750Y021054D01*
X034250Y021054D01*
X034000Y021304D01*
X033750Y021054D01*
X033250Y021054D01*
X033000Y021304D01*
X032750Y021054D01*
X032250Y021054D01*
X032000Y021304D01*
X031750Y021054D01*
X031250Y021054D01*
X031000Y021304D01*
X030750Y021054D01*
X030250Y021054D01*
X030000Y021304D01*
X029750Y021054D01*
X029250Y021054D01*
X029000Y021304D01*
X028750Y021054D01*
X028250Y021054D01*
X028000Y021304D01*
X027750Y021054D01*
X027250Y021054D01*
X027000Y021304D01*
X027000Y021804D01*
X027250Y022054D01*
X027750Y022054D01*
X028000Y021804D01*
X028250Y022054D01*
X028750Y022054D01*
X029000Y021804D01*
X029250Y022054D01*
X029750Y022054D01*
X030000Y021804D01*
X030250Y022054D01*
X030750Y022054D01*
X031000Y021804D01*
X031250Y022054D01*
X031750Y022054D01*
X032000Y021804D01*
X032250Y022054D01*
X032750Y022054D01*
X033000Y021804D01*
X033250Y022054D01*
X033750Y022054D01*
X034000Y021804D01*
X034250Y022054D01*
X034750Y022054D01*
X035000Y021804D01*
X035000Y021304D01*
X034610Y020879D02*
X034610Y020559D01*
X034610Y020719D02*
X034130Y020719D01*
X034290Y020559D01*
X034290Y020364D02*
X034210Y020364D01*
X034130Y020284D01*
X034130Y020124D01*
X034210Y020044D01*
X034290Y020364D02*
X034610Y020044D01*
X034610Y020364D01*
X033610Y020364D02*
X033610Y020044D01*
X033290Y020364D01*
X033210Y020364D01*
X033130Y020284D01*
X033130Y020124D01*
X033210Y020044D01*
X033210Y020559D02*
X033130Y020639D01*
X033130Y020799D01*
X033210Y020879D01*
X033530Y020559D01*
X033610Y020639D01*
X033610Y020799D01*
X033530Y020879D01*
X033210Y020879D01*
X033210Y020559D02*
X033530Y020559D01*
X032610Y020639D02*
X032610Y020799D01*
X032530Y020879D01*
X032210Y020879D01*
X032130Y020799D01*
X032130Y020639D01*
X032210Y020559D01*
X032290Y020559D01*
X032370Y020639D01*
X032370Y020879D01*
X032610Y020639D02*
X032530Y020559D01*
X032610Y020364D02*
X032610Y020044D01*
X032610Y020204D02*
X032130Y020204D01*
X032290Y020044D01*
X031610Y020044D02*
X031610Y020364D01*
X031610Y020204D02*
X031130Y020204D01*
X031290Y020044D01*
X030610Y020044D02*
X030610Y020364D01*
X030610Y020204D02*
X030130Y020204D01*
X030290Y020044D01*
X030130Y020559D02*
X030130Y020879D01*
X030210Y020879D01*
X030530Y020559D01*
X030610Y020559D01*
X031130Y020639D02*
X031130Y020799D01*
X031210Y020879D01*
X031290Y020879D01*
X031370Y020799D01*
X031370Y020639D01*
X031290Y020559D01*
X031210Y020559D01*
X031130Y020639D01*
X031370Y020639D02*
X031450Y020559D01*
X031530Y020559D01*
X031610Y020639D01*
X031610Y020799D01*
X031530Y020879D01*
X031450Y020879D01*
X031370Y020799D01*
X029610Y020799D02*
X029530Y020879D01*
X029450Y020879D01*
X029370Y020799D01*
X029370Y020559D01*
X029530Y020559D01*
X029610Y020639D01*
X029610Y020799D01*
X029370Y020559D02*
X029210Y020719D01*
X029130Y020879D01*
X028610Y020799D02*
X028610Y020639D01*
X028530Y020559D01*
X028370Y020559D02*
X028290Y020719D01*
X028290Y020799D01*
X028370Y020879D01*
X028530Y020879D01*
X028610Y020799D01*
X028370Y020559D02*
X028130Y020559D01*
X028130Y020879D01*
X027610Y020799D02*
X027130Y020799D01*
X027370Y020559D01*
X027370Y020879D01*
X027610Y020364D02*
X027610Y020044D01*
X027610Y020204D02*
X027130Y020204D01*
X027290Y020044D01*
X028130Y020204D02*
X028290Y020044D01*
X028130Y020204D02*
X028610Y020204D01*
X028610Y020044D02*
X028610Y020364D01*
X029130Y020204D02*
X029610Y020204D01*
X029610Y020044D02*
X029610Y020364D01*
X029290Y020044D02*
X029130Y020204D01*
X026000Y021304D02*
X025750Y021054D01*
X025250Y021054D01*
X025000Y021304D01*
X024750Y021054D01*
X024250Y021054D01*
X024000Y021304D01*
X023750Y021054D01*
X023250Y021054D01*
X023000Y021304D01*
X022750Y021054D01*
X022250Y021054D01*
X022000Y021304D01*
X021750Y021054D01*
X021250Y021054D01*
X021000Y021304D01*
X020750Y021054D01*
X020250Y021054D01*
X020000Y021304D01*
X019750Y021054D01*
X019250Y021054D01*
X019000Y021304D01*
X018750Y021054D01*
X018250Y021054D01*
X018000Y021304D01*
X018000Y021804D01*
X018250Y022054D01*
X018750Y022054D01*
X019000Y021804D01*
X019250Y022054D01*
X019750Y022054D01*
X020000Y021804D01*
X020250Y022054D01*
X020750Y022054D01*
X021000Y021804D01*
X021250Y022054D01*
X021750Y022054D01*
X022000Y021804D01*
X022250Y022054D01*
X022750Y022054D01*
X023000Y021804D01*
X023250Y022054D01*
X023750Y022054D01*
X024000Y021804D01*
X024250Y022054D01*
X024750Y022054D01*
X025000Y021804D01*
X025250Y022054D01*
X025750Y022054D01*
X026000Y021804D01*
X026000Y021304D01*
X025530Y020714D02*
X025210Y020714D01*
X025530Y020394D01*
X025610Y020474D01*
X025610Y020634D01*
X025530Y020714D01*
X025210Y020714D02*
X025130Y020634D01*
X025130Y020474D01*
X025210Y020394D01*
X025530Y020394D01*
X024610Y020394D02*
X024610Y020714D01*
X024610Y020554D02*
X024130Y020554D01*
X024290Y020394D01*
X023610Y020394D02*
X023610Y020714D01*
X023610Y020394D02*
X023290Y020714D01*
X023210Y020714D01*
X023130Y020634D01*
X023130Y020474D01*
X023210Y020394D01*
X022610Y020474D02*
X022530Y020394D01*
X022610Y020474D02*
X022610Y020634D01*
X022530Y020714D01*
X022450Y020714D01*
X022370Y020634D01*
X022370Y020554D01*
X022370Y020634D02*
X022290Y020714D01*
X022210Y020714D01*
X022130Y020634D01*
X022130Y020474D01*
X022210Y020394D01*
X021610Y020634D02*
X021130Y020634D01*
X021370Y020394D01*
X021370Y020714D01*
X020610Y020634D02*
X020610Y020474D01*
X020530Y020394D01*
X020370Y020394D02*
X020290Y020554D01*
X020290Y020634D01*
X020370Y020714D01*
X020530Y020714D01*
X020610Y020634D01*
X020370Y020394D02*
X020130Y020394D01*
X020130Y020714D01*
X019610Y020634D02*
X019610Y020474D01*
X019530Y020394D01*
X019370Y020394D01*
X019370Y020634D01*
X019450Y020714D01*
X019530Y020714D01*
X019610Y020634D01*
X019370Y020394D02*
X019210Y020554D01*
X019130Y020714D01*
X018610Y020394D02*
X018530Y020394D01*
X018210Y020714D01*
X018130Y020714D01*
X018130Y020394D01*
X017110Y020474D02*
X017030Y020394D01*
X016950Y020394D01*
X016870Y020474D01*
X016870Y020634D01*
X016950Y020714D01*
X017030Y020714D01*
X017110Y020634D01*
X017110Y020474D01*
X016870Y020474D02*
X016790Y020394D01*
X016710Y020394D01*
X016630Y020474D01*
X016630Y020634D01*
X016710Y020714D01*
X016790Y020714D01*
X016870Y020634D01*
X016650Y021054D02*
X017150Y021054D01*
X017400Y021304D01*
X017400Y021804D01*
X017150Y022054D01*
X016650Y022054D01*
X016400Y021804D01*
X016150Y022054D01*
X015650Y022054D01*
X015400Y021804D01*
X015150Y022054D01*
X014650Y022054D01*
X014400Y021804D01*
X014150Y022054D01*
X013650Y022054D01*
X013400Y021804D01*
X013150Y022054D01*
X012650Y022054D01*
X012400Y021804D01*
X012150Y022054D01*
X011650Y022054D01*
X011400Y021804D01*
X011150Y022054D01*
X010650Y022054D01*
X010400Y021804D01*
X010150Y022054D01*
X009650Y022054D01*
X009400Y021804D01*
X009400Y021304D01*
X009650Y021054D01*
X010150Y021054D01*
X010400Y021304D01*
X010650Y021054D01*
X011150Y021054D01*
X011400Y021304D01*
X011650Y021054D01*
X012150Y021054D01*
X012400Y021304D01*
X012650Y021054D01*
X013150Y021054D01*
X013400Y021304D01*
X013650Y021054D01*
X014150Y021054D01*
X014400Y021304D01*
X014650Y021054D01*
X015150Y021054D01*
X015400Y021304D01*
X015650Y021054D01*
X016150Y021054D01*
X016400Y021304D01*
X016650Y021054D01*
X016110Y020634D02*
X016110Y020474D01*
X016030Y020394D01*
X015870Y020474D02*
X015870Y020714D01*
X016030Y020714D02*
X015710Y020714D01*
X015630Y020634D01*
X015630Y020474D01*
X015710Y020394D01*
X015790Y020394D01*
X015870Y020474D01*
X016110Y020634D02*
X016030Y020714D01*
X015110Y020649D02*
X015110Y020489D01*
X015030Y020409D01*
X014710Y020729D01*
X015030Y020729D01*
X015110Y020649D01*
X015030Y020409D02*
X014710Y020409D01*
X014630Y020489D01*
X014630Y020649D01*
X014710Y020729D01*
X014110Y020729D02*
X014110Y020409D01*
X014110Y020569D02*
X013630Y020569D01*
X013790Y020409D01*
X014110Y020214D02*
X014110Y019894D01*
X014110Y020054D02*
X013630Y020054D01*
X013790Y019894D01*
X013110Y019894D02*
X013110Y020214D01*
X013110Y020054D02*
X012630Y020054D01*
X012790Y019894D01*
X012710Y020409D02*
X012630Y020489D01*
X012630Y020649D01*
X012710Y020729D01*
X012790Y020729D01*
X013110Y020409D01*
X013110Y020729D01*
X012110Y020649D02*
X012110Y020489D01*
X012030Y020409D01*
X012110Y020214D02*
X012110Y019894D01*
X012110Y020054D02*
X011630Y020054D01*
X011790Y019894D01*
X011710Y020409D02*
X011630Y020489D01*
X011630Y020649D01*
X011710Y020729D01*
X011790Y020729D01*
X011870Y020649D01*
X011950Y020729D01*
X012030Y020729D01*
X012110Y020649D01*
X011870Y020649D02*
X011870Y020569D01*
X011120Y020618D02*
X011120Y020378D01*
X010640Y020378D01*
X010640Y020618D01*
X010720Y020698D01*
X011040Y020698D01*
X011120Y020618D01*
X011120Y020183D02*
X010640Y020183D01*
X010640Y019862D02*
X011120Y020183D01*
X011120Y019862D02*
X010640Y019862D01*
X010720Y019667D02*
X010640Y019587D01*
X010640Y019427D01*
X010720Y019347D01*
X011040Y019347D01*
X011120Y019427D01*
X011120Y019587D01*
X011040Y019667D01*
X010880Y019667D01*
X010880Y019507D01*
X010170Y019667D02*
X010010Y019507D01*
X010010Y019587D02*
X010010Y019347D01*
X010170Y019347D02*
X009690Y019347D01*
X009690Y019587D01*
X009770Y019667D01*
X009930Y019667D01*
X010010Y019587D01*
X009930Y019862D02*
X009930Y020022D01*
X009690Y019862D02*
X010170Y019862D01*
X010170Y020183D01*
X010170Y020378D02*
X009690Y020378D01*
X009690Y020698D01*
X009930Y020538D02*
X009930Y020378D01*
X009690Y020183D02*
X009690Y019862D01*
X009850Y019151D02*
X010170Y019151D01*
X009930Y019151D02*
X009930Y018831D01*
X009850Y018831D02*
X009690Y018991D01*
X009850Y019151D01*
X009850Y018831D02*
X010170Y018831D01*
X006323Y017396D02*
X006323Y021806D01*
X003764Y021806D01*
X003764Y017396D01*
X003370Y017396D01*
X003370Y021806D01*
X003764Y021806D01*
X003764Y017396D02*
X006323Y017396D01*
X014630Y020054D02*
X015110Y020054D01*
X015110Y019894D02*
X015110Y020214D01*
X014790Y019894D02*
X014630Y020054D01*
X015358Y026176D02*
X016028Y026176D01*
X016028Y026806D02*
X015358Y026806D01*
X015358Y027357D02*
X016028Y027357D01*
X016028Y027987D02*
X015358Y027987D01*
X015358Y028538D02*
X016028Y028538D01*
X016028Y029168D02*
X015358Y029168D01*
X015358Y029719D02*
X016028Y029719D01*
X016028Y030349D02*
X015358Y030349D01*
X012878Y030349D02*
X012209Y030349D01*
X012209Y029719D02*
X012878Y029719D01*
X012878Y029168D02*
X012209Y029168D01*
X012209Y028538D02*
X012878Y028538D01*
X012878Y027987D02*
X012209Y027987D01*
X012209Y027357D02*
X012878Y027357D01*
X012878Y026806D02*
X012209Y026806D01*
X012209Y026176D02*
X012878Y026176D01*
X030319Y026176D02*
X030988Y026176D01*
X030988Y026806D02*
X030319Y026806D01*
X030319Y027357D02*
X030988Y027357D01*
X030988Y027987D02*
X030319Y027987D01*
X030319Y028538D02*
X030988Y028538D01*
X030988Y029168D02*
X030319Y029168D01*
X030319Y029719D02*
X030988Y029719D01*
X030988Y030349D02*
X030319Y030349D01*
X033075Y030349D02*
X033744Y030349D01*
X033744Y029719D02*
X033075Y029719D01*
X033075Y029168D02*
X033744Y029168D01*
X033744Y028538D02*
X033075Y028538D01*
X033075Y027987D02*
X033744Y027987D01*
X033744Y027357D02*
X033075Y027357D01*
X033075Y026806D02*
X033744Y026806D01*
X033744Y026176D02*
X033075Y026176D01*
X039370Y016784D02*
X039530Y016784D01*
X039610Y016704D01*
X039610Y016624D01*
X039530Y016544D01*
X039610Y016464D01*
X039610Y016384D01*
X039530Y016304D01*
X039370Y016304D01*
X039290Y016384D01*
X039450Y016544D02*
X039530Y016544D01*
X039806Y016624D02*
X039966Y016784D01*
X039966Y016304D01*
X039806Y016304D02*
X040126Y016304D01*
X040046Y015784D02*
X040126Y015704D01*
X040126Y015624D01*
X040046Y015544D01*
X040126Y015464D01*
X040126Y015384D01*
X040046Y015304D01*
X039886Y015304D01*
X039806Y015384D01*
X039610Y015384D02*
X039530Y015304D01*
X039370Y015304D01*
X039290Y015384D01*
X039450Y015544D02*
X039530Y015544D01*
X039610Y015464D01*
X039610Y015384D01*
X039530Y015544D02*
X039610Y015624D01*
X039610Y015704D01*
X039530Y015784D01*
X039370Y015784D01*
X039290Y015704D01*
X039806Y015704D02*
X039886Y015784D01*
X040046Y015784D01*
X040046Y015544D02*
X039966Y015544D01*
X040126Y014784D02*
X039806Y014784D01*
X039806Y014544D01*
X039966Y014624D01*
X040046Y014624D01*
X040126Y014544D01*
X040126Y014384D01*
X040046Y014304D01*
X039886Y014304D01*
X039806Y014384D01*
X039610Y014384D02*
X039530Y014304D01*
X039370Y014304D01*
X039290Y014384D01*
X039450Y014544D02*
X039530Y014544D01*
X039610Y014464D01*
X039610Y014384D01*
X039530Y014544D02*
X039610Y014624D01*
X039610Y014704D01*
X039530Y014784D01*
X039370Y014784D01*
X039290Y014704D01*
X039370Y013784D02*
X039530Y013784D01*
X039610Y013704D01*
X039610Y013624D01*
X039530Y013544D01*
X039610Y013464D01*
X039610Y013384D01*
X039530Y013304D01*
X039370Y013304D01*
X039290Y013384D01*
X039450Y013544D02*
X039530Y013544D01*
X039290Y013704D02*
X039370Y013784D01*
X039806Y013784D02*
X040126Y013784D01*
X040126Y013704D01*
X039806Y013384D01*
X039806Y013304D01*
X039886Y012784D02*
X039806Y012704D01*
X039806Y012624D01*
X039886Y012544D01*
X040126Y012544D01*
X040126Y012384D02*
X040126Y012704D01*
X040046Y012784D01*
X039886Y012784D01*
X039610Y012704D02*
X039610Y012624D01*
X039530Y012544D01*
X039610Y012464D01*
X039610Y012384D01*
X039530Y012304D01*
X039370Y012304D01*
X039290Y012384D01*
X039450Y012544D02*
X039530Y012544D01*
X039610Y012704D02*
X039530Y012784D01*
X039370Y012784D01*
X039290Y012704D01*
X039806Y012384D02*
X039886Y012304D01*
X040046Y012304D01*
X040126Y012384D01*
X039966Y011784D02*
X039966Y011304D01*
X039806Y011304D02*
X040126Y011304D01*
X039806Y011624D02*
X039966Y011784D01*
X039610Y011544D02*
X039290Y011544D01*
X039530Y011784D01*
X039530Y011304D01*
X039530Y010784D02*
X039290Y010544D01*
X039610Y010544D01*
X039806Y010704D02*
X039886Y010784D01*
X040046Y010784D01*
X040126Y010704D01*
X040126Y010624D01*
X040046Y010544D01*
X040126Y010464D01*
X040126Y010384D01*
X040046Y010304D01*
X039886Y010304D01*
X039806Y010384D01*
X039966Y010544D02*
X040046Y010544D01*
X039530Y010304D02*
X039530Y010784D01*
X039530Y009784D02*
X039290Y009544D01*
X039610Y009544D01*
X039806Y009544D02*
X039966Y009624D01*
X040046Y009624D01*
X040126Y009544D01*
X040126Y009384D01*
X040046Y009304D01*
X039886Y009304D01*
X039806Y009384D01*
X039806Y009544D02*
X039806Y009784D01*
X040126Y009784D01*
X039530Y009784D02*
X039530Y009304D01*
X039530Y008784D02*
X039290Y008544D01*
X039610Y008544D01*
X039530Y008304D02*
X039530Y008784D01*
X039806Y008784D02*
X040126Y008784D01*
X040126Y008704D01*
X039806Y008384D01*
X039806Y008304D01*
X039886Y007784D02*
X039806Y007704D01*
X039806Y007624D01*
X039886Y007544D01*
X040126Y007544D01*
X040126Y007384D02*
X040126Y007704D01*
X040046Y007784D01*
X039886Y007784D01*
X039530Y007784D02*
X039290Y007544D01*
X039610Y007544D01*
X039530Y007304D02*
X039530Y007784D01*
X039806Y007384D02*
X039886Y007304D01*
X040046Y007304D01*
X040126Y007384D01*
X039966Y006784D02*
X039966Y006304D01*
X039806Y006304D02*
X040126Y006304D01*
X039806Y006624D02*
X039966Y006784D01*
X039610Y006784D02*
X039290Y006784D01*
X039290Y006544D01*
X039450Y006624D01*
X039530Y006624D01*
X039610Y006544D01*
X039610Y006384D01*
X039530Y006304D01*
X039370Y006304D01*
X039290Y006384D01*
X039290Y005784D02*
X039290Y005544D01*
X039450Y005624D01*
X039530Y005624D01*
X039610Y005544D01*
X039610Y005384D01*
X039530Y005304D01*
X039370Y005304D01*
X039290Y005384D01*
X039290Y005784D02*
X039610Y005784D01*
X039806Y005704D02*
X039886Y005784D01*
X040046Y005784D01*
X040126Y005704D01*
X040126Y005624D01*
X040046Y005544D01*
X040126Y005464D01*
X040126Y005384D01*
X040046Y005304D01*
X039886Y005304D01*
X039806Y005384D01*
X039966Y005544D02*
X040046Y005544D01*
X034760Y004675D02*
X034760Y004515D01*
X034680Y004435D01*
X034520Y004595D02*
X034520Y004675D01*
X034600Y004755D01*
X034680Y004755D01*
X034760Y004675D01*
X034520Y004675D02*
X034440Y004755D01*
X034360Y004755D01*
X034280Y004675D01*
X034280Y004515D01*
X034360Y004435D01*
X033760Y004435D02*
X033760Y004755D01*
X033760Y004435D02*
X033440Y004755D01*
X033360Y004755D01*
X033280Y004675D01*
X033280Y004515D01*
X033360Y004435D01*
X032760Y004435D02*
X032760Y004755D01*
X032760Y004595D02*
X032280Y004595D01*
X032440Y004435D01*
X031760Y004515D02*
X031680Y004435D01*
X031360Y004755D01*
X031680Y004755D01*
X031760Y004675D01*
X031760Y004515D01*
X031680Y004435D02*
X031360Y004435D01*
X031280Y004515D01*
X031280Y004675D01*
X031360Y004755D01*
X039290Y016704D02*
X039370Y016784D01*
D11*
X039000Y016804D02*
X039000Y016304D01*
X038750Y016054D01*
X037250Y016054D01*
X037000Y016304D01*
X037000Y016804D01*
X037250Y017054D01*
X038750Y017054D01*
X039000Y017304D01*
X039000Y017804D01*
X038750Y018054D01*
X037250Y018054D01*
X037000Y018304D01*
X037000Y018804D01*
X037250Y019054D01*
X038750Y019054D01*
X039000Y019304D01*
X039000Y019804D01*
X038750Y020054D01*
X037250Y020054D01*
X037000Y020304D01*
X037000Y020804D01*
X037250Y021054D01*
X037250Y020054D02*
X037000Y019804D01*
X037000Y019304D01*
X037250Y019054D01*
X037250Y018054D02*
X037000Y017804D01*
X037000Y017304D01*
X037250Y017054D01*
X037250Y016054D02*
X037000Y015804D01*
X037000Y015304D01*
X037250Y015054D01*
X038750Y015054D01*
X039000Y015304D01*
X039000Y015804D01*
X038750Y016054D01*
X039000Y016804D02*
X038750Y017054D01*
X038750Y018054D02*
X039000Y018304D01*
X039000Y018804D01*
X038750Y019054D01*
X038750Y020054D02*
X039000Y020304D01*
X039000Y020804D01*
X038750Y021054D01*
X039196Y024365D02*
X040596Y024365D01*
X039196Y024365D02*
X039196Y024465D01*
X039196Y031665D02*
X039196Y031765D01*
X040596Y031765D01*
X038750Y015054D02*
X039000Y014804D01*
X039000Y014304D01*
X038750Y014054D01*
X037250Y014054D01*
X037000Y014304D01*
X037000Y014804D01*
X037250Y015054D01*
X037250Y014054D02*
X037000Y013804D01*
X037000Y013304D01*
X037250Y013054D01*
X038750Y013054D01*
X039000Y012804D01*
X039000Y012304D01*
X038750Y012054D01*
X037250Y012054D01*
X037000Y012304D01*
X037000Y012804D01*
X037250Y013054D01*
X037250Y012054D02*
X037000Y011804D01*
X037000Y011304D01*
X037250Y011054D01*
X038750Y011054D01*
X039000Y011304D01*
X039000Y011804D01*
X038750Y012054D01*
X038750Y013054D02*
X039000Y013304D01*
X039000Y013804D01*
X038750Y014054D01*
X038750Y011054D02*
X039000Y010804D01*
X039000Y010304D01*
X038750Y010054D01*
X037250Y010054D01*
X037000Y010304D01*
X037000Y010804D01*
X037250Y011054D01*
X037250Y010054D02*
X037000Y009804D01*
X037000Y009304D01*
X037250Y009054D01*
X038750Y009054D01*
X039000Y009304D01*
X039000Y009804D01*
X038750Y010054D01*
X038750Y009054D02*
X039000Y008804D01*
X039000Y008304D01*
X038750Y008054D01*
X037250Y008054D01*
X037000Y008304D01*
X037000Y008804D01*
X037250Y009054D01*
X037250Y008054D02*
X037000Y007804D01*
X037000Y007304D01*
X037250Y007054D01*
X038750Y007054D01*
X039000Y007304D01*
X039000Y007804D01*
X038750Y008054D01*
X038750Y007054D02*
X039000Y006804D01*
X039000Y006304D01*
X038750Y006054D01*
X037250Y006054D01*
X037000Y006304D01*
X037000Y006804D01*
X037250Y007054D01*
X037250Y006054D02*
X037000Y005804D01*
X037000Y005304D01*
X037250Y005054D01*
X038750Y005054D02*
X039000Y005304D01*
X039000Y005804D01*
X038750Y006054D01*
X039337Y004634D02*
X039280Y004577D01*
X039280Y004350D01*
X039337Y004294D01*
X039450Y004294D01*
X039507Y004350D01*
X039507Y004464D01*
X039393Y004464D01*
X039507Y004577D02*
X039450Y004634D01*
X039337Y004634D01*
X039648Y004634D02*
X039875Y004294D01*
X039875Y004634D01*
X040017Y004634D02*
X040187Y004634D01*
X040243Y004577D01*
X040243Y004350D01*
X040187Y004294D01*
X040017Y004294D01*
X040017Y004634D01*
X039648Y004634D02*
X039648Y004294D01*
X018670Y004234D02*
X018500Y004234D01*
X018443Y004178D01*
X018443Y004007D01*
X018670Y004007D01*
X018670Y003875D02*
X018670Y003762D01*
X018670Y003819D02*
X018443Y003819D01*
X018443Y003762D01*
X018330Y003819D02*
X018273Y003819D01*
X018330Y003620D02*
X018557Y003620D01*
X018670Y003507D01*
X018557Y003394D01*
X018330Y003394D01*
X017670Y003450D02*
X017670Y003564D01*
X017613Y003620D01*
X017500Y003620D01*
X017500Y003507D01*
X017613Y003394D02*
X017670Y003450D01*
X017613Y003394D02*
X017386Y003394D01*
X017330Y003450D01*
X017330Y003564D01*
X017386Y003620D01*
X017330Y003762D02*
X017670Y003989D01*
X017330Y003989D01*
X017330Y004130D02*
X017330Y004300D01*
X017386Y004357D01*
X017613Y004357D01*
X017670Y004300D01*
X017670Y004130D01*
X017330Y004130D01*
X017330Y003762D02*
X017670Y003762D01*
X016670Y003762D02*
X016330Y003762D01*
X016670Y003989D01*
X016330Y003989D01*
X016330Y004130D02*
X016330Y004300D01*
X016386Y004357D01*
X016613Y004357D01*
X016670Y004300D01*
X016670Y004130D01*
X016330Y004130D01*
X016386Y003620D02*
X016330Y003564D01*
X016330Y003450D01*
X016386Y003394D01*
X016613Y003394D01*
X016670Y003450D01*
X016670Y003564D01*
X016613Y003620D01*
X016500Y003620D01*
X016500Y003507D01*
X015670Y003564D02*
X015670Y003450D01*
X015613Y003394D01*
X015500Y003394D02*
X015443Y003507D01*
X015443Y003564D01*
X015500Y003620D01*
X015613Y003620D01*
X015670Y003564D01*
X015557Y003762D02*
X015670Y003875D01*
X015557Y003989D01*
X015330Y003989D01*
X015330Y003762D02*
X015557Y003762D01*
X015330Y003620D02*
X015330Y003394D01*
X015500Y003394D01*
X014670Y003450D02*
X014613Y003394D01*
X014670Y003450D02*
X014670Y003564D01*
X014613Y003620D01*
X014557Y003620D01*
X014500Y003564D01*
X014500Y003507D01*
X014500Y003564D02*
X014443Y003620D01*
X014386Y003620D01*
X014330Y003564D01*
X014330Y003450D01*
X014386Y003394D01*
X014613Y003762D02*
X014613Y003819D01*
X014670Y003819D01*
X014670Y003762D01*
X014613Y003762D01*
X014613Y003946D02*
X014670Y004003D01*
X014670Y004116D01*
X014613Y004173D01*
X014557Y004173D01*
X014500Y004116D01*
X014500Y004059D01*
X014500Y004116D02*
X014443Y004173D01*
X014386Y004173D01*
X014330Y004116D01*
X014330Y004003D01*
X014386Y003946D01*
X013670Y003989D02*
X013670Y003762D01*
X013330Y003762D01*
X013330Y003989D01*
X013386Y004130D02*
X013443Y004130D01*
X013500Y004187D01*
X013500Y004300D01*
X013557Y004357D01*
X013613Y004357D01*
X013670Y004300D01*
X013670Y004187D01*
X013613Y004130D01*
X013386Y004130D02*
X013330Y004187D01*
X013330Y004300D01*
X013386Y004357D01*
X013330Y004498D02*
X013670Y004498D01*
X013670Y004725D01*
X013500Y004612D02*
X013500Y004498D01*
X013330Y004498D02*
X013330Y004725D01*
X013330Y004867D02*
X013330Y005094D01*
X013330Y004980D02*
X013670Y004980D01*
X014330Y004541D02*
X014557Y004541D01*
X014670Y004428D01*
X014557Y004314D01*
X014330Y004314D01*
X013500Y003875D02*
X013500Y003762D01*
X013500Y003620D02*
X013557Y003564D01*
X013557Y003394D01*
X013557Y003507D02*
X013670Y003620D01*
X013500Y003620D02*
X013386Y003620D01*
X013330Y003564D01*
X013330Y003394D01*
X013670Y003394D01*
X013300Y008105D02*
X011000Y008105D01*
X011000Y018105D01*
X011750Y018105D01*
X011752Y018066D01*
X011758Y018027D01*
X011767Y017989D01*
X011780Y017952D01*
X011797Y017916D01*
X011817Y017883D01*
X011841Y017851D01*
X011867Y017822D01*
X011896Y017796D01*
X011928Y017772D01*
X011961Y017752D01*
X011997Y017735D01*
X012034Y017722D01*
X012072Y017713D01*
X012111Y017707D01*
X012150Y017705D01*
X012189Y017707D01*
X012228Y017713D01*
X012266Y017722D01*
X012303Y017735D01*
X012339Y017752D01*
X012372Y017772D01*
X012404Y017796D01*
X012433Y017822D01*
X012459Y017851D01*
X012483Y017883D01*
X012503Y017916D01*
X012520Y017952D01*
X012533Y017989D01*
X012542Y018027D01*
X012548Y018066D01*
X012550Y018105D01*
X013300Y018105D01*
X013300Y008105D01*
X006757Y024365D02*
X005357Y024365D01*
X006757Y024365D02*
X006757Y024465D01*
X006757Y031665D02*
X006757Y031765D01*
X005357Y031765D01*
D12*
X037200Y022334D02*
X037500Y022334D01*
X038500Y022334D01*
X038500Y022074D01*
X037500Y022084D02*
X037500Y022334D01*
X037500Y004024D02*
X037500Y003734D01*
X038500Y003734D01*
X038500Y004034D01*
X039000Y004054D02*
X040180Y004054D01*
D13*
X025732Y011924D02*
X023961Y011924D01*
X023961Y017435D01*
X025732Y017435D01*
X025732Y011924D01*
X036525Y022129D02*
X036575Y022079D01*
X036675Y022079D01*
X036725Y022129D01*
X036725Y022229D01*
X036675Y022279D01*
X036625Y022279D01*
X036525Y022229D01*
X036525Y022379D01*
X036725Y022379D01*
X036847Y022379D02*
X036847Y022179D01*
X036947Y022079D01*
X037047Y022179D01*
X037047Y022379D01*
X028291Y026884D02*
X028291Y027672D01*
X026913Y027672D01*
X026913Y026884D01*
X028291Y026884D01*
X028291Y029246D02*
X026913Y029246D01*
X026913Y030034D01*
X028291Y030034D01*
X028291Y029246D01*
X024669Y031018D02*
X024669Y025113D01*
X022386Y025113D01*
X022386Y031018D01*
X024669Y031018D01*
X019433Y030034D02*
X019433Y029246D01*
X018055Y029246D01*
X018055Y030034D01*
X019433Y030034D01*
X019433Y027672D02*
X018055Y027672D01*
X018055Y026884D01*
X019433Y026884D01*
X019433Y027672D01*
X007744Y014817D02*
X004744Y014817D01*
X004684Y014815D01*
X004623Y014810D01*
X004564Y014801D01*
X004505Y014788D01*
X004446Y014772D01*
X004389Y014752D01*
X004334Y014729D01*
X004279Y014702D01*
X004227Y014673D01*
X004176Y014640D01*
X004127Y014604D01*
X004081Y014566D01*
X004037Y014524D01*
X003995Y014480D01*
X003957Y014434D01*
X003921Y014385D01*
X003888Y014334D01*
X003859Y014282D01*
X003832Y014227D01*
X003809Y014172D01*
X003789Y014115D01*
X003773Y014056D01*
X003760Y013997D01*
X003751Y013938D01*
X003746Y013877D01*
X003744Y013817D01*
X003744Y010817D01*
X003746Y010757D01*
X003751Y010696D01*
X003760Y010637D01*
X003773Y010578D01*
X003789Y010519D01*
X003809Y010462D01*
X003832Y010407D01*
X003859Y010352D01*
X003888Y010300D01*
X003921Y010249D01*
X003957Y010200D01*
X003995Y010154D01*
X004037Y010110D01*
X004081Y010068D01*
X004127Y010030D01*
X004176Y009994D01*
X004227Y009961D01*
X004279Y009932D01*
X004334Y009905D01*
X004389Y009882D01*
X004446Y009862D01*
X004505Y009846D01*
X004564Y009833D01*
X004623Y009824D01*
X004684Y009819D01*
X004744Y009817D01*
X008744Y009817D01*
X008744Y013817D01*
X008742Y013877D01*
X008737Y013938D01*
X008728Y013997D01*
X008715Y014056D01*
X008699Y014115D01*
X008679Y014172D01*
X008656Y014227D01*
X008629Y014282D01*
X008600Y014334D01*
X008567Y014385D01*
X008531Y014434D01*
X008493Y014480D01*
X008451Y014524D01*
X008407Y014566D01*
X008361Y014604D01*
X008312Y014640D01*
X008261Y014673D01*
X008209Y014702D01*
X008154Y014729D01*
X008099Y014752D01*
X008042Y014772D01*
X007983Y014788D01*
X007924Y014801D01*
X007865Y014810D01*
X007804Y014815D01*
X007744Y014817D01*
X008409Y005034D02*
X008409Y003262D01*
X011165Y003262D01*
X011165Y005034D01*
X008409Y005034D01*
D14*
X008360Y003030D02*
X008284Y002953D01*
X008284Y002646D01*
X008360Y002570D01*
X008514Y002570D01*
X008590Y002646D01*
X008590Y002953D01*
X008514Y003030D01*
X008360Y003030D01*
X008130Y002953D02*
X008130Y002877D01*
X008053Y002800D01*
X007823Y002800D01*
X007823Y002570D02*
X007823Y003030D01*
X008053Y003030D01*
X008130Y002953D01*
X008053Y002800D02*
X008130Y002723D01*
X008130Y002646D01*
X008053Y002570D01*
X007823Y002570D01*
X008744Y002646D02*
X008821Y002570D01*
X008974Y002570D01*
X009051Y002646D01*
X009051Y002953D01*
X008974Y003030D01*
X008821Y003030D01*
X008744Y002953D01*
X008744Y002646D01*
X009204Y002570D02*
X009204Y003030D01*
X009358Y002877D01*
X009511Y003030D01*
X009511Y002570D01*
X009665Y002646D02*
X009741Y002570D01*
X009895Y002570D01*
X009972Y002646D01*
X010125Y002646D02*
X010202Y002570D01*
X010355Y002570D01*
X010432Y002646D01*
X010432Y002953D01*
X010355Y003030D01*
X010202Y003030D01*
X010125Y002953D01*
X010125Y002646D01*
X009972Y002953D02*
X009895Y003030D01*
X009741Y003030D01*
X009665Y002953D01*
X009665Y002646D01*
X010586Y002570D02*
X010586Y003030D01*
X010892Y002570D01*
X010892Y003030D01*
X011046Y003030D02*
X011353Y002570D01*
X011353Y003030D01*
X011046Y003030D02*
X011046Y002570D01*
X010989Y005282D02*
X011295Y005282D01*
X011142Y005282D02*
X011142Y005743D01*
X010989Y005589D01*
X008724Y009337D02*
X008724Y009644D01*
X008724Y009491D02*
X008264Y009491D01*
X008417Y009337D01*
X023283Y017215D02*
X023437Y017062D01*
X023283Y017215D02*
X023744Y017215D01*
X023744Y017062D02*
X023744Y017369D01*
X025980Y016115D02*
X026441Y016115D01*
X025980Y015808D01*
X026441Y015808D01*
X026441Y015654D02*
X025980Y015654D01*
X025980Y015347D02*
X026441Y015654D01*
X026441Y015347D02*
X025980Y015347D01*
X026057Y015194D02*
X025980Y015117D01*
X025980Y014964D01*
X026057Y014887D01*
X026364Y014887D01*
X026441Y014964D01*
X026441Y015117D01*
X026364Y015194D01*
X026057Y015194D01*
X026057Y014734D02*
X025980Y014657D01*
X025980Y014503D01*
X026057Y014427D01*
X026364Y014427D01*
X026441Y014503D01*
X026441Y014657D01*
X026364Y014734D01*
X026441Y014273D02*
X026441Y013966D01*
X025980Y013966D01*
X025980Y014273D01*
X026210Y014120D02*
X026210Y013966D01*
X026287Y013813D02*
X026364Y013813D01*
X026441Y013736D01*
X026441Y013583D01*
X026364Y013506D01*
X026441Y013352D02*
X025980Y013352D01*
X026057Y013506D02*
X026134Y013506D01*
X026210Y013583D01*
X026210Y013736D01*
X026287Y013813D01*
X026057Y013813D02*
X025980Y013736D01*
X025980Y013583D01*
X026057Y013506D01*
X026441Y013352D02*
X025980Y013046D01*
X026441Y013046D01*
X026441Y012892D02*
X026441Y012585D01*
X025980Y012585D01*
X025980Y012892D01*
X026210Y012739D02*
X026210Y012585D01*
X026287Y012432D02*
X026364Y012432D01*
X026441Y012355D01*
X026441Y012201D01*
X026364Y012125D01*
X026210Y012201D02*
X026210Y012355D01*
X026287Y012432D01*
X026057Y012432D02*
X025980Y012355D01*
X025980Y012201D01*
X026057Y012125D01*
X026134Y012125D01*
X026210Y012201D01*
X036622Y023992D02*
X036469Y024146D01*
X036929Y024146D01*
X036929Y024299D02*
X036929Y023992D01*
X036852Y024453D02*
X036929Y024529D01*
X036929Y024683D01*
X036852Y024760D01*
X036699Y024760D01*
X036622Y024683D01*
X036622Y024606D01*
X036699Y024453D01*
X036469Y024453D01*
X036469Y024760D01*
X040016Y024693D02*
X040476Y024693D01*
X040476Y024846D02*
X040476Y024539D01*
X040169Y024539D02*
X040016Y024693D01*
X040246Y025000D02*
X040246Y025306D01*
X040476Y025230D02*
X040016Y025230D01*
X040246Y025000D01*
X040092Y030844D02*
X040016Y030921D01*
X040016Y031074D01*
X040092Y031151D01*
X040169Y031151D01*
X040476Y030844D01*
X040476Y031151D01*
X036906Y031297D02*
X036906Y031604D01*
X036906Y031451D02*
X036445Y031451D01*
X036599Y031297D01*
X028924Y030442D02*
X028924Y030211D01*
X028771Y030211D02*
X028771Y030442D01*
X028848Y030518D01*
X028924Y030442D01*
X028771Y030442D02*
X028694Y030518D01*
X028617Y030518D01*
X028617Y030211D01*
X028464Y030211D02*
X028464Y030442D01*
X028387Y030518D01*
X028234Y030518D01*
X028157Y030442D01*
X028004Y030595D02*
X027927Y030672D01*
X027773Y030672D01*
X027697Y030595D01*
X027697Y030288D01*
X027773Y030211D01*
X027927Y030211D01*
X028004Y030288D01*
X028004Y030595D01*
X028157Y030672D02*
X028157Y030211D01*
X027083Y030211D02*
X026776Y030211D01*
X026929Y030211D02*
X026929Y030672D01*
X026776Y030518D01*
X025372Y029543D02*
X024911Y029543D01*
X024911Y029236D02*
X025372Y029543D01*
X025372Y029236D02*
X024911Y029236D01*
X024911Y029083D02*
X025372Y029083D01*
X024911Y028776D01*
X025372Y028776D01*
X025295Y028622D02*
X024988Y028622D01*
X024911Y028546D01*
X024911Y028392D01*
X024988Y028316D01*
X025295Y028316D01*
X025372Y028392D01*
X025372Y028546D01*
X025295Y028622D01*
X025295Y028162D02*
X025372Y028085D01*
X025372Y027932D01*
X025295Y027855D01*
X024988Y027855D01*
X024911Y027932D01*
X024911Y028085D01*
X024988Y028162D01*
X024988Y027702D02*
X025142Y027702D01*
X025218Y027625D01*
X025218Y027395D01*
X025218Y027548D02*
X025372Y027702D01*
X025372Y027395D02*
X024911Y027395D01*
X024911Y027625D01*
X024988Y027702D01*
X024911Y027241D02*
X024911Y026934D01*
X024911Y026781D02*
X025372Y026781D01*
X025372Y027088D02*
X024911Y027088D01*
X024911Y026781D02*
X025065Y026627D01*
X024911Y026474D01*
X025372Y026474D01*
X026382Y026473D02*
X026382Y026396D01*
X026459Y026319D01*
X026612Y026319D01*
X026689Y026243D01*
X026689Y026166D01*
X026612Y026089D01*
X026459Y026089D01*
X026382Y026166D01*
X026382Y026473D02*
X026459Y026550D01*
X026612Y026550D01*
X026689Y026473D01*
X026843Y026550D02*
X026843Y026089D01*
X027150Y026089D01*
X027303Y026089D02*
X027303Y026550D01*
X027610Y026089D01*
X027610Y026550D01*
X027763Y026473D02*
X027763Y026396D01*
X027840Y026319D01*
X027994Y026319D01*
X028070Y026243D01*
X028070Y026166D01*
X027994Y026089D01*
X027840Y026089D01*
X027763Y026166D01*
X027763Y026473D02*
X027840Y026550D01*
X027994Y026550D01*
X028070Y026473D01*
X028224Y026550D02*
X028224Y026089D01*
X028531Y026089D01*
X028684Y026089D02*
X028991Y026089D01*
X028838Y026089D02*
X028838Y026550D01*
X028684Y026396D01*
X028531Y026550D02*
X028224Y026550D01*
X028224Y026319D02*
X028377Y026319D01*
X027150Y026550D02*
X026843Y026550D01*
X026843Y026319D02*
X026996Y026319D01*
X020520Y026207D02*
X020213Y026207D01*
X020520Y026514D01*
X020520Y026591D01*
X020443Y026668D01*
X020290Y026668D01*
X020213Y026591D01*
X020060Y026668D02*
X019753Y026668D01*
X019753Y026207D01*
X020060Y026207D01*
X019906Y026438D02*
X019753Y026438D01*
X019599Y026361D02*
X019599Y026284D01*
X019523Y026207D01*
X019369Y026207D01*
X019292Y026284D01*
X019139Y026207D02*
X019139Y026668D01*
X019292Y026591D02*
X019292Y026514D01*
X019369Y026438D01*
X019523Y026438D01*
X019599Y026361D01*
X019599Y026591D02*
X019523Y026668D01*
X019369Y026668D01*
X019292Y026591D01*
X019139Y026207D02*
X018832Y026668D01*
X018832Y026207D01*
X018679Y026207D02*
X018372Y026207D01*
X018372Y026668D01*
X018679Y026668D01*
X018525Y026438D02*
X018372Y026438D01*
X018218Y026361D02*
X018218Y026284D01*
X018141Y026207D01*
X017988Y026207D01*
X017911Y026284D01*
X017988Y026438D02*
X018141Y026438D01*
X018218Y026361D01*
X018218Y026591D02*
X018141Y026668D01*
X017988Y026668D01*
X017911Y026591D01*
X017911Y026514D01*
X017988Y026438D01*
X017655Y030251D02*
X017348Y030251D01*
X017501Y030251D02*
X017501Y030711D01*
X017348Y030558D01*
X018269Y030634D02*
X018269Y030327D01*
X018345Y030251D01*
X018499Y030251D01*
X018576Y030327D01*
X018576Y030634D01*
X018499Y030711D01*
X018345Y030711D01*
X018269Y030634D01*
X018729Y030711D02*
X018729Y030251D01*
X018729Y030481D02*
X018806Y030558D01*
X018959Y030558D01*
X019036Y030481D01*
X019036Y030251D01*
X019190Y030251D02*
X019190Y030558D01*
X019266Y030558D01*
X019343Y030481D01*
X019420Y030558D01*
X019496Y030481D01*
X019496Y030251D01*
X019343Y030251D02*
X019343Y030481D01*
X009484Y031258D02*
X009484Y031565D01*
X009484Y031411D02*
X009023Y031411D01*
X009177Y031258D01*
X009253Y031718D02*
X009023Y031718D01*
X009023Y032025D01*
X009177Y031948D02*
X009253Y032025D01*
X009407Y032025D01*
X009484Y031948D01*
X009484Y031795D01*
X009407Y031718D01*
X009253Y031718D02*
X009177Y031871D01*
X009177Y031948D01*
X005937Y031401D02*
X005476Y031401D01*
X005706Y031171D01*
X005706Y031478D01*
X005937Y031018D02*
X005937Y030711D01*
X005937Y030864D02*
X005476Y030864D01*
X005630Y030711D01*
X005630Y025173D02*
X005553Y025173D01*
X005476Y025096D01*
X005476Y024943D01*
X005553Y024866D01*
X005630Y025173D02*
X005937Y024866D01*
X005937Y025173D01*
X009046Y024567D02*
X009507Y024567D01*
X009507Y024720D02*
X009507Y024413D01*
X009200Y024413D02*
X009046Y024567D01*
D15*
X005058Y028065D03*
X040895Y028065D03*
D16*
X033724Y028848D03*
X033094Y030039D03*
X030969Y028848D03*
X030339Y030039D03*
X030339Y027677D03*
X030969Y026486D03*
X033094Y027677D03*
X033724Y026486D03*
X016008Y026486D03*
X015378Y027677D03*
X016008Y028848D03*
X015378Y030039D03*
X012858Y028848D03*
X012228Y030039D03*
X012228Y027677D03*
X012858Y026486D03*
M02*
