G75*
G70*
%OFA0B0*%
%FSLAX24Y24*%
%IPPOS*%
%LPD*%
%AMOC8*
5,1,8,0,0,1.08239X$1,22.5*
%
%ADD10R,0.1299X0.0709*%
%ADD11R,0.0945X0.0315*%
%ADD12R,0.0358X0.0480*%
%ADD13R,0.0591X0.0945*%
%ADD14R,0.0866X0.0236*%
%ADD15R,0.0394X0.0433*%
%ADD16R,0.0669X0.0236*%
%ADD17R,0.1102X0.0394*%
%ADD18R,0.0236X0.0669*%
%ADD19R,0.0394X0.1102*%
%ADD20R,0.0433X0.0394*%
D10*
X024295Y025309D03*
X024295Y030821D03*
D11*
X022287Y030132D03*
X022287Y029542D03*
X022287Y028951D03*
X022287Y028361D03*
X022287Y027770D03*
X022287Y027180D03*
X022287Y026589D03*
X022287Y025998D03*
D12*
X016333Y026491D03*
X016333Y027672D03*
X015053Y027672D03*
X015053Y026491D03*
X013183Y026491D03*
X013183Y027672D03*
X011904Y027672D03*
X011904Y026491D03*
X011904Y028853D03*
X011904Y030034D03*
X013183Y030034D03*
X013183Y028853D03*
X015053Y028853D03*
X015053Y030034D03*
X016333Y030034D03*
X016333Y028853D03*
X030014Y028853D03*
X030014Y030034D03*
X031293Y030034D03*
X031293Y028853D03*
X031293Y027672D03*
X031293Y026491D03*
X030014Y026491D03*
X030014Y027672D03*
X032770Y027672D03*
X032770Y026491D03*
X034049Y026491D03*
X034049Y027672D03*
X034049Y028853D03*
X034049Y030034D03*
X032770Y030034D03*
X032770Y028853D03*
D13*
X028094Y029640D03*
X027110Y029640D03*
X027110Y027278D03*
X028094Y027278D03*
X019236Y027278D03*
X018252Y027278D03*
X018252Y029640D03*
X019236Y029640D03*
D14*
X020654Y016855D03*
X020654Y016355D03*
X020654Y015855D03*
X020654Y015355D03*
X020654Y014855D03*
X020654Y014355D03*
X020654Y013855D03*
X020654Y013355D03*
X020654Y012855D03*
X020654Y012355D03*
X020654Y011855D03*
X020654Y011355D03*
X020654Y010855D03*
X020654Y010355D03*
X020654Y009855D03*
X020654Y009355D03*
X017031Y009355D03*
X017031Y009855D03*
X017031Y010355D03*
X017031Y010855D03*
X017031Y011355D03*
X017031Y011855D03*
X017031Y012355D03*
X017031Y012855D03*
X017031Y013355D03*
X017031Y013855D03*
X017031Y014355D03*
X017031Y014855D03*
X017031Y015355D03*
X017031Y015855D03*
X017031Y016355D03*
X017031Y016855D03*
X029236Y016855D03*
X029236Y016355D03*
X029236Y015855D03*
X029236Y015355D03*
X029236Y014855D03*
X029236Y014355D03*
X029236Y013855D03*
X029236Y013355D03*
X029236Y012855D03*
X029236Y012355D03*
X029236Y011855D03*
X029236Y011355D03*
X029236Y010855D03*
X029236Y010355D03*
X029236Y009855D03*
X029236Y009355D03*
X032858Y009355D03*
X032858Y009855D03*
X032858Y010355D03*
X032858Y010855D03*
X032858Y011355D03*
X032858Y011855D03*
X032858Y012355D03*
X032858Y012855D03*
X032858Y013355D03*
X032858Y013855D03*
X032858Y014355D03*
X032858Y014855D03*
X032858Y015355D03*
X032858Y015855D03*
X032858Y016355D03*
X032858Y016855D03*
D15*
X034197Y010290D03*
X034197Y009620D03*
X021992Y009620D03*
X021992Y010290D03*
X009394Y017101D03*
X009394Y017770D03*
X004276Y026156D03*
X004276Y026825D03*
X009787Y027731D03*
X009787Y028400D03*
X036165Y028400D03*
X036165Y027731D03*
X041677Y029306D03*
X041677Y029975D03*
D16*
X023961Y016845D03*
X023961Y016451D03*
X023961Y016057D03*
X023961Y015664D03*
X023961Y015270D03*
X023961Y014876D03*
X023961Y014483D03*
X023961Y014089D03*
X023961Y013695D03*
X023961Y013302D03*
X023961Y012908D03*
X023961Y012514D03*
D17*
X025280Y012081D03*
X025280Y017278D03*
D18*
X010575Y005050D03*
X010181Y005050D03*
X009787Y005050D03*
X009394Y005050D03*
X009000Y005050D03*
D19*
X008567Y003731D03*
X011008Y003731D03*
D20*
X005398Y009168D03*
X004728Y009168D03*
M02*
