G75*
G70*
%OFA0B0*%
%FSLAX24Y24*%
%IPPOS*%
%LPD*%
%AMOC8*
5,1,8,0,0,1.08239X$1,22.5*
%
%ADD10C,0.0820*%
%ADD11OC8,0.0820*%
%ADD12C,0.0792*%
%ADD13C,0.0640*%
%ADD14C,0.0620*%
%ADD15R,0.0880X0.0880*%
%ADD16C,0.0880*%
D10*
X013500Y002554D03*
X014500Y002554D03*
X015500Y002554D03*
X016500Y002554D03*
X017500Y002554D03*
X018500Y002554D03*
X020500Y002554D03*
X021500Y002554D03*
X022500Y002554D03*
X023500Y002554D03*
X024500Y002554D03*
X025500Y002554D03*
X026500Y002554D03*
X027500Y002554D03*
X029500Y002554D03*
X030500Y002554D03*
X031500Y002554D03*
X032500Y002554D03*
X033500Y002554D03*
X034500Y002554D03*
X035500Y002554D03*
X036500Y002554D03*
X037500Y004554D03*
X038500Y004554D03*
X038500Y021554D03*
X037500Y021554D03*
X034500Y021554D03*
X033500Y021554D03*
X032500Y021554D03*
X031500Y021554D03*
X030500Y021554D03*
X029500Y021554D03*
X028500Y021554D03*
X027500Y021554D03*
X025500Y021554D03*
X024500Y021554D03*
X023500Y021554D03*
X022500Y021554D03*
X021500Y021554D03*
X020500Y021554D03*
X019500Y021554D03*
X018500Y021554D03*
X016900Y021554D03*
X015900Y021554D03*
X014900Y021554D03*
X013900Y021554D03*
X012900Y021554D03*
X011900Y021554D03*
X010900Y021554D03*
X009900Y021554D03*
D11*
X037500Y020554D03*
X038500Y020554D03*
X038500Y019554D03*
X037500Y019554D03*
X037500Y018554D03*
X038500Y018554D03*
X038500Y017554D03*
X037500Y017554D03*
X037500Y016554D03*
X038500Y016554D03*
X038500Y015554D03*
X037500Y015554D03*
X037500Y014554D03*
X038500Y014554D03*
X038500Y013554D03*
X037500Y013554D03*
X037500Y012554D03*
X038500Y012554D03*
X038500Y011554D03*
X037500Y011554D03*
X037500Y010554D03*
X038500Y010554D03*
X038500Y009554D03*
X037500Y009554D03*
X037500Y008554D03*
X038500Y008554D03*
X038500Y007554D03*
X037500Y007554D03*
X037500Y006554D03*
X038500Y006554D03*
X038500Y005554D03*
X037500Y005554D03*
D12*
X037140Y024565D02*
X037852Y024565D01*
X037852Y025565D02*
X037140Y025565D01*
X037140Y026565D02*
X037852Y026565D01*
X037852Y027565D02*
X037140Y027565D01*
X037140Y028565D02*
X037852Y028565D01*
X037852Y029565D02*
X037140Y029565D01*
X037140Y030565D02*
X037852Y030565D01*
X037852Y031565D02*
X037140Y031565D01*
X039140Y031065D02*
X039852Y031065D01*
X039852Y030065D02*
X039140Y030065D01*
X039140Y029065D02*
X039852Y029065D01*
X039852Y028065D02*
X039140Y028065D01*
X039140Y027065D02*
X039852Y027065D01*
X039852Y026065D02*
X039140Y026065D01*
X039140Y025065D02*
X039852Y025065D01*
X008813Y024565D02*
X008100Y024565D01*
X008100Y025565D02*
X008813Y025565D01*
X008813Y026565D02*
X008100Y026565D01*
X008100Y027565D02*
X008813Y027565D01*
X008813Y028565D02*
X008100Y028565D01*
X008100Y029565D02*
X008813Y029565D01*
X008813Y030565D02*
X008100Y030565D01*
X008100Y031565D02*
X008813Y031565D01*
X006813Y031065D02*
X006100Y031065D01*
X006100Y030065D02*
X006813Y030065D01*
X006813Y029065D02*
X006100Y029065D01*
X006100Y028065D02*
X006813Y028065D01*
X006813Y027065D02*
X006100Y027065D01*
X006100Y026065D02*
X006813Y026065D01*
X006813Y025065D02*
X006100Y025065D01*
D13*
X010370Y017605D02*
X010930Y017605D01*
X010930Y016605D02*
X010370Y016605D01*
X010370Y015605D02*
X010930Y015605D01*
X010930Y014605D02*
X010370Y014605D01*
X010370Y013605D02*
X010930Y013605D01*
X010930Y012605D02*
X010370Y012605D01*
X010370Y011605D02*
X010930Y011605D01*
X010930Y010605D02*
X010370Y010605D01*
X010370Y009605D02*
X010930Y009605D01*
X010930Y008605D02*
X010370Y008605D01*
X013370Y008605D02*
X013930Y008605D01*
X013930Y009605D02*
X013370Y009605D01*
X013370Y010605D02*
X013930Y010605D01*
X013930Y011605D02*
X013370Y011605D01*
X013370Y012605D02*
X013930Y012605D01*
X013930Y013605D02*
X013370Y013605D01*
X013370Y014605D02*
X013930Y014605D01*
X013930Y015605D02*
X013370Y015605D01*
X013370Y016605D02*
X013930Y016605D01*
X013930Y017605D02*
X013370Y017605D01*
D14*
X007744Y013817D03*
X004744Y013817D03*
X004744Y010817D03*
X007744Y010817D03*
D15*
X004669Y005624D03*
X004669Y020585D03*
D16*
X004669Y003656D03*
X004669Y018617D03*
M02*
