G75*
G70*
%OFA0B0*%
%FSLAX24Y24*%
%IPPOS*%
%LPD*%
%AMOC8*
5,1,8,0,0,1.08239X$1,22.5*
%
%ADD10C,0.0740*%
%ADD11OC8,0.0740*%
%ADD12C,0.0712*%
%ADD13C,0.0560*%
%ADD14C,0.0540*%
%ADD15R,0.0800X0.0800*%
%ADD16C,0.0800*%
%ADD17C,0.0100*%
%ADD18C,0.0400*%
%ADD19C,0.0120*%
D10*
X013500Y002554D03*
X014500Y002554D03*
X015500Y002554D03*
X016500Y002554D03*
X017500Y002554D03*
X018500Y002554D03*
X020500Y002554D03*
X021500Y002554D03*
X022500Y002554D03*
X023500Y002554D03*
X024500Y002554D03*
X025500Y002554D03*
X026500Y002554D03*
X027500Y002554D03*
X029500Y002554D03*
X030500Y002554D03*
X031500Y002554D03*
X032500Y002554D03*
X033500Y002554D03*
X034500Y002554D03*
X035500Y002554D03*
X036500Y002554D03*
X037500Y004554D03*
X038500Y004554D03*
X038500Y021554D03*
X037500Y021554D03*
X034500Y021554D03*
X033500Y021554D03*
X032500Y021554D03*
X031500Y021554D03*
X030500Y021554D03*
X029500Y021554D03*
X028500Y021554D03*
X027500Y021554D03*
X025500Y021554D03*
X024500Y021554D03*
X023500Y021554D03*
X022500Y021554D03*
X021500Y021554D03*
X020500Y021554D03*
X019500Y021554D03*
X018500Y021554D03*
X016900Y021554D03*
X015900Y021554D03*
X014900Y021554D03*
X013900Y021554D03*
X012900Y021554D03*
X011900Y021554D03*
X010900Y021554D03*
X009900Y021554D03*
D11*
X037500Y020554D03*
X038500Y020554D03*
X038500Y019554D03*
X037500Y019554D03*
X037500Y018554D03*
X038500Y018554D03*
X038500Y017554D03*
X037500Y017554D03*
X037500Y016554D03*
X038500Y016554D03*
X038500Y015554D03*
X037500Y015554D03*
X037500Y014554D03*
X038500Y014554D03*
X038500Y013554D03*
X037500Y013554D03*
X037500Y012554D03*
X038500Y012554D03*
X038500Y011554D03*
X037500Y011554D03*
X037500Y010554D03*
X038500Y010554D03*
X038500Y009554D03*
X037500Y009554D03*
X037500Y008554D03*
X038500Y008554D03*
X038500Y007554D03*
X037500Y007554D03*
X037500Y006554D03*
X038500Y006554D03*
X038500Y005554D03*
X037500Y005554D03*
D12*
X037140Y024565D02*
X037852Y024565D01*
X037852Y025565D02*
X037140Y025565D01*
X037140Y026565D02*
X037852Y026565D01*
X037852Y027565D02*
X037140Y027565D01*
X037140Y028565D02*
X037852Y028565D01*
X037852Y029565D02*
X037140Y029565D01*
X037140Y030565D02*
X037852Y030565D01*
X037852Y031565D02*
X037140Y031565D01*
X039140Y031065D02*
X039852Y031065D01*
X039852Y030065D02*
X039140Y030065D01*
X039140Y029065D02*
X039852Y029065D01*
X039852Y028065D02*
X039140Y028065D01*
X039140Y027065D02*
X039852Y027065D01*
X039852Y026065D02*
X039140Y026065D01*
X039140Y025065D02*
X039852Y025065D01*
X008813Y024565D02*
X008100Y024565D01*
X008100Y025565D02*
X008813Y025565D01*
X008813Y026565D02*
X008100Y026565D01*
X008100Y027565D02*
X008813Y027565D01*
X008813Y028565D02*
X008100Y028565D01*
X008100Y029565D02*
X008813Y029565D01*
X008813Y030565D02*
X008100Y030565D01*
X008100Y031565D02*
X008813Y031565D01*
X006813Y031065D02*
X006100Y031065D01*
X006100Y030065D02*
X006813Y030065D01*
X006813Y029065D02*
X006100Y029065D01*
X006100Y028065D02*
X006813Y028065D01*
X006813Y027065D02*
X006100Y027065D01*
X006100Y026065D02*
X006813Y026065D01*
X006813Y025065D02*
X006100Y025065D01*
D13*
X010370Y017605D02*
X010930Y017605D01*
X010930Y016605D02*
X010370Y016605D01*
X010370Y015605D02*
X010930Y015605D01*
X010930Y014605D02*
X010370Y014605D01*
X010370Y013605D02*
X010930Y013605D01*
X010930Y012605D02*
X010370Y012605D01*
X010370Y011605D02*
X010930Y011605D01*
X010930Y010605D02*
X010370Y010605D01*
X010370Y009605D02*
X010930Y009605D01*
X010930Y008605D02*
X010370Y008605D01*
X013370Y008605D02*
X013930Y008605D01*
X013930Y009605D02*
X013370Y009605D01*
X013370Y010605D02*
X013930Y010605D01*
X013930Y011605D02*
X013370Y011605D01*
X013370Y012605D02*
X013930Y012605D01*
X013930Y013605D02*
X013370Y013605D01*
X013370Y014605D02*
X013930Y014605D01*
X013930Y015605D02*
X013370Y015605D01*
X013370Y016605D02*
X013930Y016605D01*
X013930Y017605D02*
X013370Y017605D01*
D14*
X007744Y013817D03*
X004744Y013817D03*
X004744Y010817D03*
X007744Y010817D03*
D15*
X004669Y005624D03*
X004669Y020585D03*
D16*
X004669Y018617D03*
X004669Y003656D03*
D17*
X002851Y001050D02*
X002851Y032246D01*
X035664Y032246D01*
X035567Y032150D01*
X035511Y032014D01*
X035511Y031866D01*
X035555Y031760D01*
X029316Y031760D01*
X029219Y031857D01*
X029090Y031910D01*
X028951Y031910D01*
X028823Y031857D01*
X028724Y031758D01*
X028671Y031630D01*
X028671Y031490D01*
X028724Y031362D01*
X028823Y031263D01*
X028951Y031210D01*
X029090Y031210D01*
X029219Y031263D01*
X029316Y031360D01*
X036677Y031360D01*
X036711Y031279D01*
X036853Y031136D01*
X036998Y031076D01*
X036842Y031011D01*
X036694Y030863D01*
X036663Y030790D01*
X031186Y030790D01*
X031051Y030655D01*
X030786Y030390D01*
X030667Y030390D01*
X030531Y030334D01*
X030427Y030230D01*
X030419Y030210D01*
X023926Y030210D01*
X023791Y030075D01*
X021851Y028135D01*
X021851Y028254D01*
X021794Y028390D01*
X021690Y028494D01*
X021554Y028550D01*
X021407Y028550D01*
X021271Y028494D01*
X021188Y028410D01*
X015874Y028410D01*
X015790Y028494D01*
X015654Y028550D01*
X015507Y028550D01*
X015371Y028494D01*
X015267Y028390D01*
X015222Y028281D01*
X014224Y029280D01*
X009243Y029280D01*
X009319Y029465D01*
X019500Y029465D01*
X019491Y029486D02*
X019547Y029350D01*
X019651Y029246D01*
X019787Y029190D01*
X019934Y029190D01*
X020070Y029246D01*
X020174Y029350D01*
X020231Y029486D01*
X020231Y029634D01*
X020174Y029770D01*
X020070Y029874D01*
X019934Y029930D01*
X019816Y029930D01*
X019091Y030655D01*
X018956Y030790D01*
X009289Y030790D01*
X009259Y030863D01*
X009111Y031011D01*
X008955Y031076D01*
X009100Y031136D01*
X009242Y031279D01*
X009276Y031360D01*
X017026Y031360D01*
X017123Y031263D01*
X017251Y031210D01*
X017390Y031210D01*
X017519Y031263D01*
X017618Y031362D01*
X017671Y031490D01*
X017671Y031630D01*
X017618Y031758D01*
X017519Y031857D01*
X017390Y031910D01*
X017251Y031910D01*
X017123Y031857D01*
X017026Y031760D01*
X009280Y031760D01*
X009242Y031852D01*
X009100Y031995D01*
X008914Y032072D01*
X008000Y032072D01*
X007814Y031995D01*
X007671Y031852D01*
X007594Y031666D01*
X007594Y031465D01*
X007671Y031279D01*
X007814Y031136D01*
X007959Y031076D01*
X007802Y031011D01*
X007654Y030863D01*
X007574Y030670D01*
X007574Y030461D01*
X007654Y030267D01*
X007802Y030119D01*
X007959Y030055D01*
X007814Y029995D01*
X007671Y029852D01*
X007594Y029666D01*
X007594Y029465D01*
X007129Y029465D01*
X007100Y029495D02*
X006929Y029565D01*
X007100Y029636D01*
X007242Y029779D01*
X007319Y029965D01*
X007319Y030166D01*
X007242Y030352D01*
X007100Y030495D01*
X006955Y030555D01*
X007111Y030619D01*
X007259Y030767D01*
X007339Y030961D01*
X007339Y031170D01*
X007259Y031363D01*
X007111Y031511D01*
X006918Y031592D01*
X005996Y031592D01*
X005802Y031511D01*
X005654Y031363D01*
X005574Y031170D01*
X005574Y030961D01*
X005654Y030767D01*
X005802Y030619D01*
X005959Y030555D01*
X005814Y030495D01*
X005671Y030352D01*
X005594Y030166D01*
X005594Y029965D01*
X005671Y029779D01*
X005814Y029636D01*
X005985Y029565D01*
X005814Y029495D01*
X005671Y029352D01*
X005594Y029166D01*
X005594Y028965D01*
X005671Y028779D01*
X005814Y028636D01*
X005995Y028561D01*
X005982Y028559D01*
X005906Y028534D01*
X005835Y028498D01*
X005771Y028451D01*
X005714Y028395D01*
X005668Y028331D01*
X005631Y028260D01*
X005607Y028184D01*
X005596Y028115D01*
X006407Y028115D01*
X006407Y028015D01*
X006407Y027572D01*
X006507Y027572D01*
X006507Y028015D01*
X006407Y028015D01*
X005596Y028015D01*
X005607Y027947D01*
X005631Y027871D01*
X005668Y027800D01*
X005714Y027736D01*
X005771Y027679D01*
X005835Y027632D01*
X005906Y027596D01*
X005982Y027572D01*
X005995Y027570D01*
X005814Y027495D01*
X005671Y027352D01*
X005594Y027166D01*
X005594Y026965D01*
X005671Y026779D01*
X005724Y026726D01*
X005478Y026480D01*
X005361Y026363D01*
X005361Y023337D01*
X005478Y023220D01*
X012835Y023220D01*
X012791Y023114D01*
X012791Y022995D01*
X012146Y022350D01*
X006106Y022350D01*
X004911Y021155D01*
X004199Y021155D01*
X004099Y021055D01*
X004099Y020115D01*
X004199Y020015D01*
X005140Y020015D01*
X005239Y020115D01*
X005239Y020833D01*
X006296Y021890D01*
X008701Y021890D01*
X008651Y021770D01*
X008651Y021630D01*
X008704Y021502D01*
X008756Y021450D01*
X008704Y021398D01*
X008651Y021270D01*
X008651Y021130D01*
X008704Y021002D01*
X008803Y020903D01*
X008931Y020850D01*
X009068Y020850D01*
X009181Y020737D01*
X009298Y020620D01*
X015244Y020620D01*
X015698Y021074D01*
X015797Y021034D01*
X016003Y021034D01*
X016195Y021113D01*
X016341Y021259D01*
X016400Y021402D01*
X016459Y021259D01*
X016605Y021113D01*
X016797Y021034D01*
X017003Y021034D01*
X017195Y021113D01*
X017341Y021259D01*
X017420Y021450D01*
X017420Y021657D01*
X017341Y021848D01*
X017309Y021880D01*
X017878Y021880D01*
X018015Y021743D01*
X017980Y021657D01*
X017980Y021450D01*
X018059Y021259D01*
X018205Y021113D01*
X018397Y021034D01*
X018603Y021034D01*
X018795Y021113D01*
X018941Y021259D01*
X019000Y021402D01*
X019059Y021259D01*
X019205Y021113D01*
X019397Y021034D01*
X019603Y021034D01*
X019795Y021113D01*
X019941Y021259D01*
X020000Y021402D01*
X020059Y021259D01*
X020205Y021113D01*
X020397Y021034D01*
X020603Y021034D01*
X020795Y021113D01*
X020941Y021259D01*
X021000Y021402D01*
X021059Y021259D01*
X021205Y021113D01*
X021397Y021034D01*
X021603Y021034D01*
X021795Y021113D01*
X021941Y021259D01*
X022000Y021402D01*
X022059Y021259D01*
X022205Y021113D01*
X022397Y021034D01*
X022603Y021034D01*
X022795Y021113D01*
X022941Y021259D01*
X023000Y021402D01*
X023059Y021259D01*
X023098Y021220D01*
X022958Y021220D01*
X022841Y021103D01*
X019608Y017870D01*
X019471Y017870D01*
X019343Y017817D01*
X019244Y017718D01*
X019191Y017590D01*
X019191Y017450D01*
X019228Y017360D01*
X014293Y017360D01*
X014294Y017361D01*
X014360Y017519D01*
X014360Y017690D01*
X014294Y017848D01*
X014173Y017969D01*
X014015Y018035D01*
X013284Y018035D01*
X013126Y017969D01*
X013005Y017848D01*
X012940Y017690D01*
X012940Y017519D01*
X013005Y017361D01*
X013006Y017360D01*
X011293Y017360D01*
X011294Y017361D01*
X011360Y017519D01*
X011360Y017690D01*
X011294Y017848D01*
X011173Y017969D01*
X011015Y018035D01*
X010284Y018035D01*
X010126Y017969D01*
X010005Y017848D01*
X009940Y017690D01*
X009940Y017519D01*
X010005Y017361D01*
X010126Y017240D01*
X010284Y017175D01*
X010803Y017175D01*
X010943Y017035D01*
X010284Y017035D01*
X010126Y016969D01*
X010005Y016848D01*
X009940Y016690D01*
X009940Y016519D01*
X010005Y016361D01*
X010126Y016240D01*
X010284Y016175D01*
X011015Y016175D01*
X011173Y016240D01*
X011294Y016361D01*
X011360Y016519D01*
X011360Y016690D01*
X011294Y016848D01*
X011182Y016960D01*
X013117Y016960D01*
X013005Y016848D01*
X012940Y016690D01*
X012940Y016519D01*
X013005Y016361D01*
X013126Y016240D01*
X013284Y016175D01*
X014015Y016175D01*
X014173Y016240D01*
X014294Y016361D01*
X014360Y016519D01*
X014360Y016690D01*
X014294Y016848D01*
X014182Y016960D01*
X020398Y016960D01*
X020321Y016883D01*
X016388Y012950D01*
X016251Y012950D01*
X016123Y012897D01*
X016024Y012798D01*
X015971Y012670D01*
X015971Y012530D01*
X016024Y012402D01*
X016123Y012303D01*
X016251Y012250D01*
X016390Y012250D01*
X016519Y012303D01*
X016618Y012402D01*
X016671Y012530D01*
X016671Y012667D01*
X020604Y016600D01*
X021278Y016600D01*
X021201Y016523D01*
X021201Y014995D01*
X021104Y014898D01*
X021051Y014770D01*
X021051Y014630D01*
X021104Y014502D01*
X021203Y014403D01*
X021331Y014350D01*
X021470Y014350D01*
X021599Y014403D01*
X021698Y014502D01*
X021751Y014630D01*
X021751Y014770D01*
X021698Y014898D01*
X021601Y014995D01*
X021601Y016240D01*
X022107Y016240D01*
X022003Y016197D01*
X021904Y016098D01*
X021851Y015970D01*
X021851Y015830D01*
X021904Y015702D01*
X022001Y015605D01*
X022001Y014317D01*
X022701Y013617D01*
X022818Y013500D01*
X023006Y013500D01*
X023103Y013403D01*
X023231Y013350D01*
X023370Y013350D01*
X023499Y013403D01*
X023598Y013502D01*
X023651Y013630D01*
X023651Y013770D01*
X023598Y013898D01*
X023499Y013997D01*
X023370Y014050D01*
X023231Y014050D01*
X023103Y013997D01*
X023006Y013900D01*
X022984Y013900D01*
X022401Y014483D01*
X022401Y015605D01*
X022498Y015702D01*
X022551Y015830D01*
X022551Y015970D01*
X022498Y016098D01*
X022399Y016197D01*
X022295Y016240D01*
X023584Y016240D01*
X025251Y017907D01*
X025251Y013733D01*
X025018Y013500D01*
X024881Y013500D01*
X024753Y013447D01*
X024654Y013348D01*
X024601Y013220D01*
X024601Y013080D01*
X024654Y012952D01*
X024753Y012853D01*
X024881Y012800D01*
X025020Y012800D01*
X025149Y012853D01*
X025248Y012952D01*
X025251Y012960D01*
X025251Y012945D01*
X025154Y012848D01*
X025101Y012720D01*
X022951Y012720D01*
X022951Y012770D02*
X022898Y012898D01*
X022799Y012997D01*
X022670Y013050D01*
X022531Y013050D01*
X022403Y012997D01*
X022306Y012900D01*
X018224Y012900D01*
X018091Y013033D01*
X018091Y013170D01*
X018038Y013298D01*
X017939Y013397D01*
X017810Y013450D01*
X017671Y013450D01*
X017543Y013397D01*
X017444Y013298D01*
X017391Y013170D01*
X017391Y013030D01*
X017444Y012902D01*
X017543Y012803D01*
X017671Y012750D01*
X017808Y012750D01*
X017941Y012617D01*
X018058Y012500D01*
X022306Y012500D01*
X022403Y012403D01*
X022531Y012350D01*
X022670Y012350D01*
X022799Y012403D01*
X022898Y012502D01*
X022951Y012630D01*
X022951Y012770D01*
X022931Y012819D02*
X024836Y012819D01*
X024689Y012917D02*
X022879Y012917D01*
X022754Y013016D02*
X024628Y013016D01*
X024601Y013114D02*
X018091Y013114D01*
X018108Y013016D02*
X022448Y013016D01*
X022323Y012917D02*
X018207Y012917D01*
X018141Y012700D02*
X022601Y012700D01*
X022820Y012425D02*
X025181Y012425D01*
X025154Y012452D02*
X025253Y012353D01*
X025381Y012300D01*
X025520Y012300D01*
X025649Y012353D01*
X025748Y012452D01*
X025801Y012580D01*
X025801Y012720D01*
X028246Y012720D01*
X028204Y012762D02*
X028303Y012663D01*
X028431Y012610D01*
X028570Y012610D01*
X028699Y012663D01*
X028798Y012762D01*
X028851Y012890D01*
X028851Y013027D01*
X029164Y013340D01*
X036980Y013340D01*
X036980Y013338D01*
X037265Y013054D01*
X036980Y012769D01*
X036980Y012338D01*
X036988Y012330D01*
X036358Y011700D01*
X034333Y011700D01*
X034371Y011790D01*
X034371Y011930D01*
X034318Y012058D01*
X034219Y012157D01*
X034090Y012210D01*
X033951Y012210D01*
X033823Y012157D01*
X033724Y012058D01*
X033692Y011980D01*
X031024Y011980D01*
X030831Y012173D01*
X030831Y012310D01*
X030778Y012438D01*
X030679Y012537D01*
X030550Y012590D01*
X030411Y012590D01*
X030283Y012537D01*
X030184Y012438D01*
X030131Y012310D01*
X030131Y012170D01*
X030184Y012042D01*
X030283Y011943D01*
X030411Y011890D01*
X030548Y011890D01*
X030738Y011700D01*
X030504Y011700D01*
X030224Y011980D01*
X023011Y011980D01*
X023011Y012010D01*
X022958Y012138D01*
X022859Y012237D01*
X022730Y012290D01*
X022591Y012290D01*
X022463Y012237D01*
X022364Y012138D01*
X022362Y012134D01*
X022359Y012137D01*
X022230Y012190D01*
X022091Y012190D01*
X021963Y012137D01*
X021864Y012038D01*
X021811Y011910D01*
X021811Y011770D01*
X021864Y011642D01*
X021963Y011543D01*
X022091Y011490D01*
X022228Y011490D01*
X022381Y011337D01*
X022498Y011220D01*
X026666Y011220D01*
X026763Y011123D01*
X026891Y011070D01*
X027030Y011070D01*
X027159Y011123D01*
X027258Y011222D01*
X027311Y011350D01*
X027311Y011490D01*
X027273Y011580D01*
X030058Y011580D01*
X030221Y011417D01*
X030338Y011300D01*
X032278Y011300D01*
X032201Y011223D01*
X032188Y011210D01*
X032051Y011210D01*
X031923Y011157D01*
X031824Y011058D01*
X031783Y010960D01*
X020664Y010960D01*
X019931Y011693D01*
X019931Y011830D01*
X019878Y011958D01*
X019779Y012057D01*
X019650Y012110D01*
X019511Y012110D01*
X019383Y012057D01*
X019284Y011958D01*
X019231Y011830D01*
X019231Y011690D01*
X019284Y011562D01*
X019383Y011463D01*
X019511Y011410D01*
X019648Y011410D01*
X020381Y010677D01*
X020498Y010560D01*
X025088Y010560D01*
X025051Y010470D01*
X025051Y010330D01*
X025104Y010202D01*
X025203Y010103D01*
X025331Y010050D01*
X025470Y010050D01*
X025591Y010100D01*
X037218Y010100D01*
X037265Y010054D01*
X037251Y010040D01*
X019453Y010040D01*
X019491Y010130D01*
X019491Y010270D01*
X019438Y010398D01*
X019339Y010497D01*
X019210Y010550D01*
X019074Y010550D01*
X017501Y012123D01*
X017384Y012240D01*
X015033Y012240D01*
X015071Y012330D01*
X015071Y012470D01*
X015018Y012598D01*
X014919Y012697D01*
X014790Y012750D01*
X014651Y012750D01*
X014523Y012697D01*
X014426Y012600D01*
X014360Y012600D01*
X014360Y012690D01*
X014294Y012848D01*
X014173Y012969D01*
X014015Y013035D01*
X013284Y013035D01*
X013126Y012969D01*
X013005Y012848D01*
X012940Y012690D01*
X012940Y012519D01*
X013005Y012361D01*
X013126Y012240D01*
X013126Y012240D01*
X011173Y012240D01*
X011294Y012361D01*
X011360Y012519D01*
X011360Y012690D01*
X011294Y012848D01*
X011173Y012969D01*
X011015Y013035D01*
X010358Y013035D01*
X010498Y013175D01*
X011015Y013175D01*
X011173Y013240D01*
X011294Y013361D01*
X011360Y013519D01*
X011360Y013690D01*
X011294Y013848D01*
X011173Y013969D01*
X011015Y014035D01*
X010284Y014035D01*
X010126Y013969D01*
X010005Y013848D01*
X009940Y013690D01*
X009940Y013519D01*
X010005Y013361D01*
X010062Y013304D01*
X009198Y012440D01*
X005478Y012440D01*
X004018Y010980D01*
X003901Y010863D01*
X003901Y004677D01*
X004018Y004560D01*
X010458Y004560D01*
X013081Y001937D01*
X013198Y001820D01*
X018824Y001820D01*
X019429Y002426D01*
X019464Y002342D01*
X019563Y002243D01*
X019691Y002190D01*
X019828Y002190D01*
X020081Y001937D01*
X020198Y001820D01*
X027984Y001820D01*
X028537Y002374D01*
X028511Y002310D01*
X028511Y002170D01*
X028564Y002042D01*
X028663Y001943D01*
X028791Y001890D01*
X028928Y001890D01*
X029241Y001577D01*
X029358Y001460D01*
X038944Y001460D01*
X039394Y001910D01*
X039530Y001910D01*
X039659Y001963D01*
X039758Y002062D01*
X039811Y002190D01*
X039811Y002330D01*
X039773Y002420D01*
X039904Y002420D01*
X040904Y003420D01*
X041021Y003537D01*
X041021Y011643D01*
X040904Y011760D01*
X039020Y011760D01*
X039020Y011769D01*
X038735Y012054D01*
X039020Y012338D01*
X039020Y012360D01*
X041104Y012360D01*
X041221Y012477D01*
X041221Y022323D01*
X041104Y022440D01*
X040495Y023049D01*
X040579Y023083D01*
X040678Y023182D01*
X040731Y023310D01*
X040731Y023450D01*
X040678Y023578D01*
X040581Y023675D01*
X040581Y028343D01*
X040464Y028460D01*
X040213Y028710D01*
X040281Y028779D01*
X040359Y028965D01*
X040359Y029166D01*
X040281Y029352D01*
X040139Y029495D01*
X039994Y029555D01*
X040150Y029619D01*
X040298Y029767D01*
X040379Y029961D01*
X040379Y030170D01*
X040298Y030363D01*
X040150Y030511D01*
X040020Y030565D01*
X040150Y030619D01*
X040298Y030767D01*
X040379Y030961D01*
X040379Y031170D01*
X040298Y031363D01*
X040150Y031511D01*
X039957Y031592D01*
X039035Y031592D01*
X038842Y031511D01*
X038694Y031363D01*
X038631Y031211D01*
X038631Y032215D01*
X038600Y032246D01*
X042708Y032246D01*
X042708Y001050D01*
X002851Y001050D01*
X002851Y001097D02*
X042708Y001097D01*
X042708Y001196D02*
X002851Y001196D01*
X002851Y001294D02*
X042708Y001294D01*
X042708Y001393D02*
X002851Y001393D01*
X002851Y001491D02*
X029327Y001491D01*
X029228Y001590D02*
X002851Y001590D01*
X002851Y001688D02*
X029130Y001688D01*
X029031Y001787D02*
X002851Y001787D01*
X002851Y001885D02*
X013133Y001885D01*
X013034Y001984D02*
X002851Y001984D01*
X002851Y002082D02*
X012936Y002082D01*
X012837Y002181D02*
X002851Y002181D01*
X002851Y002279D02*
X012739Y002279D01*
X012640Y002378D02*
X002851Y002378D01*
X002851Y002476D02*
X012542Y002476D01*
X012443Y002575D02*
X002851Y002575D01*
X002851Y002673D02*
X012345Y002673D01*
X012246Y002772D02*
X002851Y002772D01*
X002851Y002870D02*
X012148Y002870D01*
X012049Y002969D02*
X002851Y002969D01*
X002851Y003067D02*
X011951Y003067D01*
X011852Y003166D02*
X004918Y003166D01*
X004880Y003146D02*
X004958Y003186D01*
X005028Y003236D01*
X005089Y003298D01*
X005140Y003368D01*
X005179Y003445D01*
X005206Y003527D01*
X005218Y003606D01*
X004719Y003606D01*
X004719Y003107D01*
X004798Y003119D01*
X004880Y003146D01*
X004719Y003166D02*
X004619Y003166D01*
X004619Y003107D02*
X004619Y003606D01*
X004120Y003606D01*
X004133Y003527D01*
X004160Y003445D01*
X004199Y003368D01*
X004250Y003298D01*
X004311Y003236D01*
X004381Y003186D01*
X004458Y003146D01*
X004540Y003119D01*
X004619Y003107D01*
X004619Y003264D02*
X004719Y003264D01*
X004719Y003363D02*
X004619Y003363D01*
X004619Y003461D02*
X004719Y003461D01*
X004719Y003560D02*
X004619Y003560D01*
X004619Y003606D02*
X004719Y003606D01*
X004719Y003706D01*
X004619Y003706D01*
X004619Y003606D01*
X004619Y003658D02*
X002851Y003658D01*
X002851Y003560D02*
X004128Y003560D01*
X004154Y003461D02*
X002851Y003461D01*
X002851Y003363D02*
X004203Y003363D01*
X004283Y003264D02*
X002851Y003264D01*
X002851Y003166D02*
X004420Y003166D01*
X005055Y003264D02*
X011754Y003264D01*
X011655Y003363D02*
X005136Y003363D01*
X005184Y003461D02*
X011557Y003461D01*
X011458Y003560D02*
X005211Y003560D01*
X005218Y003706D02*
X004719Y003706D01*
X004719Y004205D01*
X004798Y004192D01*
X004880Y004166D01*
X004958Y004126D01*
X005028Y004075D01*
X005089Y004014D01*
X005140Y003944D01*
X005179Y003867D01*
X005206Y003785D01*
X005218Y003706D01*
X005210Y003757D02*
X011261Y003757D01*
X011163Y003855D02*
X005183Y003855D01*
X005133Y003954D02*
X011064Y003954D01*
X010966Y004052D02*
X005051Y004052D01*
X004910Y004151D02*
X010867Y004151D01*
X010769Y004249D02*
X002851Y004249D01*
X002851Y004151D02*
X004429Y004151D01*
X004458Y004166D02*
X004381Y004126D01*
X004311Y004075D01*
X004250Y004014D01*
X004199Y003944D01*
X004160Y003867D01*
X004133Y003785D01*
X004120Y003706D01*
X004619Y003706D01*
X004619Y004205D01*
X004540Y004192D01*
X004458Y004166D01*
X004619Y004151D02*
X004719Y004151D01*
X004719Y004052D02*
X004619Y004052D01*
X004619Y003954D02*
X004719Y003954D01*
X004719Y003855D02*
X004619Y003855D01*
X004619Y003757D02*
X004719Y003757D01*
X004719Y003658D02*
X011360Y003658D01*
X011630Y003954D02*
X016804Y003954D01*
X016706Y004052D02*
X011532Y004052D01*
X011433Y004151D02*
X016607Y004151D01*
X016509Y004249D02*
X011335Y004249D01*
X011236Y004348D02*
X016410Y004348D01*
X016312Y004446D02*
X011138Y004446D01*
X011039Y004545D02*
X016213Y004545D01*
X016115Y004643D02*
X010941Y004643D01*
X010842Y004742D02*
X016016Y004742D01*
X015918Y004840D02*
X010744Y004840D01*
X010645Y004939D02*
X015819Y004939D01*
X015721Y005037D02*
X004301Y005037D01*
X004301Y005074D02*
X005131Y005074D01*
X005157Y005100D01*
X015658Y005100D01*
X017746Y003012D01*
X017700Y003035D01*
X017622Y003061D01*
X017550Y003072D01*
X017550Y002604D01*
X017450Y002604D01*
X017450Y003072D01*
X017378Y003061D01*
X017300Y003035D01*
X017227Y002998D01*
X017161Y002950D01*
X017103Y002892D01*
X017055Y002826D01*
X017018Y002753D01*
X017000Y002697D01*
X016982Y002753D01*
X016945Y002826D01*
X016897Y002892D01*
X016839Y002950D01*
X016773Y002998D01*
X016700Y003035D01*
X016622Y003061D01*
X016550Y003072D01*
X016550Y002604D01*
X016450Y002604D01*
X016450Y003072D01*
X016378Y003061D01*
X016300Y003035D01*
X016227Y002998D01*
X016161Y002950D01*
X016103Y002892D01*
X016055Y002826D01*
X016018Y002753D01*
X016001Y002702D01*
X015941Y002848D01*
X015795Y002994D01*
X015603Y003074D01*
X015397Y003074D01*
X015205Y002994D01*
X015059Y002848D01*
X015000Y002705D01*
X014941Y002848D01*
X014795Y002994D01*
X014603Y003074D01*
X014397Y003074D01*
X014205Y002994D01*
X014059Y002848D01*
X014000Y002705D01*
X013941Y002848D01*
X013795Y002994D01*
X013603Y003074D01*
X013397Y003074D01*
X013205Y002994D01*
X013059Y002848D01*
X012980Y002657D01*
X012980Y002604D01*
X010624Y004960D01*
X004301Y004960D01*
X004301Y005074D01*
X004101Y004760D02*
X010541Y004760D01*
X013281Y002020D01*
X018741Y002020D01*
X019801Y003080D01*
X030961Y003080D01*
X031481Y002560D01*
X031500Y002554D01*
X032761Y003280D02*
X033481Y002560D01*
X033500Y002554D01*
X032761Y003280D02*
X021161Y003280D01*
X019401Y005040D01*
X020841Y005860D02*
X014281Y005860D01*
X012361Y007780D01*
X012371Y008130D02*
X012291Y008130D01*
X012201Y008093D01*
X012201Y008465D01*
X012298Y008562D01*
X012351Y008690D01*
X012351Y008830D01*
X012298Y008958D01*
X012199Y009057D01*
X012070Y009110D01*
X011931Y009110D01*
X011803Y009057D01*
X011704Y008958D01*
X011667Y008870D01*
X011235Y009302D01*
X011294Y009361D01*
X011360Y009519D01*
X011360Y009690D01*
X011294Y009848D01*
X011173Y009969D01*
X011015Y010035D01*
X010358Y010035D01*
X010498Y010175D01*
X011015Y010175D01*
X011173Y010240D01*
X011294Y010361D01*
X011360Y010519D01*
X011360Y010690D01*
X011294Y010848D01*
X011173Y010969D01*
X011015Y011035D01*
X010358Y011035D01*
X010498Y011175D01*
X011015Y011175D01*
X011173Y011240D01*
X011294Y011361D01*
X011360Y011519D01*
X011360Y011690D01*
X011298Y011840D01*
X013002Y011840D01*
X012940Y011690D01*
X012940Y011519D01*
X013005Y011361D01*
X013062Y011304D01*
X012838Y011080D01*
X012721Y010963D01*
X012721Y008957D01*
X012838Y008840D01*
X013009Y008840D01*
X013002Y008830D01*
X012971Y008770D01*
X012950Y008705D01*
X012940Y008639D01*
X012940Y008635D01*
X013620Y008635D01*
X013620Y008575D01*
X013680Y008575D01*
X013680Y008635D01*
X014360Y008635D01*
X014360Y008639D01*
X014349Y008705D01*
X014328Y008770D01*
X014297Y008830D01*
X014290Y008840D01*
X014838Y008840D01*
X015446Y008231D01*
X015363Y008197D01*
X015264Y008098D01*
X015211Y007970D01*
X015211Y007830D01*
X015264Y007702D01*
X015363Y007603D01*
X015491Y007550D01*
X015628Y007550D01*
X016138Y007040D01*
X014604Y007040D01*
X013951Y007693D01*
X013951Y007830D01*
X013898Y007958D01*
X013799Y008057D01*
X013670Y008110D01*
X013531Y008110D01*
X013403Y008057D01*
X013304Y007958D01*
X013269Y007874D01*
X013071Y008073D01*
X013071Y008210D01*
X013018Y008338D01*
X012919Y008437D01*
X012790Y008490D01*
X012651Y008490D01*
X012523Y008437D01*
X012424Y008338D01*
X012371Y008210D01*
X012371Y008130D01*
X012371Y008189D02*
X012201Y008189D01*
X012201Y008288D02*
X012403Y008288D01*
X012472Y008386D02*
X012201Y008386D01*
X012220Y008485D02*
X012638Y008485D01*
X012804Y008485D02*
X012957Y008485D01*
X012950Y008504D02*
X012971Y008440D01*
X013002Y008379D01*
X013042Y008325D01*
X013089Y008277D01*
X013144Y008237D01*
X013205Y008206D01*
X013269Y008185D01*
X013336Y008175D01*
X013620Y008175D01*
X013620Y008575D01*
X012940Y008575D01*
X012940Y008571D01*
X012950Y008504D01*
X012970Y008386D02*
X012998Y008386D01*
X013039Y008288D02*
X013079Y008288D01*
X013071Y008189D02*
X013258Y008189D01*
X013071Y008091D02*
X013484Y008091D01*
X013620Y008189D02*
X013680Y008189D01*
X013680Y008175D02*
X013963Y008175D01*
X014030Y008185D01*
X014095Y008206D01*
X014155Y008237D01*
X014210Y008277D01*
X014258Y008325D01*
X014297Y008379D01*
X014328Y008440D01*
X014349Y008504D01*
X014360Y008571D01*
X014360Y008575D01*
X013680Y008575D01*
X013680Y008175D01*
X013717Y008091D02*
X015261Y008091D01*
X015220Y007992D02*
X013864Y007992D01*
X013924Y007894D02*
X015211Y007894D01*
X015225Y007795D02*
X013951Y007795D01*
X013951Y007697D02*
X015269Y007697D01*
X015375Y007598D02*
X014046Y007598D01*
X014144Y007500D02*
X015678Y007500D01*
X015777Y007401D02*
X014243Y007401D01*
X014341Y007303D02*
X015875Y007303D01*
X015974Y007204D02*
X014440Y007204D01*
X014538Y007106D02*
X016072Y007106D01*
X016421Y007040D02*
X022241Y007040D01*
X024481Y004800D01*
X025481Y005000D02*
X023241Y007240D01*
X016721Y007240D01*
X014921Y009040D01*
X012921Y009040D01*
X012921Y010880D01*
X013641Y011600D01*
X013650Y011605D01*
X013025Y011341D02*
X011274Y011341D01*
X011327Y011440D02*
X012973Y011440D01*
X012940Y011538D02*
X011360Y011538D01*
X011360Y011637D02*
X012940Y011637D01*
X012958Y011735D02*
X011341Y011735D01*
X011300Y011834D02*
X012999Y011834D01*
X013000Y011243D02*
X011176Y011243D01*
X011195Y010947D02*
X012721Y010947D01*
X012721Y010849D02*
X011294Y010849D01*
X011335Y010750D02*
X012721Y010750D01*
X012721Y010652D02*
X011360Y010652D01*
X011360Y010553D02*
X012721Y010553D01*
X012721Y010455D02*
X011333Y010455D01*
X011289Y010356D02*
X012721Y010356D01*
X012721Y010258D02*
X011191Y010258D01*
X011180Y009962D02*
X012721Y009962D01*
X012721Y009864D02*
X011279Y009864D01*
X011329Y009765D02*
X012721Y009765D01*
X012721Y009667D02*
X011360Y009667D01*
X011360Y009568D02*
X012721Y009568D01*
X012721Y009470D02*
X011339Y009470D01*
X011298Y009371D02*
X012721Y009371D01*
X012721Y009273D02*
X011265Y009273D01*
X011363Y009174D02*
X012721Y009174D01*
X012721Y009076D02*
X012154Y009076D01*
X012279Y008977D02*
X012721Y008977D01*
X012799Y008879D02*
X012331Y008879D01*
X012351Y008780D02*
X012976Y008780D01*
X012946Y008682D02*
X012347Y008682D01*
X012306Y008583D02*
X013620Y008583D01*
X013680Y008583D02*
X015095Y008583D01*
X015193Y008485D02*
X014343Y008485D01*
X014301Y008386D02*
X015292Y008386D01*
X015390Y008288D02*
X014221Y008288D01*
X014042Y008189D02*
X015355Y008189D01*
X015561Y007900D02*
X016421Y007040D01*
X016821Y007440D02*
X024241Y007440D01*
X026481Y005200D01*
X027841Y005980D02*
X025821Y008000D01*
X017761Y008000D01*
X017401Y008360D01*
X017461Y007800D02*
X025521Y007800D01*
X029321Y004000D01*
X028861Y005460D02*
X026561Y007760D01*
X026181Y009120D02*
X032361Y009120D01*
X032521Y009280D01*
X033641Y009280D01*
X035001Y007920D01*
X034281Y006800D02*
X036381Y004700D01*
X037341Y004700D01*
X037481Y004560D01*
X037500Y004554D01*
X037541Y004560D01*
X038481Y004560D01*
X038500Y004554D01*
X038550Y004545D02*
X040621Y004545D01*
X040621Y004643D02*
X039012Y004643D01*
X039007Y004675D02*
X038982Y004753D01*
X038945Y004826D01*
X038897Y004892D01*
X038839Y004950D01*
X038773Y004998D01*
X038703Y005034D01*
X038715Y005034D01*
X039020Y005338D01*
X039020Y005769D01*
X038735Y006054D01*
X039020Y006338D01*
X039020Y006738D01*
X040111Y005647D01*
X040111Y005510D01*
X040164Y005382D01*
X040263Y005283D01*
X040391Y005230D01*
X040530Y005230D01*
X040621Y005267D01*
X040621Y003703D01*
X040012Y003094D01*
X039978Y003178D01*
X039926Y003230D01*
X039978Y003282D01*
X040031Y003410D01*
X040031Y003550D01*
X039978Y003678D01*
X039879Y003777D01*
X039842Y003792D01*
X039891Y003910D01*
X039891Y004050D01*
X039838Y004178D01*
X039739Y004277D01*
X039610Y004330D01*
X039471Y004330D01*
X039343Y004277D01*
X039246Y004180D01*
X038862Y004180D01*
X038897Y004215D01*
X038945Y004281D01*
X038982Y004354D01*
X039007Y004432D01*
X039019Y004504D01*
X038550Y004504D01*
X038550Y004604D01*
X039019Y004604D01*
X039007Y004675D01*
X038986Y004742D02*
X040621Y004742D01*
X040621Y004840D02*
X038935Y004840D01*
X038850Y004939D02*
X040621Y004939D01*
X040621Y005037D02*
X038719Y005037D01*
X038817Y005136D02*
X040621Y005136D01*
X040621Y005234D02*
X040540Y005234D01*
X040381Y005234D02*
X038916Y005234D01*
X039014Y005333D02*
X040213Y005333D01*
X040144Y005431D02*
X039020Y005431D01*
X039020Y005530D02*
X040111Y005530D01*
X040111Y005628D02*
X039020Y005628D01*
X039020Y005727D02*
X040031Y005727D01*
X039933Y005825D02*
X038964Y005825D01*
X038865Y005924D02*
X039834Y005924D01*
X039736Y006022D02*
X038767Y006022D01*
X038802Y006121D02*
X039637Y006121D01*
X039539Y006219D02*
X038901Y006219D01*
X038999Y006318D02*
X039440Y006318D01*
X039342Y006416D02*
X039020Y006416D01*
X039020Y006515D02*
X039243Y006515D01*
X039145Y006613D02*
X039020Y006613D01*
X039020Y006712D02*
X039046Y006712D01*
X038501Y007540D02*
X038500Y007554D01*
X038501Y007540D02*
X040461Y005580D01*
X041021Y005628D02*
X042708Y005628D01*
X042708Y005530D02*
X041021Y005530D01*
X041021Y005431D02*
X042708Y005431D01*
X042708Y005333D02*
X041021Y005333D01*
X041021Y005234D02*
X042708Y005234D01*
X042708Y005136D02*
X041021Y005136D01*
X041021Y005037D02*
X042708Y005037D01*
X042708Y004939D02*
X041021Y004939D01*
X041021Y004840D02*
X042708Y004840D01*
X042708Y004742D02*
X041021Y004742D01*
X041021Y004643D02*
X042708Y004643D01*
X042708Y004545D02*
X041021Y004545D01*
X041021Y004446D02*
X042708Y004446D01*
X042708Y004348D02*
X041021Y004348D01*
X041021Y004249D02*
X042708Y004249D01*
X042708Y004151D02*
X041021Y004151D01*
X041021Y004052D02*
X042708Y004052D01*
X042708Y003954D02*
X041021Y003954D01*
X041021Y003855D02*
X042708Y003855D01*
X042708Y003757D02*
X041021Y003757D01*
X041021Y003658D02*
X042708Y003658D01*
X042708Y003560D02*
X041021Y003560D01*
X040945Y003461D02*
X042708Y003461D01*
X042708Y003363D02*
X040846Y003363D01*
X040748Y003264D02*
X042708Y003264D01*
X042708Y003166D02*
X040649Y003166D01*
X040551Y003067D02*
X042708Y003067D01*
X042708Y002969D02*
X040452Y002969D01*
X040354Y002870D02*
X042708Y002870D01*
X042708Y002772D02*
X040255Y002772D01*
X040157Y002673D02*
X042708Y002673D01*
X042708Y002575D02*
X040058Y002575D01*
X039960Y002476D02*
X042708Y002476D01*
X042708Y002378D02*
X039791Y002378D01*
X039811Y002279D02*
X042708Y002279D01*
X042708Y002181D02*
X039807Y002181D01*
X039766Y002082D02*
X042708Y002082D01*
X042708Y001984D02*
X039679Y001984D01*
X039369Y001885D02*
X042708Y001885D01*
X042708Y001787D02*
X039270Y001787D01*
X039172Y001688D02*
X042708Y001688D01*
X042708Y001590D02*
X039073Y001590D01*
X038975Y001491D02*
X042708Y001491D01*
X040182Y003264D02*
X039960Y003264D01*
X039983Y003166D02*
X040083Y003166D01*
X040011Y003363D02*
X040280Y003363D01*
X040379Y003461D02*
X040031Y003461D01*
X040027Y003560D02*
X040477Y003560D01*
X040576Y003658D02*
X039986Y003658D01*
X039899Y003757D02*
X040621Y003757D01*
X040621Y003855D02*
X039868Y003855D01*
X039891Y003954D02*
X040621Y003954D01*
X040621Y004052D02*
X039890Y004052D01*
X039849Y004151D02*
X040621Y004151D01*
X040621Y004249D02*
X039767Y004249D01*
X039541Y003980D02*
X036101Y003980D01*
X034641Y005440D01*
X034291Y005431D02*
X032333Y005431D01*
X032431Y005333D02*
X034306Y005333D01*
X034291Y005370D02*
X034344Y005242D01*
X034443Y005143D01*
X034571Y005090D01*
X034708Y005090D01*
X035901Y003897D01*
X035978Y003820D01*
X033944Y003820D01*
X029991Y007773D01*
X029991Y007847D01*
X030361Y007477D01*
X030478Y007360D01*
X036980Y007360D01*
X036980Y007338D01*
X037265Y007054D01*
X036980Y006769D01*
X036980Y006338D01*
X037265Y006054D01*
X036980Y005769D01*
X036980Y005338D01*
X037285Y005034D01*
X037297Y005034D01*
X037227Y004998D01*
X037161Y004950D01*
X037103Y004892D01*
X037055Y004826D01*
X037018Y004753D01*
X036993Y004675D01*
X036981Y004604D01*
X037450Y004604D01*
X037450Y004504D01*
X036981Y004504D01*
X036993Y004432D01*
X037018Y004354D01*
X037055Y004281D01*
X037103Y004215D01*
X037138Y004180D01*
X036913Y004180D01*
X036951Y004270D01*
X036951Y004410D01*
X036898Y004538D01*
X036799Y004637D01*
X036670Y004690D01*
X036531Y004690D01*
X036403Y004637D01*
X036315Y004549D01*
X034631Y006233D01*
X034631Y006370D01*
X034578Y006498D01*
X034479Y006597D01*
X034350Y006650D01*
X034211Y006650D01*
X034083Y006597D01*
X033984Y006498D01*
X033931Y006370D01*
X033931Y006230D01*
X033984Y006102D01*
X034083Y006003D01*
X034211Y005950D01*
X034348Y005950D01*
X034526Y005771D01*
X034443Y005737D01*
X034344Y005638D01*
X034291Y005510D01*
X034291Y005370D01*
X034352Y005234D02*
X032530Y005234D01*
X032628Y005136D02*
X034461Y005136D01*
X034761Y005037D02*
X032727Y005037D01*
X032825Y004939D02*
X034859Y004939D01*
X034958Y004840D02*
X032924Y004840D01*
X033022Y004742D02*
X035056Y004742D01*
X035155Y004643D02*
X033121Y004643D01*
X033219Y004545D02*
X035253Y004545D01*
X035352Y004446D02*
X033318Y004446D01*
X033416Y004348D02*
X035450Y004348D01*
X035549Y004249D02*
X033515Y004249D01*
X033613Y004151D02*
X035647Y004151D01*
X035746Y004052D02*
X033712Y004052D01*
X033810Y003954D02*
X035844Y003954D01*
X035943Y003855D02*
X033909Y003855D01*
X033861Y003620D02*
X039181Y003620D01*
X038961Y003340D02*
X039041Y003260D01*
X039461Y003260D01*
X039681Y003480D01*
X039681Y002980D02*
X037461Y002980D01*
X037079Y004249D02*
X036942Y004249D01*
X036951Y004348D02*
X037021Y004348D01*
X036991Y004446D02*
X036936Y004446D01*
X036891Y004545D02*
X037450Y004545D01*
X037550Y004545D02*
X038450Y004545D01*
X038450Y004504D02*
X037981Y004504D01*
X037550Y004504D01*
X037550Y004604D01*
X038450Y004604D01*
X038450Y004504D01*
X038921Y004249D02*
X039315Y004249D01*
X038979Y004348D02*
X040621Y004348D01*
X040621Y004446D02*
X039009Y004446D01*
X038961Y003340D02*
X033641Y003340D01*
X029141Y007840D01*
X029641Y007840D02*
X033861Y003620D01*
X031521Y003640D02*
X023441Y003640D01*
X021581Y005500D01*
X009341Y005500D01*
X009341Y009300D01*
X010641Y010600D01*
X010650Y010605D01*
X010369Y011046D02*
X012803Y011046D01*
X012902Y011144D02*
X010468Y011144D01*
X010641Y011600D02*
X010650Y011605D01*
X010641Y011600D02*
X007881Y008840D01*
X007881Y005660D01*
X007321Y006780D02*
X007321Y012040D01*
X017301Y012040D01*
X019141Y010200D01*
X019462Y010061D02*
X025306Y010061D01*
X025147Y010159D02*
X019491Y010159D01*
X019491Y010258D02*
X025081Y010258D01*
X025051Y010356D02*
X019455Y010356D01*
X019381Y010455D02*
X025051Y010455D01*
X025085Y010553D02*
X019071Y010553D01*
X018972Y010652D02*
X020406Y010652D01*
X020381Y010677D02*
X020381Y010677D01*
X020308Y010750D02*
X018874Y010750D01*
X018775Y010849D02*
X020209Y010849D01*
X020111Y010947D02*
X018677Y010947D01*
X018578Y011046D02*
X020012Y011046D01*
X019914Y011144D02*
X018480Y011144D01*
X018381Y011243D02*
X019815Y011243D01*
X019717Y011341D02*
X018283Y011341D01*
X018184Y011440D02*
X019440Y011440D01*
X019308Y011538D02*
X018086Y011538D01*
X017987Y011637D02*
X019253Y011637D01*
X019231Y011735D02*
X017889Y011735D01*
X017790Y011834D02*
X019232Y011834D01*
X019273Y011932D02*
X017692Y011932D01*
X017593Y012031D02*
X019356Y012031D01*
X019581Y011760D02*
X020581Y010760D01*
X031721Y010760D01*
X031981Y010500D01*
X036441Y010500D01*
X037481Y011540D01*
X037500Y011554D01*
X036885Y012228D02*
X030831Y012228D01*
X030824Y012326D02*
X036984Y012326D01*
X036980Y012425D02*
X030783Y012425D01*
X030693Y012523D02*
X036980Y012523D01*
X036980Y012622D02*
X028598Y012622D01*
X028756Y012720D02*
X036980Y012720D01*
X037030Y012819D02*
X028821Y012819D01*
X028851Y012917D02*
X037128Y012917D01*
X037227Y013016D02*
X028851Y013016D01*
X028938Y013114D02*
X037204Y013114D01*
X037106Y013213D02*
X029036Y013213D01*
X029135Y013311D02*
X037007Y013311D01*
X036980Y013740D02*
X028998Y013740D01*
X028881Y013623D01*
X028568Y013310D01*
X028431Y013310D01*
X028303Y013257D01*
X028204Y013158D01*
X028151Y013030D01*
X028151Y012890D01*
X028204Y012762D01*
X028181Y012819D02*
X025760Y012819D01*
X025748Y012848D02*
X025651Y012945D01*
X025651Y013067D01*
X025784Y013200D01*
X025901Y013317D01*
X025901Y016905D01*
X025943Y016863D01*
X026071Y016810D01*
X026210Y016810D01*
X026339Y016863D01*
X026438Y016962D01*
X026491Y017090D01*
X026491Y017227D01*
X027224Y017960D01*
X032738Y017960D01*
X032668Y017890D01*
X032531Y017890D01*
X032403Y017837D01*
X032304Y017738D01*
X032251Y017610D01*
X032251Y017470D01*
X032288Y017380D01*
X030238Y017380D01*
X030121Y017263D01*
X028568Y015710D01*
X028431Y015710D01*
X028303Y015657D01*
X028204Y015558D01*
X028151Y015430D01*
X028151Y015290D01*
X028204Y015162D01*
X028256Y015110D01*
X028204Y015058D01*
X028151Y014930D01*
X028151Y014790D01*
X028204Y014662D01*
X028256Y014610D01*
X028204Y014558D01*
X028151Y014430D01*
X028151Y014290D01*
X028204Y014162D01*
X028303Y014063D01*
X028431Y014010D01*
X028570Y014010D01*
X028699Y014063D01*
X028798Y014162D01*
X028851Y014290D01*
X028851Y014427D01*
X030064Y015640D01*
X036298Y015640D01*
X036281Y015623D01*
X036168Y015510D01*
X036031Y015510D01*
X035903Y015457D01*
X035804Y015358D01*
X035751Y015230D01*
X035751Y015090D01*
X035804Y014962D01*
X035903Y014863D01*
X036031Y014810D01*
X036170Y014810D01*
X036299Y014863D01*
X036398Y014962D01*
X036451Y015090D01*
X036451Y015227D01*
X036564Y015340D01*
X036980Y015340D01*
X036980Y015338D01*
X037265Y015054D01*
X036980Y014769D01*
X036980Y014760D01*
X034664Y014760D01*
X034651Y014773D01*
X034651Y014910D01*
X034598Y015038D01*
X034499Y015137D01*
X034370Y015190D01*
X034231Y015190D01*
X034103Y015137D01*
X034004Y015038D01*
X033951Y014910D01*
X033951Y014770D01*
X034004Y014642D01*
X034103Y014543D01*
X034231Y014490D01*
X034368Y014490D01*
X034381Y014477D01*
X034498Y014360D01*
X036980Y014360D01*
X036980Y014338D01*
X037265Y014054D01*
X036980Y013769D01*
X036980Y013740D01*
X037015Y013804D02*
X025901Y013804D01*
X025901Y013902D02*
X037113Y013902D01*
X037212Y014001D02*
X025901Y014001D01*
X025901Y014099D02*
X028267Y014099D01*
X028189Y014198D02*
X025901Y014198D01*
X025901Y014296D02*
X028151Y014296D01*
X028151Y014395D02*
X025901Y014395D01*
X025901Y014493D02*
X028177Y014493D01*
X028237Y014592D02*
X025901Y014592D01*
X025901Y014690D02*
X028192Y014690D01*
X028152Y014789D02*
X025901Y014789D01*
X025901Y014887D02*
X028151Y014887D01*
X028174Y014986D02*
X025901Y014986D01*
X025901Y015084D02*
X028230Y015084D01*
X028195Y015183D02*
X025901Y015183D01*
X025901Y015281D02*
X028155Y015281D01*
X028151Y015380D02*
X027425Y015380D01*
X027399Y015353D02*
X027496Y015450D01*
X027534Y015450D01*
X027651Y015567D01*
X027901Y015817D01*
X027901Y016605D01*
X027998Y016702D01*
X028051Y016830D01*
X028051Y016970D01*
X027998Y017098D01*
X027899Y017197D01*
X027770Y017250D01*
X027631Y017250D01*
X027503Y017197D01*
X027404Y017098D01*
X027351Y016970D01*
X027351Y016830D01*
X027404Y016702D01*
X027501Y016605D01*
X027501Y015983D01*
X027432Y015914D01*
X027399Y015947D01*
X027270Y016000D01*
X027131Y016000D01*
X027003Y015947D01*
X026904Y015848D01*
X026851Y015720D01*
X026851Y015580D01*
X026904Y015452D01*
X027003Y015353D01*
X027131Y015300D01*
X027270Y015300D01*
X027399Y015353D01*
X027562Y015478D02*
X028171Y015478D01*
X028222Y015577D02*
X027660Y015577D01*
X027759Y015675D02*
X028347Y015675D01*
X028631Y015774D02*
X027857Y015774D01*
X027901Y015872D02*
X028730Y015872D01*
X028828Y015971D02*
X027901Y015971D01*
X027901Y016069D02*
X028927Y016069D01*
X029025Y016168D02*
X027901Y016168D01*
X027901Y016266D02*
X029124Y016266D01*
X029222Y016365D02*
X027901Y016365D01*
X027901Y016463D02*
X029321Y016463D01*
X029419Y016562D02*
X027901Y016562D01*
X027956Y016660D02*
X029518Y016660D01*
X029616Y016759D02*
X028021Y016759D01*
X028051Y016857D02*
X029715Y016857D01*
X029813Y016956D02*
X028051Y016956D01*
X028016Y017054D02*
X029912Y017054D01*
X030010Y017153D02*
X027943Y017153D01*
X027701Y016900D02*
X027701Y015900D01*
X027451Y015650D01*
X027201Y015650D01*
X027342Y015971D02*
X027488Y015971D01*
X027501Y016069D02*
X025901Y016069D01*
X025901Y015971D02*
X027060Y015971D01*
X026928Y015872D02*
X025901Y015872D01*
X025901Y015774D02*
X026873Y015774D01*
X026851Y015675D02*
X025901Y015675D01*
X025901Y015580D02*
X025901Y012600D01*
X033121Y012600D01*
X033581Y012140D01*
X033713Y012031D02*
X030973Y012031D01*
X030875Y012129D02*
X033795Y012129D01*
X034021Y011860D02*
X033941Y011780D01*
X030941Y011780D01*
X030481Y012240D01*
X030131Y012228D02*
X022868Y012228D01*
X022961Y012129D02*
X030148Y012129D01*
X030195Y012031D02*
X023002Y012031D01*
X022821Y011780D02*
X030141Y011780D01*
X030421Y011500D01*
X036441Y011500D01*
X037481Y012540D01*
X037500Y012554D01*
X036787Y012129D02*
X034247Y012129D01*
X034329Y012031D02*
X036688Y012031D01*
X036590Y011932D02*
X034370Y011932D01*
X034371Y011834D02*
X036491Y011834D01*
X036393Y011735D02*
X034348Y011735D01*
X035001Y011140D02*
X032401Y011140D01*
X032121Y010860D01*
X031910Y011144D02*
X027180Y011144D01*
X027266Y011243D02*
X032220Y011243D01*
X031819Y011046D02*
X020578Y011046D01*
X020480Y011144D02*
X026742Y011144D01*
X026961Y011420D02*
X022581Y011420D01*
X022161Y011840D01*
X021811Y011834D02*
X019929Y011834D01*
X019931Y011735D02*
X021825Y011735D01*
X021869Y011637D02*
X019987Y011637D01*
X020086Y011538D02*
X021975Y011538D01*
X022278Y011440D02*
X020184Y011440D01*
X020283Y011341D02*
X022377Y011341D01*
X022475Y011243D02*
X020381Y011243D01*
X019888Y011932D02*
X021820Y011932D01*
X021861Y012031D02*
X019805Y012031D01*
X019621Y012300D02*
X018671Y011350D01*
X019641Y010380D01*
X019001Y009840D02*
X037201Y009840D01*
X037481Y009560D01*
X037500Y009554D01*
X037258Y010061D02*
X025496Y010061D01*
X025501Y010300D02*
X037241Y010300D01*
X037481Y010540D01*
X037500Y010554D01*
X038500Y010554D02*
X038501Y010560D01*
X039661Y010560D01*
X040301Y011200D01*
X040821Y011560D02*
X038501Y011560D01*
X038500Y011554D01*
X038955Y011834D02*
X042708Y011834D01*
X042708Y011932D02*
X038857Y011932D01*
X038758Y012031D02*
X042708Y012031D01*
X042708Y012129D02*
X038811Y012129D01*
X038909Y012228D02*
X042708Y012228D01*
X042708Y012326D02*
X039008Y012326D01*
X038500Y012554D02*
X038501Y012560D01*
X041021Y012560D01*
X041021Y022240D01*
X039541Y023720D01*
X028421Y023720D01*
X028221Y023520D01*
X028721Y023520D02*
X039441Y023520D01*
X040821Y022140D01*
X040821Y013560D01*
X038501Y013560D01*
X038500Y013554D01*
X037500Y013554D02*
X037481Y013540D01*
X029081Y013540D01*
X028501Y012960D01*
X028258Y013213D02*
X025796Y013213D01*
X025895Y013311D02*
X028569Y013311D01*
X028667Y013410D02*
X025901Y013410D01*
X025901Y013508D02*
X028766Y013508D01*
X028864Y013607D02*
X025901Y013607D01*
X025901Y013705D02*
X028963Y013705D01*
X028735Y014099D02*
X037219Y014099D01*
X037121Y014198D02*
X028812Y014198D01*
X028851Y014296D02*
X037022Y014296D01*
X037000Y014789D02*
X034651Y014789D01*
X034651Y014887D02*
X035879Y014887D01*
X035794Y014986D02*
X034619Y014986D01*
X034552Y015084D02*
X035753Y015084D01*
X035751Y015183D02*
X034388Y015183D01*
X034213Y015183D02*
X029606Y015183D01*
X029705Y015281D02*
X035772Y015281D01*
X035825Y015380D02*
X029803Y015380D01*
X029902Y015478D02*
X035954Y015478D01*
X036234Y015577D02*
X030000Y015577D01*
X029981Y015840D02*
X036461Y015840D01*
X036821Y016200D01*
X037481Y016560D02*
X037500Y016554D01*
X037481Y016560D02*
X032161Y016560D01*
X032141Y016580D01*
X032260Y017448D02*
X026712Y017448D01*
X026810Y017547D02*
X032251Y017547D01*
X032265Y017645D02*
X026909Y017645D01*
X027007Y017744D02*
X032309Y017744D01*
X032415Y017842D02*
X027106Y017842D01*
X027204Y017941D02*
X032718Y017941D01*
X033021Y017960D02*
X035901Y017960D01*
X037481Y019540D01*
X037500Y019554D01*
X038500Y019554D02*
X038501Y019560D01*
X039741Y019560D01*
X039741Y020060D02*
X039261Y020540D01*
X038501Y020540D01*
X038500Y020554D01*
X037500Y021554D02*
X037481Y021540D01*
X036861Y021540D01*
X035181Y019860D01*
X035161Y019820D01*
X033501Y018160D01*
X027141Y018160D01*
X026141Y017160D01*
X026491Y017153D02*
X027458Y017153D01*
X027386Y017054D02*
X026476Y017054D01*
X026431Y016956D02*
X027351Y016956D01*
X027351Y016857D02*
X026324Y016857D01*
X025958Y016857D02*
X025901Y016857D01*
X025901Y016759D02*
X027381Y016759D01*
X027446Y016660D02*
X025901Y016660D01*
X025901Y016562D02*
X027501Y016562D01*
X027501Y016463D02*
X025901Y016463D01*
X025901Y016365D02*
X027501Y016365D01*
X027501Y016266D02*
X025901Y016266D01*
X025901Y016168D02*
X027501Y016168D01*
X026781Y016480D02*
X026761Y016440D01*
X025901Y015580D01*
X025901Y015577D02*
X026852Y015577D01*
X026893Y015478D02*
X025901Y015478D01*
X025901Y015380D02*
X026976Y015380D01*
X026781Y016480D02*
X027581Y017280D01*
X028841Y017280D01*
X030109Y017251D02*
X026515Y017251D01*
X026613Y017350D02*
X030207Y017350D01*
X030321Y017180D02*
X037121Y017180D01*
X037481Y017540D01*
X037500Y017554D01*
X038500Y018554D02*
X038501Y018560D01*
X038741Y018560D01*
X039381Y019200D01*
X040101Y020700D02*
X040101Y015560D01*
X038501Y015560D01*
X038500Y015554D01*
X037500Y015554D02*
X037481Y015540D01*
X036481Y015540D01*
X036101Y015160D01*
X036451Y015183D02*
X037136Y015183D01*
X037037Y015281D02*
X036505Y015281D01*
X036448Y015084D02*
X037234Y015084D01*
X037197Y014986D02*
X036407Y014986D01*
X036323Y014887D02*
X037098Y014887D01*
X037481Y014560D02*
X037500Y014554D01*
X037481Y014560D02*
X034581Y014560D01*
X034301Y014840D01*
X034054Y014592D02*
X029015Y014592D01*
X029114Y014690D02*
X033984Y014690D01*
X033951Y014789D02*
X029212Y014789D01*
X029311Y014887D02*
X033951Y014887D01*
X033982Y014986D02*
X029409Y014986D01*
X029508Y015084D02*
X034050Y015084D01*
X034224Y014493D02*
X028917Y014493D01*
X028851Y014395D02*
X034463Y014395D01*
X035021Y016200D02*
X029841Y016200D01*
X028501Y014860D01*
X028501Y014360D02*
X029981Y015840D01*
X030321Y017180D02*
X028501Y015360D01*
X028186Y013114D02*
X025698Y013114D01*
X025651Y013016D02*
X028151Y013016D01*
X028151Y012917D02*
X025679Y012917D01*
X025748Y012848D02*
X025801Y012720D01*
X025801Y012622D02*
X028403Y012622D01*
X027291Y011538D02*
X030100Y011538D01*
X030198Y011440D02*
X027311Y011440D01*
X027307Y011341D02*
X030297Y011341D01*
X030469Y011735D02*
X030703Y011735D01*
X030604Y011834D02*
X030370Y011834D01*
X030310Y011932D02*
X030272Y011932D01*
X030138Y012326D02*
X025583Y012326D01*
X025720Y012425D02*
X030178Y012425D01*
X030269Y012523D02*
X025777Y012523D01*
X025901Y012600D02*
X025901Y012300D01*
X019621Y012300D01*
X018671Y011350D02*
X017781Y012240D01*
X015381Y012240D01*
X015091Y012530D01*
X015661Y013100D01*
X016044Y012819D02*
X014306Y012819D01*
X014347Y012720D02*
X014579Y012720D01*
X014447Y012622D02*
X014360Y012622D01*
X014225Y012917D02*
X016172Y012917D01*
X015992Y012720D02*
X014863Y012720D01*
X014994Y012622D02*
X015971Y012622D01*
X015974Y012523D02*
X015049Y012523D01*
X015091Y012530D02*
X014041Y013580D01*
X013681Y013580D01*
X013650Y013605D01*
X013641Y013620D01*
X013221Y014040D01*
X007981Y014040D01*
X007961Y014080D01*
X007961Y015320D01*
X004681Y018600D01*
X004669Y018617D01*
X004619Y018630D02*
X002851Y018630D01*
X002851Y018532D02*
X004126Y018532D01*
X004120Y018567D02*
X004133Y018488D01*
X004160Y018405D01*
X004199Y018328D01*
X004250Y018258D01*
X004311Y018197D01*
X004381Y018146D01*
X004458Y018107D01*
X004540Y018080D01*
X004619Y018068D01*
X004619Y018567D01*
X004120Y018567D01*
X004120Y018667D02*
X004619Y018667D01*
X004619Y019165D01*
X004540Y019153D01*
X004458Y019126D01*
X004381Y019087D01*
X004311Y019036D01*
X004250Y018975D01*
X004199Y018905D01*
X004160Y018828D01*
X004133Y018745D01*
X004120Y018667D01*
X004130Y018729D02*
X002851Y018729D01*
X002851Y018827D02*
X004159Y018827D01*
X004214Y018926D02*
X002851Y018926D01*
X002851Y019024D02*
X004299Y019024D01*
X004451Y019123D02*
X002851Y019123D01*
X002851Y019221D02*
X020959Y019221D01*
X020860Y019123D02*
X004888Y019123D01*
X004880Y019126D02*
X004798Y019153D01*
X004719Y019165D01*
X004719Y018667D01*
X004619Y018667D01*
X004619Y018567D01*
X004719Y018567D01*
X004719Y018667D01*
X005218Y018667D01*
X005206Y018745D01*
X005179Y018828D01*
X005140Y018905D01*
X005089Y018975D01*
X005028Y019036D01*
X004958Y019087D01*
X004880Y019126D01*
X004719Y019123D02*
X004619Y019123D01*
X004619Y019024D02*
X004719Y019024D01*
X004719Y018926D02*
X004619Y018926D01*
X004619Y018827D02*
X004719Y018827D01*
X004719Y018729D02*
X004619Y018729D01*
X004719Y018630D02*
X020368Y018630D01*
X020269Y018532D02*
X005213Y018532D01*
X005218Y018567D02*
X004719Y018567D01*
X004719Y018068D01*
X004798Y018080D01*
X004880Y018107D01*
X004958Y018146D01*
X005028Y018197D01*
X005089Y018258D01*
X005140Y018328D01*
X005179Y018405D01*
X005206Y018488D01*
X005218Y018567D01*
X005188Y018433D02*
X020171Y018433D01*
X020072Y018335D02*
X005143Y018335D01*
X005067Y018236D02*
X019974Y018236D01*
X019875Y018138D02*
X004941Y018138D01*
X004719Y018138D02*
X004619Y018138D01*
X004619Y018236D02*
X004719Y018236D01*
X004719Y018335D02*
X004619Y018335D01*
X004619Y018433D02*
X004719Y018433D01*
X004719Y018532D02*
X004619Y018532D01*
X004272Y018236D02*
X002851Y018236D01*
X002851Y018138D02*
X004398Y018138D01*
X004196Y018335D02*
X002851Y018335D01*
X002851Y018433D02*
X004151Y018433D01*
X005040Y019024D02*
X020762Y019024D01*
X020663Y018926D02*
X005125Y018926D01*
X005179Y018827D02*
X020565Y018827D01*
X020466Y018729D02*
X005208Y018729D01*
X005232Y020108D02*
X021845Y020108D01*
X021747Y020009D02*
X002851Y020009D01*
X002851Y019911D02*
X021648Y019911D01*
X021550Y019812D02*
X002851Y019812D01*
X002851Y019714D02*
X021451Y019714D01*
X021353Y019615D02*
X002851Y019615D01*
X002851Y019517D02*
X021254Y019517D01*
X021156Y019418D02*
X002851Y019418D01*
X002851Y019320D02*
X021057Y019320D01*
X021944Y020206D02*
X005239Y020206D01*
X005239Y020305D02*
X022042Y020305D01*
X022141Y020403D02*
X005239Y020403D01*
X005239Y020502D02*
X022239Y020502D01*
X022338Y020600D02*
X005239Y020600D01*
X005239Y020699D02*
X009219Y020699D01*
X009121Y020797D02*
X005239Y020797D01*
X005302Y020896D02*
X008821Y020896D01*
X008712Y020994D02*
X005400Y020994D01*
X005499Y021093D02*
X008666Y021093D01*
X008651Y021191D02*
X005597Y021191D01*
X005696Y021290D02*
X008659Y021290D01*
X008700Y021388D02*
X005794Y021388D01*
X005893Y021487D02*
X008719Y021487D01*
X008670Y021585D02*
X005991Y021585D01*
X006090Y021684D02*
X008651Y021684D01*
X008656Y021782D02*
X006188Y021782D01*
X006287Y021881D02*
X008697Y021881D01*
X009001Y021700D02*
X009681Y021020D01*
X014361Y021020D01*
X014881Y021540D01*
X014900Y021554D01*
X015161Y020820D02*
X015881Y021540D01*
X015900Y021554D01*
X016273Y021191D02*
X016527Y021191D01*
X016447Y021290D02*
X016353Y021290D01*
X016394Y021388D02*
X016406Y021388D01*
X016654Y021093D02*
X016146Y021093D01*
X015618Y020994D02*
X022732Y020994D01*
X022746Y021093D02*
X022830Y021093D01*
X022873Y021191D02*
X022929Y021191D01*
X022953Y021290D02*
X023047Y021290D01*
X023006Y021388D02*
X022994Y021388D01*
X023041Y021020D02*
X026221Y021020D01*
X027861Y022660D01*
X034421Y022660D01*
X034561Y022800D01*
X039661Y022800D01*
X040301Y022160D01*
X039741Y022220D02*
X039681Y022280D01*
X035981Y022280D01*
X032741Y019040D01*
X026841Y019040D01*
X026701Y019400D02*
X031451Y019400D01*
X030951Y019650D02*
X032500Y021199D01*
X032500Y021554D01*
X031961Y023020D02*
X038561Y023020D01*
X038701Y023160D01*
X038346Y024250D02*
X038253Y024250D01*
X038281Y024279D01*
X038359Y024465D01*
X038359Y024666D01*
X038281Y024852D01*
X038139Y024995D01*
X037994Y025055D01*
X038150Y025119D01*
X038298Y025267D01*
X038379Y025461D01*
X038379Y025670D01*
X038298Y025863D01*
X038150Y026011D01*
X037994Y026076D01*
X038139Y026136D01*
X038281Y026279D01*
X038359Y026465D01*
X038359Y026666D01*
X038281Y026852D01*
X038139Y026995D01*
X037968Y027065D01*
X038139Y027136D01*
X038281Y027279D01*
X038359Y027465D01*
X038359Y027666D01*
X038281Y027852D01*
X038139Y027995D01*
X037968Y028065D01*
X038139Y028136D01*
X038281Y028279D01*
X038359Y028465D01*
X038359Y028666D01*
X038281Y028852D01*
X038139Y028995D01*
X037968Y029065D01*
X038139Y029136D01*
X038281Y029279D01*
X038359Y029465D01*
X038824Y029465D01*
X038853Y029495D02*
X038711Y029352D01*
X038634Y029166D01*
X038634Y028965D01*
X038711Y028779D01*
X038853Y028636D01*
X039034Y028561D01*
X039021Y028559D01*
X038946Y028534D01*
X038875Y028498D01*
X038810Y028451D01*
X038754Y028395D01*
X038707Y028331D01*
X038671Y028260D01*
X038646Y028184D01*
X038635Y028115D01*
X039446Y028115D01*
X039446Y028015D01*
X038635Y028015D01*
X038646Y027947D01*
X038671Y027871D01*
X038707Y027800D01*
X038754Y027736D01*
X038810Y027679D01*
X038875Y027632D01*
X038946Y027596D01*
X039021Y027572D01*
X039034Y027570D01*
X038853Y027495D01*
X038711Y027352D01*
X038634Y027166D01*
X038634Y026965D01*
X038711Y026779D01*
X038853Y026636D01*
X039024Y026565D01*
X038853Y026495D01*
X038711Y026352D01*
X038634Y026166D01*
X038634Y025965D01*
X038711Y025779D01*
X038853Y025636D01*
X038998Y025576D01*
X038842Y025511D01*
X038694Y025363D01*
X038614Y025170D01*
X038614Y024961D01*
X038694Y024767D01*
X038778Y024683D01*
X038346Y024250D01*
X038308Y024343D02*
X038439Y024343D01*
X038349Y024442D02*
X038537Y024442D01*
X038636Y024540D02*
X038359Y024540D01*
X038359Y024639D02*
X038734Y024639D01*
X038724Y024737D02*
X038329Y024737D01*
X038288Y024836D02*
X038665Y024836D01*
X038625Y024934D02*
X038199Y024934D01*
X038047Y025033D02*
X038614Y025033D01*
X038614Y025131D02*
X038162Y025131D01*
X038261Y025230D02*
X038638Y025230D01*
X038679Y025328D02*
X038324Y025328D01*
X038364Y025427D02*
X038757Y025427D01*
X038875Y025525D02*
X038379Y025525D01*
X038379Y025624D02*
X038884Y025624D01*
X038767Y025722D02*
X038357Y025722D01*
X038316Y025821D02*
X038693Y025821D01*
X038653Y025919D02*
X038243Y025919D01*
X038136Y026018D02*
X038634Y026018D01*
X038634Y026116D02*
X038090Y026116D01*
X038217Y026215D02*
X038654Y026215D01*
X038695Y026313D02*
X038296Y026313D01*
X038337Y026412D02*
X038770Y026412D01*
X038891Y026510D02*
X038359Y026510D01*
X038359Y026609D02*
X038920Y026609D01*
X038782Y026707D02*
X038342Y026707D01*
X038301Y026806D02*
X038700Y026806D01*
X038659Y026904D02*
X038229Y026904D01*
X038120Y027003D02*
X038634Y027003D01*
X038634Y027101D02*
X038054Y027101D01*
X038202Y027200D02*
X038648Y027200D01*
X038688Y027298D02*
X038289Y027298D01*
X038330Y027397D02*
X038755Y027397D01*
X038854Y027495D02*
X038359Y027495D01*
X038359Y027594D02*
X038954Y027594D01*
X038797Y027692D02*
X038348Y027692D01*
X038307Y027791D02*
X038714Y027791D01*
X038665Y027889D02*
X038244Y027889D01*
X038146Y027988D02*
X038640Y027988D01*
X038646Y028185D02*
X038187Y028185D01*
X038283Y028283D02*
X038683Y028283D01*
X038744Y028382D02*
X038324Y028382D01*
X038359Y028480D02*
X038849Y028480D01*
X038992Y028579D02*
X038359Y028579D01*
X038354Y028677D02*
X038812Y028677D01*
X038714Y028776D02*
X038313Y028776D01*
X038259Y028874D02*
X038671Y028874D01*
X038634Y028973D02*
X038161Y028973D01*
X038172Y029170D02*
X038635Y029170D01*
X038634Y029071D02*
X037982Y029071D01*
X038271Y029268D02*
X038676Y029268D01*
X038725Y029367D02*
X038318Y029367D01*
X038359Y029465D02*
X038359Y029666D01*
X038281Y029852D01*
X038139Y029995D01*
X037994Y030055D01*
X038150Y030119D01*
X038298Y030267D01*
X038379Y030461D01*
X038379Y030670D01*
X038331Y030784D01*
X038723Y030393D01*
X038694Y030363D01*
X038614Y030170D01*
X038614Y029961D01*
X038694Y029767D01*
X038842Y029619D01*
X038998Y029555D01*
X038853Y029495D01*
X038976Y029564D02*
X038359Y029564D01*
X038359Y029662D02*
X038799Y029662D01*
X038700Y029761D02*
X038319Y029761D01*
X038274Y029859D02*
X038656Y029859D01*
X038615Y029958D02*
X038176Y029958D01*
X038186Y030155D02*
X038614Y030155D01*
X038614Y030056D02*
X037998Y030056D01*
X038284Y030253D02*
X038648Y030253D01*
X038689Y030352D02*
X038333Y030352D01*
X038374Y030450D02*
X038665Y030450D01*
X038567Y030549D02*
X038379Y030549D01*
X038379Y030647D02*
X038468Y030647D01*
X038370Y030746D02*
X038347Y030746D01*
X038631Y031238D02*
X038642Y031238D01*
X038631Y031337D02*
X038683Y031337D01*
X038631Y031435D02*
X038765Y031435D01*
X038895Y031534D02*
X038631Y031534D01*
X038631Y031632D02*
X042708Y031632D01*
X042708Y031534D02*
X040097Y031534D01*
X040227Y031435D02*
X042708Y031435D01*
X042708Y031337D02*
X040310Y031337D01*
X040350Y031238D02*
X042708Y031238D01*
X042708Y031140D02*
X040379Y031140D01*
X040379Y031041D02*
X042708Y031041D01*
X042708Y030943D02*
X040371Y030943D01*
X040330Y030844D02*
X042708Y030844D01*
X042708Y030746D02*
X040277Y030746D01*
X040178Y030647D02*
X042708Y030647D01*
X042708Y030549D02*
X040061Y030549D01*
X040212Y030450D02*
X042708Y030450D01*
X042708Y030352D02*
X040303Y030352D01*
X040344Y030253D02*
X042708Y030253D01*
X042708Y030155D02*
X040379Y030155D01*
X040379Y030056D02*
X042708Y030056D01*
X042708Y029958D02*
X040377Y029958D01*
X040336Y029859D02*
X042708Y029859D01*
X042708Y029761D02*
X040292Y029761D01*
X040193Y029662D02*
X042708Y029662D01*
X042708Y029564D02*
X040016Y029564D01*
X040168Y029465D02*
X042708Y029465D01*
X042708Y029367D02*
X040267Y029367D01*
X040316Y029268D02*
X042708Y029268D01*
X042708Y029170D02*
X040357Y029170D01*
X040359Y029071D02*
X042708Y029071D01*
X042708Y028973D02*
X040359Y028973D01*
X040321Y028874D02*
X042708Y028874D01*
X042708Y028776D02*
X040278Y028776D01*
X040247Y028677D02*
X042708Y028677D01*
X042708Y028579D02*
X040345Y028579D01*
X040444Y028480D02*
X042708Y028480D01*
X042708Y028382D02*
X040542Y028382D01*
X040581Y028283D02*
X042708Y028283D01*
X042708Y028185D02*
X040581Y028185D01*
X040581Y028086D02*
X042708Y028086D01*
X042708Y027988D02*
X040581Y027988D01*
X040581Y027889D02*
X042708Y027889D01*
X042708Y027791D02*
X040581Y027791D01*
X040581Y027692D02*
X042708Y027692D01*
X042708Y027594D02*
X040581Y027594D01*
X040581Y027495D02*
X042708Y027495D01*
X042708Y027397D02*
X040581Y027397D01*
X040581Y027298D02*
X042708Y027298D01*
X042708Y027200D02*
X040581Y027200D01*
X040581Y027101D02*
X042708Y027101D01*
X042708Y027003D02*
X040581Y027003D01*
X040581Y026904D02*
X042708Y026904D01*
X042708Y026806D02*
X040581Y026806D01*
X040581Y026707D02*
X042708Y026707D01*
X042708Y026609D02*
X040581Y026609D01*
X040581Y026510D02*
X042708Y026510D01*
X042708Y026412D02*
X040581Y026412D01*
X040581Y026313D02*
X042708Y026313D01*
X042708Y026215D02*
X040581Y026215D01*
X040581Y026116D02*
X042708Y026116D01*
X042708Y026018D02*
X040581Y026018D01*
X040581Y025919D02*
X042708Y025919D01*
X042708Y025821D02*
X040581Y025821D01*
X040581Y025722D02*
X042708Y025722D01*
X042708Y025624D02*
X040581Y025624D01*
X040581Y025525D02*
X042708Y025525D01*
X042708Y025427D02*
X040581Y025427D01*
X040581Y025328D02*
X042708Y025328D01*
X042708Y025230D02*
X040581Y025230D01*
X040581Y025131D02*
X042708Y025131D01*
X042708Y025033D02*
X040581Y025033D01*
X040581Y024934D02*
X042708Y024934D01*
X042708Y024836D02*
X040581Y024836D01*
X040581Y024737D02*
X042708Y024737D01*
X042708Y024639D02*
X040581Y024639D01*
X040581Y024540D02*
X042708Y024540D01*
X042708Y024442D02*
X040581Y024442D01*
X040581Y024343D02*
X042708Y024343D01*
X042708Y024245D02*
X040581Y024245D01*
X040581Y024146D02*
X042708Y024146D01*
X042708Y024048D02*
X040581Y024048D01*
X040581Y023949D02*
X042708Y023949D01*
X042708Y023851D02*
X040581Y023851D01*
X040581Y023752D02*
X042708Y023752D01*
X042708Y023654D02*
X040602Y023654D01*
X040687Y023555D02*
X042708Y023555D01*
X042708Y023457D02*
X040728Y023457D01*
X040731Y023358D02*
X042708Y023358D01*
X042708Y023260D02*
X040710Y023260D01*
X040657Y023161D02*
X042708Y023161D01*
X042708Y023063D02*
X040529Y023063D01*
X040580Y022964D02*
X042708Y022964D01*
X042708Y022866D02*
X040678Y022866D01*
X040777Y022767D02*
X042708Y022767D01*
X042708Y022669D02*
X040875Y022669D01*
X040974Y022570D02*
X042708Y022570D01*
X042708Y022472D02*
X041072Y022472D01*
X041171Y022373D02*
X042708Y022373D01*
X042708Y022275D02*
X041221Y022275D01*
X041221Y022176D02*
X042708Y022176D01*
X042708Y022078D02*
X041221Y022078D01*
X041221Y021979D02*
X042708Y021979D01*
X042708Y021881D02*
X041221Y021881D01*
X041221Y021782D02*
X042708Y021782D01*
X042708Y021684D02*
X041221Y021684D01*
X041221Y021585D02*
X042708Y021585D01*
X042708Y021487D02*
X041221Y021487D01*
X041221Y021388D02*
X042708Y021388D01*
X042708Y021290D02*
X041221Y021290D01*
X041221Y021191D02*
X042708Y021191D01*
X042708Y021093D02*
X041221Y021093D01*
X041221Y020994D02*
X042708Y020994D01*
X042708Y020896D02*
X041221Y020896D01*
X041221Y020797D02*
X042708Y020797D01*
X042708Y020699D02*
X041221Y020699D01*
X041221Y020600D02*
X042708Y020600D01*
X042708Y020502D02*
X041221Y020502D01*
X041221Y020403D02*
X042708Y020403D01*
X042708Y020305D02*
X041221Y020305D01*
X041221Y020206D02*
X042708Y020206D01*
X042708Y020108D02*
X041221Y020108D01*
X041221Y020009D02*
X042708Y020009D01*
X042708Y019911D02*
X041221Y019911D01*
X041221Y019812D02*
X042708Y019812D01*
X042708Y019714D02*
X041221Y019714D01*
X041221Y019615D02*
X042708Y019615D01*
X042708Y019517D02*
X041221Y019517D01*
X041221Y019418D02*
X042708Y019418D01*
X042708Y019320D02*
X041221Y019320D01*
X041221Y019221D02*
X042708Y019221D01*
X042708Y019123D02*
X041221Y019123D01*
X041221Y019024D02*
X042708Y019024D01*
X042708Y018926D02*
X041221Y018926D01*
X041221Y018827D02*
X042708Y018827D01*
X042708Y018729D02*
X041221Y018729D01*
X041221Y018630D02*
X042708Y018630D01*
X042708Y018532D02*
X041221Y018532D01*
X041221Y018433D02*
X042708Y018433D01*
X042708Y018335D02*
X041221Y018335D01*
X041221Y018236D02*
X042708Y018236D01*
X042708Y018138D02*
X041221Y018138D01*
X041221Y018039D02*
X042708Y018039D01*
X042708Y017941D02*
X041221Y017941D01*
X041221Y017842D02*
X042708Y017842D01*
X042708Y017744D02*
X041221Y017744D01*
X041221Y017645D02*
X042708Y017645D01*
X042708Y017547D02*
X041221Y017547D01*
X041221Y017448D02*
X042708Y017448D01*
X042708Y017350D02*
X041221Y017350D01*
X041221Y017251D02*
X042708Y017251D01*
X042708Y017153D02*
X041221Y017153D01*
X041221Y017054D02*
X042708Y017054D01*
X042708Y016956D02*
X041221Y016956D01*
X041221Y016857D02*
X042708Y016857D01*
X042708Y016759D02*
X041221Y016759D01*
X041221Y016660D02*
X042708Y016660D01*
X042708Y016562D02*
X041221Y016562D01*
X041221Y016463D02*
X042708Y016463D01*
X042708Y016365D02*
X041221Y016365D01*
X041221Y016266D02*
X042708Y016266D01*
X042708Y016168D02*
X041221Y016168D01*
X041221Y016069D02*
X042708Y016069D01*
X042708Y015971D02*
X041221Y015971D01*
X041221Y015872D02*
X042708Y015872D01*
X042708Y015774D02*
X041221Y015774D01*
X041221Y015675D02*
X042708Y015675D01*
X042708Y015577D02*
X041221Y015577D01*
X041221Y015478D02*
X042708Y015478D01*
X042708Y015380D02*
X041221Y015380D01*
X041221Y015281D02*
X042708Y015281D01*
X042708Y015183D02*
X041221Y015183D01*
X041221Y015084D02*
X042708Y015084D01*
X042708Y014986D02*
X041221Y014986D01*
X041221Y014887D02*
X042708Y014887D01*
X042708Y014789D02*
X041221Y014789D01*
X041221Y014690D02*
X042708Y014690D01*
X042708Y014592D02*
X041221Y014592D01*
X041221Y014493D02*
X042708Y014493D01*
X042708Y014395D02*
X041221Y014395D01*
X041221Y014296D02*
X042708Y014296D01*
X042708Y014198D02*
X041221Y014198D01*
X041221Y014099D02*
X042708Y014099D01*
X042708Y014001D02*
X041221Y014001D01*
X041221Y013902D02*
X042708Y013902D01*
X042708Y013804D02*
X041221Y013804D01*
X041221Y013705D02*
X042708Y013705D01*
X042708Y013607D02*
X041221Y013607D01*
X041221Y013508D02*
X042708Y013508D01*
X042708Y013410D02*
X041221Y013410D01*
X041221Y013311D02*
X042708Y013311D01*
X042708Y013213D02*
X041221Y013213D01*
X041221Y013114D02*
X042708Y013114D01*
X042708Y013016D02*
X041221Y013016D01*
X041221Y012917D02*
X042708Y012917D01*
X042708Y012819D02*
X041221Y012819D01*
X041221Y012720D02*
X042708Y012720D01*
X042708Y012622D02*
X041221Y012622D01*
X041221Y012523D02*
X042708Y012523D01*
X042708Y012425D02*
X041168Y012425D01*
X040929Y011735D02*
X042708Y011735D01*
X042708Y011637D02*
X041021Y011637D01*
X041021Y011538D02*
X042708Y011538D01*
X042708Y011440D02*
X041021Y011440D01*
X041021Y011341D02*
X042708Y011341D01*
X042708Y011243D02*
X041021Y011243D01*
X041021Y011144D02*
X042708Y011144D01*
X042708Y011046D02*
X041021Y011046D01*
X041021Y010947D02*
X042708Y010947D01*
X042708Y010849D02*
X041021Y010849D01*
X041021Y010750D02*
X042708Y010750D01*
X042708Y010652D02*
X041021Y010652D01*
X041021Y010553D02*
X042708Y010553D01*
X042708Y010455D02*
X041021Y010455D01*
X041021Y010356D02*
X042708Y010356D01*
X042708Y010258D02*
X041021Y010258D01*
X041021Y010159D02*
X042708Y010159D01*
X042708Y010061D02*
X041021Y010061D01*
X041021Y009962D02*
X042708Y009962D01*
X042708Y009864D02*
X041021Y009864D01*
X041021Y009765D02*
X042708Y009765D01*
X042708Y009667D02*
X041021Y009667D01*
X041021Y009568D02*
X042708Y009568D01*
X042708Y009470D02*
X041021Y009470D01*
X041021Y009371D02*
X042708Y009371D01*
X042708Y009273D02*
X041021Y009273D01*
X041021Y009174D02*
X042708Y009174D01*
X042708Y009076D02*
X041021Y009076D01*
X041021Y008977D02*
X042708Y008977D01*
X042708Y008879D02*
X041021Y008879D01*
X041021Y008780D02*
X042708Y008780D01*
X042708Y008682D02*
X041021Y008682D01*
X041021Y008583D02*
X042708Y008583D01*
X042708Y008485D02*
X041021Y008485D01*
X041021Y008386D02*
X042708Y008386D01*
X042708Y008288D02*
X041021Y008288D01*
X041021Y008189D02*
X042708Y008189D01*
X042708Y008091D02*
X041021Y008091D01*
X041021Y007992D02*
X042708Y007992D01*
X042708Y007894D02*
X041021Y007894D01*
X041021Y007795D02*
X042708Y007795D01*
X042708Y007697D02*
X041021Y007697D01*
X041021Y007598D02*
X042708Y007598D01*
X042708Y007500D02*
X041021Y007500D01*
X041021Y007401D02*
X042708Y007401D01*
X042708Y007303D02*
X041021Y007303D01*
X041021Y007204D02*
X042708Y007204D01*
X042708Y007106D02*
X041021Y007106D01*
X041021Y007007D02*
X042708Y007007D01*
X042708Y006909D02*
X041021Y006909D01*
X041021Y006810D02*
X042708Y006810D01*
X042708Y006712D02*
X041021Y006712D01*
X041021Y006613D02*
X042708Y006613D01*
X042708Y006515D02*
X041021Y006515D01*
X041021Y006416D02*
X042708Y006416D01*
X042708Y006318D02*
X041021Y006318D01*
X041021Y006219D02*
X042708Y006219D01*
X042708Y006121D02*
X041021Y006121D01*
X041021Y006022D02*
X042708Y006022D01*
X042708Y005924D02*
X041021Y005924D01*
X041021Y005825D02*
X042708Y005825D01*
X042708Y005727D02*
X041021Y005727D01*
X040461Y006580D02*
X038501Y008540D01*
X038500Y008554D01*
X037500Y008554D02*
X037481Y008560D01*
X036401Y009640D01*
X017741Y009640D01*
X017741Y011100D01*
X018101Y010740D02*
X019001Y009840D01*
X018341Y009280D02*
X019221Y008400D01*
X030021Y008400D01*
X030501Y007920D01*
X032661Y007920D01*
X032661Y008920D02*
X022721Y008920D01*
X021241Y006840D02*
X023481Y004600D01*
X020861Y006360D02*
X014501Y006360D01*
X012721Y008140D01*
X013152Y007992D02*
X013338Y007992D01*
X013277Y007894D02*
X013250Y007894D01*
X013601Y007760D02*
X014521Y006840D01*
X021241Y006840D01*
X018921Y008200D02*
X029921Y008200D01*
X030561Y007560D01*
X037481Y007560D01*
X037500Y007554D01*
X037114Y007204D02*
X030560Y007204D01*
X030658Y007106D02*
X037213Y007106D01*
X037218Y007007D02*
X030757Y007007D01*
X030855Y006909D02*
X037120Y006909D01*
X037021Y006810D02*
X030954Y006810D01*
X031052Y006712D02*
X036980Y006712D01*
X036980Y006613D02*
X034440Y006613D01*
X034561Y006515D02*
X036980Y006515D01*
X036980Y006416D02*
X034612Y006416D01*
X034631Y006318D02*
X037001Y006318D01*
X037099Y006219D02*
X034645Y006219D01*
X034743Y006121D02*
X037198Y006121D01*
X037233Y006022D02*
X034842Y006022D01*
X034940Y005924D02*
X037135Y005924D01*
X037036Y005825D02*
X035039Y005825D01*
X035137Y005727D02*
X036980Y005727D01*
X036980Y005628D02*
X035236Y005628D01*
X035334Y005530D02*
X036980Y005530D01*
X036980Y005431D02*
X035433Y005431D01*
X035531Y005333D02*
X036986Y005333D01*
X037084Y005234D02*
X035630Y005234D01*
X035728Y005136D02*
X037183Y005136D01*
X037281Y005037D02*
X035827Y005037D01*
X035925Y004939D02*
X037150Y004939D01*
X037065Y004840D02*
X036024Y004840D01*
X036122Y004742D02*
X037014Y004742D01*
X036988Y004643D02*
X036784Y004643D01*
X036601Y004340D02*
X036241Y004340D01*
X034281Y006300D01*
X033931Y006318D02*
X031446Y006318D01*
X031348Y006416D02*
X033950Y006416D01*
X034000Y006515D02*
X031249Y006515D01*
X031151Y006613D02*
X034122Y006613D01*
X033935Y006219D02*
X031545Y006219D01*
X031643Y006121D02*
X033976Y006121D01*
X034064Y006022D02*
X031742Y006022D01*
X031840Y005924D02*
X034374Y005924D01*
X034473Y005825D02*
X031939Y005825D01*
X032037Y005727D02*
X034432Y005727D01*
X034340Y005628D02*
X032136Y005628D01*
X032234Y005530D02*
X034299Y005530D01*
X036221Y004643D02*
X036418Y004643D01*
X039021Y002620D02*
X039821Y002620D01*
X040821Y003620D01*
X040821Y011560D01*
X037016Y007303D02*
X030461Y007303D01*
X030437Y007401D02*
X030363Y007401D01*
X030338Y007500D02*
X030264Y007500D01*
X030240Y007598D02*
X030166Y007598D01*
X030141Y007697D02*
X030067Y007697D01*
X030043Y007795D02*
X029991Y007795D01*
X030641Y008280D02*
X030361Y008560D01*
X030641Y008280D02*
X031301Y008280D01*
X026181Y009120D02*
X026021Y009280D01*
X025501Y010300D02*
X025401Y010400D01*
X025318Y012326D02*
X016542Y012326D01*
X016627Y012425D02*
X022381Y012425D01*
X022453Y012228D02*
X017396Y012228D01*
X017495Y012129D02*
X021955Y012129D01*
X022661Y011940D02*
X022821Y011780D01*
X022906Y012523D02*
X025125Y012523D01*
X025101Y012580D02*
X025154Y012452D01*
X025101Y012580D02*
X025101Y012720D01*
X025101Y012622D02*
X022947Y012622D01*
X023096Y013410D02*
X017908Y013410D01*
X018025Y013311D02*
X024639Y013311D01*
X024601Y013213D02*
X018073Y013213D01*
X017741Y013100D02*
X018141Y012700D01*
X018035Y012523D02*
X016668Y012523D01*
X016671Y012622D02*
X017936Y012622D01*
X017838Y012720D02*
X016724Y012720D01*
X016822Y012819D02*
X017527Y012819D01*
X017438Y012917D02*
X016921Y012917D01*
X017019Y013016D02*
X017397Y013016D01*
X017391Y013114D02*
X017118Y013114D01*
X017216Y013213D02*
X017409Y013213D01*
X017457Y013311D02*
X017315Y013311D01*
X017413Y013410D02*
X017573Y013410D01*
X017512Y013508D02*
X022810Y013508D01*
X022711Y013607D02*
X017610Y013607D01*
X017709Y013705D02*
X022613Y013705D01*
X022514Y013804D02*
X017807Y013804D01*
X017906Y013902D02*
X022416Y013902D01*
X022317Y014001D02*
X018004Y014001D01*
X018103Y014099D02*
X022219Y014099D01*
X022120Y014198D02*
X018201Y014198D01*
X018300Y014296D02*
X022022Y014296D01*
X022001Y014395D02*
X021578Y014395D01*
X021689Y014493D02*
X022001Y014493D01*
X022001Y014592D02*
X021735Y014592D01*
X021751Y014690D02*
X022001Y014690D01*
X022001Y014789D02*
X021743Y014789D01*
X021702Y014887D02*
X022001Y014887D01*
X022001Y014986D02*
X021610Y014986D01*
X021601Y015084D02*
X022001Y015084D01*
X022001Y015183D02*
X021601Y015183D01*
X021601Y015281D02*
X022001Y015281D01*
X022001Y015380D02*
X021601Y015380D01*
X021601Y015478D02*
X022001Y015478D01*
X022001Y015577D02*
X021601Y015577D01*
X021601Y015675D02*
X021931Y015675D01*
X021874Y015774D02*
X021601Y015774D01*
X021601Y015872D02*
X021851Y015872D01*
X021851Y015971D02*
X021601Y015971D01*
X021601Y016069D02*
X021892Y016069D01*
X021973Y016168D02*
X021601Y016168D01*
X021401Y016440D02*
X023501Y016440D01*
X025241Y018180D01*
X025241Y020540D01*
X026451Y019650D02*
X030951Y019650D01*
X033021Y017960D02*
X032601Y017540D01*
X034661Y019840D02*
X036901Y022080D01*
X038721Y022080D01*
X040101Y020700D01*
X040381Y023380D02*
X040381Y028260D01*
X040061Y028580D01*
X039981Y028580D01*
X039501Y029060D01*
X039496Y029065D01*
X039446Y028086D02*
X038018Y028086D01*
X037496Y028565D02*
X037481Y028580D01*
X037441Y028620D01*
X031561Y028620D01*
X030801Y027860D01*
X030021Y028240D02*
X029921Y028240D01*
X030021Y028240D02*
X030861Y029080D01*
X037001Y029080D01*
X037481Y029560D01*
X037496Y029565D01*
X036686Y030844D02*
X009267Y030844D01*
X009180Y030943D02*
X036773Y030943D01*
X036913Y031041D02*
X009039Y031041D01*
X009103Y031140D02*
X036850Y031140D01*
X036751Y031238D02*
X029158Y031238D01*
X029292Y031337D02*
X036687Y031337D01*
X037481Y031560D02*
X037496Y031565D01*
X037481Y031560D02*
X029021Y031560D01*
X028883Y031238D02*
X017458Y031238D01*
X017592Y031337D02*
X028749Y031337D01*
X028694Y031435D02*
X017648Y031435D01*
X017671Y031534D02*
X028671Y031534D01*
X028672Y031632D02*
X017670Y031632D01*
X017629Y031731D02*
X028713Y031731D01*
X028795Y031829D02*
X017547Y031829D01*
X017321Y031560D02*
X008461Y031560D01*
X008457Y031565D01*
X009023Y032026D02*
X035516Y032026D01*
X035511Y031928D02*
X009167Y031928D01*
X009252Y031829D02*
X017095Y031829D01*
X017049Y031337D02*
X009266Y031337D01*
X009202Y031238D02*
X017183Y031238D01*
X018766Y030330D02*
X019491Y029605D01*
X019491Y029486D01*
X019491Y029564D02*
X009319Y029564D01*
X009319Y029662D02*
X019433Y029662D01*
X019335Y029761D02*
X009280Y029761D01*
X009242Y029852D02*
X009100Y029995D01*
X008955Y030055D01*
X009111Y030119D01*
X009259Y030267D01*
X009285Y030330D01*
X018766Y030330D01*
X018842Y030253D02*
X009245Y030253D01*
X009146Y030155D02*
X018941Y030155D01*
X019039Y030056D02*
X008958Y030056D01*
X009137Y029958D02*
X019138Y029958D01*
X019236Y029859D02*
X009235Y029859D01*
X009242Y029852D02*
X009319Y029666D01*
X009319Y029465D01*
X009279Y029367D02*
X019540Y029367D01*
X019629Y029268D02*
X017296Y029268D01*
X017290Y029274D02*
X017154Y029330D01*
X017007Y029330D01*
X016871Y029274D01*
X016788Y029190D01*
X015854Y029190D01*
X015770Y029274D01*
X015634Y029330D01*
X015487Y029330D01*
X015351Y029274D01*
X015247Y029170D01*
X015191Y029034D01*
X015191Y028886D01*
X015247Y028750D01*
X015351Y028646D01*
X015487Y028590D01*
X015634Y028590D01*
X015770Y028646D01*
X015854Y028730D01*
X016788Y028730D01*
X016871Y028646D01*
X017007Y028590D01*
X017154Y028590D01*
X017290Y028646D01*
X017394Y028750D01*
X017451Y028886D01*
X017451Y029034D01*
X017394Y029170D01*
X017290Y029274D01*
X017394Y029170D02*
X022885Y029170D01*
X022984Y029268D02*
X020092Y029268D01*
X020181Y029367D02*
X023082Y029367D01*
X023181Y029465D02*
X020222Y029465D01*
X020231Y029564D02*
X023279Y029564D01*
X023378Y029662D02*
X020219Y029662D01*
X020178Y029761D02*
X023476Y029761D01*
X023575Y029859D02*
X020085Y029859D01*
X019788Y029958D02*
X023673Y029958D01*
X023772Y030056D02*
X019690Y030056D01*
X019591Y030155D02*
X023870Y030155D01*
X022787Y029071D02*
X017435Y029071D01*
X017451Y028973D02*
X022688Y028973D01*
X022590Y028874D02*
X017446Y028874D01*
X017405Y028776D02*
X022491Y028776D01*
X022393Y028677D02*
X017321Y028677D01*
X016840Y028677D02*
X015801Y028677D01*
X015804Y028480D02*
X021258Y028480D01*
X021704Y028480D02*
X022196Y028480D01*
X022294Y028579D02*
X014925Y028579D01*
X014827Y028677D02*
X015320Y028677D01*
X015237Y028776D02*
X014728Y028776D01*
X014630Y028874D02*
X015196Y028874D01*
X015191Y028973D02*
X014531Y028973D01*
X014433Y029071D02*
X015206Y029071D01*
X015247Y029170D02*
X014334Y029170D01*
X014236Y029268D02*
X015346Y029268D01*
X015776Y029268D02*
X016866Y029268D01*
X015358Y028480D02*
X015024Y028480D01*
X015122Y028382D02*
X015264Y028382D01*
X015221Y028283D02*
X015223Y028283D01*
X014141Y029080D02*
X016921Y026300D01*
X017261Y026300D01*
X019481Y024080D01*
X018621Y023420D02*
X020481Y021560D01*
X020500Y021554D01*
X020127Y021191D02*
X019873Y021191D01*
X019953Y021290D02*
X020047Y021290D01*
X020006Y021388D02*
X019994Y021388D01*
X019746Y021093D02*
X020254Y021093D01*
X020746Y021093D02*
X021254Y021093D01*
X021127Y021191D02*
X020873Y021191D01*
X020953Y021290D02*
X021047Y021290D01*
X021006Y021388D02*
X020994Y021388D01*
X021746Y021093D02*
X022254Y021093D01*
X022127Y021191D02*
X021873Y021191D01*
X021953Y021290D02*
X022047Y021290D01*
X022006Y021388D02*
X021994Y021388D01*
X022500Y021554D02*
X022501Y021560D01*
X022501Y025860D01*
X023501Y026860D01*
X027381Y026860D01*
X027561Y026680D01*
X037381Y026680D01*
X037481Y026580D01*
X037496Y026565D01*
X037001Y027080D02*
X035401Y027080D01*
X037001Y027080D02*
X037481Y027560D01*
X037496Y027565D01*
X037061Y025000D02*
X033741Y025000D01*
X032461Y026280D01*
X027461Y026280D01*
X027241Y026500D01*
X028721Y023520D02*
X028221Y023020D01*
X029501Y021560D02*
X029500Y021554D01*
X029501Y021560D02*
X030021Y022080D01*
X034341Y022080D01*
X034701Y022440D01*
X037061Y025000D02*
X037481Y024580D01*
X037496Y024565D01*
X030574Y030352D02*
X019394Y030352D01*
X019296Y030450D02*
X030846Y030450D01*
X030944Y030549D02*
X019197Y030549D01*
X019099Y030647D02*
X031043Y030647D01*
X031141Y030746D02*
X019000Y030746D01*
X019493Y030253D02*
X030451Y030253D01*
X029247Y031829D02*
X035526Y031829D01*
X035557Y032125D02*
X002851Y032125D01*
X002851Y032223D02*
X035641Y032223D01*
X038623Y032223D02*
X042708Y032223D01*
X042708Y032125D02*
X038631Y032125D01*
X038631Y032026D02*
X042708Y032026D01*
X042708Y031928D02*
X038631Y031928D01*
X038631Y031829D02*
X042708Y031829D01*
X042708Y031731D02*
X038631Y031731D01*
X024881Y019180D02*
X023501Y020560D01*
X023041Y021020D02*
X019541Y017520D01*
X019404Y017842D02*
X014297Y017842D01*
X014338Y017744D02*
X019269Y017744D01*
X019214Y017645D02*
X014360Y017645D01*
X014360Y017547D02*
X019191Y017547D01*
X019192Y017448D02*
X014330Y017448D01*
X014187Y016956D02*
X020393Y016956D01*
X020295Y016857D02*
X014285Y016857D01*
X014331Y016759D02*
X020196Y016759D01*
X020098Y016660D02*
X014360Y016660D01*
X014360Y016562D02*
X019999Y016562D01*
X019901Y016463D02*
X014336Y016463D01*
X014296Y016365D02*
X019802Y016365D01*
X019704Y016266D02*
X014199Y016266D01*
X014015Y016035D02*
X014173Y015969D01*
X014294Y015848D01*
X014360Y015690D01*
X014360Y015519D01*
X014294Y015361D01*
X014173Y015240D01*
X014015Y015175D01*
X013284Y015175D01*
X013126Y015240D01*
X013005Y015361D01*
X012940Y015519D01*
X012940Y015690D01*
X013005Y015848D01*
X013126Y015969D01*
X013284Y016035D01*
X014015Y016035D01*
X014170Y015971D02*
X019408Y015971D01*
X019310Y015872D02*
X014270Y015872D01*
X014325Y015774D02*
X019211Y015774D01*
X019113Y015675D02*
X014360Y015675D01*
X014360Y015577D02*
X019014Y015577D01*
X018916Y015478D02*
X014343Y015478D01*
X014302Y015380D02*
X018817Y015380D01*
X018719Y015281D02*
X014214Y015281D01*
X014034Y015183D02*
X018620Y015183D01*
X018522Y015084D02*
X002851Y015084D01*
X002851Y014986D02*
X010165Y014986D01*
X010126Y014969D02*
X010005Y014848D01*
X009940Y014690D01*
X002851Y014690D01*
X002851Y014592D02*
X009940Y014592D01*
X009940Y014519D02*
X009940Y014690D01*
X009980Y014789D02*
X002851Y014789D01*
X002851Y014887D02*
X010044Y014887D01*
X010126Y014969D02*
X010284Y015035D01*
X011015Y015035D01*
X011173Y014969D01*
X011294Y014848D01*
X011360Y014690D01*
X012940Y014690D01*
X012940Y014519D01*
X013005Y014361D01*
X013126Y014240D01*
X013284Y014175D01*
X014015Y014175D01*
X014173Y014240D01*
X014294Y014361D01*
X014360Y014519D01*
X014360Y014690D01*
X018128Y014690D01*
X018029Y014592D02*
X014360Y014592D01*
X014360Y014690D02*
X014294Y014848D01*
X014173Y014969D01*
X014015Y015035D01*
X013284Y015035D01*
X013126Y014969D01*
X013005Y014848D01*
X012940Y014690D01*
X012940Y014592D02*
X011360Y014592D01*
X011360Y014519D02*
X011360Y014690D01*
X011319Y014789D02*
X012980Y014789D01*
X013044Y014887D02*
X011255Y014887D01*
X011134Y014986D02*
X013165Y014986D01*
X013265Y015183D02*
X011034Y015183D01*
X011015Y015175D02*
X011173Y015240D01*
X011294Y015361D01*
X011360Y015519D01*
X011360Y015690D01*
X011294Y015848D01*
X011173Y015969D01*
X011015Y016035D01*
X010284Y016035D01*
X010126Y015969D01*
X010005Y015848D01*
X009940Y015690D01*
X009940Y015519D01*
X010005Y015361D01*
X010126Y015240D01*
X010284Y015175D01*
X011015Y015175D01*
X011214Y015281D02*
X013085Y015281D01*
X012997Y015380D02*
X011302Y015380D01*
X011343Y015478D02*
X012957Y015478D01*
X012940Y015577D02*
X011360Y015577D01*
X011360Y015675D02*
X012940Y015675D01*
X012974Y015774D02*
X011325Y015774D01*
X011270Y015872D02*
X013029Y015872D01*
X013129Y015971D02*
X011170Y015971D01*
X011199Y016266D02*
X013100Y016266D01*
X013004Y016365D02*
X011296Y016365D01*
X011336Y016463D02*
X012963Y016463D01*
X012940Y016562D02*
X011360Y016562D01*
X011360Y016660D02*
X012940Y016660D01*
X012968Y016759D02*
X011331Y016759D01*
X011285Y016857D02*
X013014Y016857D01*
X013112Y016956D02*
X011187Y016956D01*
X011101Y017160D02*
X010661Y017600D01*
X010650Y017605D01*
X010115Y017251D02*
X002851Y017251D01*
X002851Y017153D02*
X010825Y017153D01*
X010924Y017054D02*
X002851Y017054D01*
X002851Y016956D02*
X010112Y016956D01*
X010014Y016857D02*
X002851Y016857D01*
X002851Y016759D02*
X009968Y016759D01*
X009940Y016660D02*
X002851Y016660D01*
X002851Y016562D02*
X009940Y016562D01*
X009963Y016463D02*
X002851Y016463D01*
X002851Y016365D02*
X010004Y016365D01*
X010100Y016266D02*
X002851Y016266D01*
X002851Y016168D02*
X019605Y016168D01*
X019507Y016069D02*
X002851Y016069D01*
X002851Y015971D02*
X010129Y015971D01*
X010029Y015872D02*
X002851Y015872D01*
X002851Y015774D02*
X009974Y015774D01*
X009940Y015675D02*
X002851Y015675D01*
X002851Y015577D02*
X009940Y015577D01*
X009957Y015478D02*
X002851Y015478D01*
X002851Y015380D02*
X009997Y015380D01*
X010085Y015281D02*
X002851Y015281D01*
X002851Y015183D02*
X010265Y015183D01*
X009940Y014519D02*
X010005Y014361D01*
X010126Y014240D01*
X010284Y014175D01*
X011015Y014175D01*
X011173Y014240D01*
X011294Y014361D01*
X011360Y014519D01*
X011349Y014493D02*
X012950Y014493D01*
X012991Y014395D02*
X011308Y014395D01*
X011229Y014296D02*
X013070Y014296D01*
X013229Y014198D02*
X011070Y014198D01*
X011098Y014001D02*
X013199Y014001D01*
X013205Y014003D02*
X013144Y013972D01*
X013089Y013933D01*
X013042Y013885D01*
X013002Y013830D01*
X012971Y013770D01*
X012950Y013705D01*
X011353Y013705D01*
X011360Y013607D02*
X013620Y013607D01*
X013620Y013635D02*
X013620Y013575D01*
X013680Y013575D01*
X013680Y013635D01*
X014360Y013635D01*
X014360Y013639D01*
X014349Y013705D01*
X017143Y013705D01*
X017044Y013607D02*
X013680Y013607D01*
X013680Y013635D02*
X013620Y013635D01*
X013620Y014035D01*
X013336Y014035D01*
X013269Y014024D01*
X013205Y014003D01*
X013059Y013902D02*
X011240Y013902D01*
X011313Y013804D02*
X012988Y013804D01*
X012950Y013705D02*
X012940Y013639D01*
X012940Y013635D01*
X013620Y013635D01*
X013680Y013635D02*
X013680Y014035D01*
X013963Y014035D01*
X014030Y014024D01*
X014095Y014003D01*
X014155Y013972D01*
X014210Y013933D01*
X014258Y013885D01*
X014297Y013830D01*
X014328Y013770D01*
X014349Y013705D01*
X014311Y013804D02*
X017241Y013804D01*
X017340Y013902D02*
X014240Y013902D01*
X014100Y014001D02*
X017438Y014001D01*
X017537Y014099D02*
X008056Y014099D01*
X008064Y014091D02*
X008018Y014138D01*
X007964Y014177D01*
X007905Y014207D01*
X007842Y014227D01*
X007777Y014237D01*
X007769Y014237D01*
X007769Y013842D01*
X008164Y013842D01*
X008164Y013850D01*
X008154Y013916D01*
X008133Y013979D01*
X008103Y014037D01*
X008064Y014091D01*
X007981Y014040D02*
X007761Y013820D01*
X007744Y013817D01*
X007701Y013800D01*
X006621Y013800D01*
X005081Y012260D01*
X005167Y012129D02*
X002851Y012129D01*
X002851Y012031D02*
X005068Y012031D01*
X004970Y011932D02*
X002851Y011932D01*
X002851Y011834D02*
X004871Y011834D01*
X004773Y011735D02*
X002851Y011735D01*
X002851Y011637D02*
X004674Y011637D01*
X004576Y011538D02*
X002851Y011538D01*
X002851Y011440D02*
X004477Y011440D01*
X004379Y011341D02*
X002851Y011341D01*
X002851Y011243D02*
X004280Y011243D01*
X004182Y011144D02*
X002851Y011144D01*
X002851Y011046D02*
X004083Y011046D01*
X003985Y010947D02*
X002851Y010947D01*
X002851Y010849D02*
X003901Y010849D01*
X003901Y010750D02*
X002851Y010750D01*
X002851Y010652D02*
X003901Y010652D01*
X003901Y010553D02*
X002851Y010553D01*
X002851Y010455D02*
X003901Y010455D01*
X003901Y010356D02*
X002851Y010356D01*
X002851Y010258D02*
X003901Y010258D01*
X003901Y010159D02*
X002851Y010159D01*
X002851Y010061D02*
X003901Y010061D01*
X003901Y009962D02*
X002851Y009962D01*
X002851Y009864D02*
X003901Y009864D01*
X003901Y009765D02*
X002851Y009765D01*
X002851Y009667D02*
X003901Y009667D01*
X003901Y009568D02*
X002851Y009568D01*
X002851Y009470D02*
X003901Y009470D01*
X003901Y009371D02*
X002851Y009371D01*
X002851Y009273D02*
X003901Y009273D01*
X003901Y009174D02*
X002851Y009174D01*
X002851Y009076D02*
X003901Y009076D01*
X003901Y008977D02*
X002851Y008977D01*
X002851Y008879D02*
X003901Y008879D01*
X003901Y008780D02*
X002851Y008780D01*
X002851Y008682D02*
X003901Y008682D01*
X003901Y008583D02*
X002851Y008583D01*
X002851Y008485D02*
X003901Y008485D01*
X003901Y008386D02*
X002851Y008386D01*
X002851Y008288D02*
X003901Y008288D01*
X003901Y008189D02*
X002851Y008189D01*
X002851Y008091D02*
X003901Y008091D01*
X003901Y007992D02*
X002851Y007992D01*
X002851Y007894D02*
X003901Y007894D01*
X003901Y007795D02*
X002851Y007795D01*
X002851Y007697D02*
X003901Y007697D01*
X003901Y007598D02*
X002851Y007598D01*
X002851Y007500D02*
X003901Y007500D01*
X003901Y007401D02*
X002851Y007401D01*
X002851Y007303D02*
X003901Y007303D01*
X003901Y007204D02*
X002851Y007204D01*
X002851Y007106D02*
X003901Y007106D01*
X003901Y007007D02*
X002851Y007007D01*
X002851Y006909D02*
X003901Y006909D01*
X003901Y006810D02*
X002851Y006810D01*
X002851Y006712D02*
X003901Y006712D01*
X003901Y006613D02*
X002851Y006613D01*
X002851Y006515D02*
X003901Y006515D01*
X003901Y006416D02*
X002851Y006416D01*
X002851Y006318D02*
X003901Y006318D01*
X003901Y006219D02*
X002851Y006219D01*
X002851Y006121D02*
X003901Y006121D01*
X003901Y006022D02*
X002851Y006022D01*
X002851Y005924D02*
X003901Y005924D01*
X003901Y005825D02*
X002851Y005825D01*
X002851Y005727D02*
X003901Y005727D01*
X003901Y005628D02*
X002851Y005628D01*
X002851Y005530D02*
X003901Y005530D01*
X003901Y005431D02*
X002851Y005431D01*
X002851Y005333D02*
X003901Y005333D01*
X003901Y005234D02*
X002851Y005234D01*
X002851Y005136D02*
X003901Y005136D01*
X003901Y005037D02*
X002851Y005037D01*
X002851Y004939D02*
X003901Y004939D01*
X003901Y004840D02*
X002851Y004840D01*
X002851Y004742D02*
X003901Y004742D01*
X003935Y004643D02*
X002851Y004643D01*
X002851Y004545D02*
X010473Y004545D01*
X010572Y004446D02*
X002851Y004446D01*
X002851Y004348D02*
X010670Y004348D01*
X011729Y003855D02*
X016903Y003855D01*
X017001Y003757D02*
X011827Y003757D01*
X011926Y003658D02*
X017100Y003658D01*
X017198Y003560D02*
X012024Y003560D01*
X012123Y003461D02*
X017297Y003461D01*
X017395Y003363D02*
X012221Y003363D01*
X012320Y003264D02*
X017494Y003264D01*
X017592Y003166D02*
X012418Y003166D01*
X012517Y003067D02*
X013381Y003067D01*
X013180Y002969D02*
X012615Y002969D01*
X012714Y002870D02*
X013081Y002870D01*
X013027Y002772D02*
X012812Y002772D01*
X012911Y002673D02*
X012987Y002673D01*
X013619Y003067D02*
X014381Y003067D01*
X014180Y002969D02*
X013820Y002969D01*
X013919Y002870D02*
X014081Y002870D01*
X014027Y002772D02*
X013973Y002772D01*
X014619Y003067D02*
X015381Y003067D01*
X015180Y002969D02*
X014820Y002969D01*
X014919Y002870D02*
X015081Y002870D01*
X015027Y002772D02*
X014973Y002772D01*
X015619Y003067D02*
X016418Y003067D01*
X016450Y003067D02*
X016550Y003067D01*
X016582Y003067D02*
X017418Y003067D01*
X017450Y003067D02*
X017550Y003067D01*
X017582Y003067D02*
X017691Y003067D01*
X017550Y002969D02*
X017450Y002969D01*
X017450Y002870D02*
X017550Y002870D01*
X017550Y002772D02*
X017450Y002772D01*
X017450Y002673D02*
X017550Y002673D01*
X017450Y002604D02*
X017450Y002504D01*
X016981Y002504D01*
X016550Y002504D01*
X016550Y002604D01*
X017450Y002604D01*
X017450Y002575D02*
X016550Y002575D01*
X016550Y002673D02*
X016450Y002673D01*
X016450Y002772D02*
X016550Y002772D01*
X016550Y002870D02*
X016450Y002870D01*
X016450Y002969D02*
X016550Y002969D01*
X016814Y002969D02*
X017186Y002969D01*
X017087Y002870D02*
X016913Y002870D01*
X016973Y002772D02*
X017027Y002772D01*
X016186Y002969D02*
X015820Y002969D01*
X015919Y002870D02*
X016087Y002870D01*
X016027Y002772D02*
X015973Y002772D01*
X018481Y002560D02*
X018500Y002554D01*
X018481Y002560D02*
X015741Y005300D01*
X005001Y005300D01*
X004681Y005620D01*
X004669Y005624D01*
X004101Y004760D02*
X004101Y010780D01*
X005561Y012240D01*
X009281Y012240D01*
X010641Y013600D01*
X010650Y013605D01*
X010202Y014001D02*
X008122Y014001D01*
X008156Y013902D02*
X010059Y013902D01*
X009987Y013804D02*
X007769Y013804D01*
X007769Y013792D02*
X007769Y013842D01*
X007719Y013842D01*
X007719Y013792D01*
X007769Y013792D01*
X007769Y013397D01*
X007777Y013397D01*
X007842Y013408D01*
X007905Y013428D01*
X007964Y013458D01*
X008018Y013497D01*
X008064Y013544D01*
X008103Y013597D01*
X008133Y013656D01*
X008154Y013719D01*
X008164Y013784D01*
X008164Y013792D01*
X007769Y013792D01*
X007719Y013792D02*
X007719Y013397D01*
X007711Y013397D01*
X007646Y013408D01*
X007583Y013428D01*
X007524Y013458D01*
X007470Y013497D01*
X007424Y013544D01*
X007385Y013597D01*
X007355Y013656D01*
X007334Y013719D01*
X007324Y013784D01*
X007324Y013792D01*
X007719Y013792D01*
X007719Y013804D02*
X005164Y013804D01*
X005164Y013734D02*
X005100Y013579D01*
X004982Y013461D01*
X004828Y013397D01*
X004661Y013397D01*
X004506Y013461D01*
X004388Y013579D01*
X004324Y013734D01*
X004324Y013901D01*
X004388Y014055D01*
X004506Y014173D01*
X004661Y014237D01*
X004828Y014237D01*
X004982Y014173D01*
X005100Y014055D01*
X005164Y013901D01*
X005164Y013734D01*
X005152Y013705D02*
X007339Y013705D01*
X007380Y013607D02*
X005111Y013607D01*
X005029Y013508D02*
X007459Y013508D01*
X007640Y013410D02*
X004857Y013410D01*
X004631Y013410D02*
X002851Y013410D01*
X002851Y013508D02*
X004459Y013508D01*
X004377Y013607D02*
X002851Y013607D01*
X002851Y013705D02*
X004336Y013705D01*
X004324Y013804D02*
X002851Y013804D01*
X002851Y013902D02*
X004325Y013902D01*
X004365Y014001D02*
X002851Y014001D01*
X002851Y014099D02*
X004432Y014099D01*
X004564Y014198D02*
X002851Y014198D01*
X002851Y014296D02*
X010070Y014296D01*
X009991Y014395D02*
X002851Y014395D01*
X002851Y014493D02*
X009950Y014493D01*
X010229Y014198D02*
X007923Y014198D01*
X007769Y014198D02*
X007719Y014198D01*
X007719Y014237D02*
X007719Y013842D01*
X007324Y013842D01*
X007324Y013850D01*
X007334Y013916D01*
X007355Y013979D01*
X007385Y014037D01*
X007424Y014091D01*
X007470Y014138D01*
X007524Y014177D01*
X007583Y014207D01*
X007646Y014227D01*
X007711Y014237D01*
X007719Y014237D01*
X007719Y014099D02*
X007769Y014099D01*
X007769Y014001D02*
X007719Y014001D01*
X007719Y013902D02*
X007769Y013902D01*
X007769Y013705D02*
X007719Y013705D01*
X007719Y013607D02*
X007769Y013607D01*
X007769Y013508D02*
X007719Y013508D01*
X007719Y013410D02*
X007769Y013410D01*
X007848Y013410D02*
X009985Y013410D01*
X009944Y013508D02*
X008029Y013508D01*
X008108Y013607D02*
X009940Y013607D01*
X009946Y013705D02*
X008149Y013705D01*
X007565Y014198D02*
X004924Y014198D01*
X005056Y014099D02*
X007432Y014099D01*
X007366Y014001D02*
X005123Y014001D01*
X005164Y013902D02*
X007332Y013902D01*
X005462Y012425D02*
X002851Y012425D01*
X002851Y012523D02*
X009281Y012523D01*
X009379Y012622D02*
X002851Y012622D01*
X002851Y012720D02*
X009478Y012720D01*
X009576Y012819D02*
X002851Y012819D01*
X002851Y012917D02*
X009675Y012917D01*
X009773Y013016D02*
X002851Y013016D01*
X002851Y013114D02*
X009872Y013114D01*
X009970Y013213D02*
X002851Y013213D01*
X002851Y013311D02*
X010055Y013311D01*
X010438Y013114D02*
X016552Y013114D01*
X016453Y013016D02*
X014061Y013016D01*
X014030Y013185D02*
X014095Y013206D01*
X014155Y013237D01*
X014210Y013277D01*
X014258Y013325D01*
X014297Y013379D01*
X014328Y013440D01*
X014349Y013504D01*
X014360Y013571D01*
X014360Y013575D01*
X013680Y013575D01*
X013680Y013175D01*
X013963Y013175D01*
X014030Y013185D01*
X014107Y013213D02*
X016650Y013213D01*
X016749Y013311D02*
X014244Y013311D01*
X014313Y013410D02*
X016847Y013410D01*
X016946Y013508D02*
X014350Y013508D01*
X013680Y013508D02*
X013620Y013508D01*
X013620Y013575D02*
X013620Y013175D01*
X013336Y013175D01*
X013269Y013185D01*
X013205Y013206D01*
X013144Y013237D01*
X013089Y013277D01*
X013042Y013325D01*
X013002Y013379D01*
X012971Y013440D01*
X012950Y013504D01*
X012940Y013571D01*
X012940Y013575D01*
X013620Y013575D01*
X013620Y013705D02*
X013680Y013705D01*
X013680Y013804D02*
X013620Y013804D01*
X013620Y013902D02*
X013680Y013902D01*
X013680Y014001D02*
X013620Y014001D01*
X014070Y014198D02*
X017635Y014198D01*
X017734Y014296D02*
X014229Y014296D01*
X014308Y014395D02*
X017832Y014395D01*
X017931Y014493D02*
X014349Y014493D01*
X014319Y014789D02*
X018226Y014789D01*
X018325Y014887D02*
X014255Y014887D01*
X014134Y014986D02*
X018423Y014986D01*
X018694Y014690D02*
X021051Y014690D01*
X021059Y014789D02*
X018792Y014789D01*
X018891Y014887D02*
X021099Y014887D01*
X021191Y014986D02*
X018989Y014986D01*
X019088Y015084D02*
X021201Y015084D01*
X021201Y015183D02*
X019186Y015183D01*
X019285Y015281D02*
X021201Y015281D01*
X021201Y015380D02*
X019383Y015380D01*
X019482Y015478D02*
X021201Y015478D01*
X021201Y015577D02*
X019580Y015577D01*
X019679Y015675D02*
X021201Y015675D01*
X021201Y015774D02*
X019777Y015774D01*
X019876Y015872D02*
X021201Y015872D01*
X021201Y015971D02*
X019974Y015971D01*
X020073Y016069D02*
X021201Y016069D01*
X021201Y016168D02*
X020171Y016168D01*
X020270Y016266D02*
X021201Y016266D01*
X021201Y016365D02*
X020368Y016365D01*
X020467Y016463D02*
X021201Y016463D01*
X021239Y016562D02*
X020565Y016562D01*
X020521Y016800D02*
X022001Y016800D01*
X021401Y016440D02*
X021401Y014700D01*
X021067Y014592D02*
X018595Y014592D01*
X018497Y014493D02*
X021113Y014493D01*
X021224Y014395D02*
X018398Y014395D01*
X016321Y012600D02*
X020521Y016800D01*
X022201Y015900D02*
X022201Y014400D01*
X022901Y013700D01*
X023301Y013700D01*
X023651Y013705D02*
X025223Y013705D01*
X025251Y013804D02*
X023637Y013804D01*
X023594Y013902D02*
X025251Y013902D01*
X025251Y014001D02*
X023490Y014001D01*
X023112Y014001D02*
X022883Y014001D01*
X022785Y014099D02*
X025251Y014099D01*
X025251Y014198D02*
X022686Y014198D01*
X022588Y014296D02*
X025251Y014296D01*
X025251Y014395D02*
X022489Y014395D01*
X022401Y014493D02*
X025251Y014493D01*
X025251Y014592D02*
X022401Y014592D01*
X022401Y014690D02*
X025251Y014690D01*
X025251Y014789D02*
X022401Y014789D01*
X022401Y014887D02*
X025251Y014887D01*
X025251Y014986D02*
X022401Y014986D01*
X022401Y015084D02*
X025251Y015084D01*
X025251Y015183D02*
X022401Y015183D01*
X022401Y015281D02*
X025251Y015281D01*
X025251Y015380D02*
X022401Y015380D01*
X022401Y015478D02*
X025251Y015478D01*
X025251Y015577D02*
X022401Y015577D01*
X022471Y015675D02*
X025251Y015675D01*
X025251Y015774D02*
X022527Y015774D01*
X022551Y015872D02*
X025251Y015872D01*
X025251Y015971D02*
X022550Y015971D01*
X022510Y016069D02*
X025251Y016069D01*
X025251Y016168D02*
X022428Y016168D01*
X023610Y016266D02*
X025251Y016266D01*
X025251Y016365D02*
X023708Y016365D01*
X023807Y016463D02*
X025251Y016463D01*
X025251Y016562D02*
X023905Y016562D01*
X024004Y016660D02*
X025251Y016660D01*
X025251Y016759D02*
X024102Y016759D01*
X024201Y016857D02*
X025251Y016857D01*
X025251Y016956D02*
X024299Y016956D01*
X024398Y017054D02*
X025251Y017054D01*
X025251Y017153D02*
X024496Y017153D01*
X024595Y017251D02*
X025251Y017251D01*
X025251Y017350D02*
X024693Y017350D01*
X024792Y017448D02*
X025251Y017448D01*
X025251Y017547D02*
X024890Y017547D01*
X024989Y017645D02*
X025251Y017645D01*
X025251Y017744D02*
X025087Y017744D01*
X025186Y017842D02*
X025251Y017842D01*
X025701Y018400D02*
X026701Y019400D01*
X026451Y019650D02*
X025451Y018650D01*
X025451Y013650D01*
X024951Y013150D01*
X025213Y012917D02*
X025223Y012917D01*
X025142Y012819D02*
X025065Y012819D01*
X025451Y012650D02*
X025451Y013150D01*
X025701Y013400D01*
X025701Y018400D01*
X023841Y017280D02*
X023721Y017160D01*
X011101Y017160D01*
X011330Y017448D02*
X012969Y017448D01*
X012940Y017547D02*
X011360Y017547D01*
X011360Y017645D02*
X012940Y017645D01*
X012962Y017744D02*
X011338Y017744D01*
X011297Y017842D02*
X013002Y017842D01*
X013097Y017941D02*
X011202Y017941D01*
X010097Y017941D02*
X002851Y017941D01*
X002851Y018039D02*
X019777Y018039D01*
X019678Y017941D02*
X014202Y017941D01*
X015322Y020699D02*
X022436Y020699D01*
X022535Y020797D02*
X015421Y020797D01*
X015519Y020896D02*
X022633Y020896D01*
X019254Y021093D02*
X018746Y021093D01*
X018873Y021191D02*
X019127Y021191D01*
X019047Y021290D02*
X018953Y021290D01*
X018994Y021388D02*
X019006Y021388D01*
X018500Y021554D02*
X018481Y021560D01*
X017961Y022080D01*
X013581Y022080D01*
X013521Y022140D01*
X012760Y022964D02*
X002851Y022964D01*
X002851Y022866D02*
X012661Y022866D01*
X012563Y022767D02*
X002851Y022767D01*
X002851Y022669D02*
X012464Y022669D01*
X012366Y022570D02*
X002851Y022570D01*
X002851Y022472D02*
X012267Y022472D01*
X012169Y022373D02*
X002851Y022373D01*
X002851Y022275D02*
X006030Y022275D01*
X005932Y022176D02*
X002851Y022176D01*
X002851Y022078D02*
X005833Y022078D01*
X005735Y021979D02*
X002851Y021979D01*
X002851Y021881D02*
X005636Y021881D01*
X005538Y021782D02*
X002851Y021782D01*
X002851Y021684D02*
X005439Y021684D01*
X005341Y021585D02*
X002851Y021585D01*
X002851Y021487D02*
X005242Y021487D01*
X005144Y021388D02*
X002851Y021388D01*
X002851Y021290D02*
X005045Y021290D01*
X004947Y021191D02*
X002851Y021191D01*
X002851Y021093D02*
X004136Y021093D01*
X004099Y020994D02*
X002851Y020994D01*
X002851Y020896D02*
X004099Y020896D01*
X004099Y020797D02*
X002851Y020797D01*
X002851Y020699D02*
X004099Y020699D01*
X004099Y020600D02*
X002851Y020600D01*
X002851Y020502D02*
X004099Y020502D01*
X004099Y020403D02*
X002851Y020403D01*
X002851Y020305D02*
X004099Y020305D01*
X004099Y020206D02*
X002851Y020206D01*
X002851Y020108D02*
X004106Y020108D01*
X002851Y017842D02*
X010002Y017842D01*
X009962Y017744D02*
X002851Y017744D01*
X002851Y017645D02*
X009940Y017645D01*
X009940Y017547D02*
X002851Y017547D01*
X002851Y017448D02*
X009969Y017448D01*
X010017Y017350D02*
X002851Y017350D01*
X009001Y021200D02*
X009381Y020820D01*
X015161Y020820D01*
X017146Y021093D02*
X018254Y021093D01*
X018127Y021191D02*
X017273Y021191D01*
X017353Y021290D02*
X018047Y021290D01*
X018006Y021388D02*
X017394Y021388D01*
X017420Y021487D02*
X017980Y021487D01*
X017980Y021585D02*
X017420Y021585D01*
X017409Y021684D02*
X017991Y021684D01*
X017976Y021782D02*
X017368Y021782D01*
X018621Y023420D02*
X005561Y023420D01*
X005561Y026280D01*
X005881Y026600D01*
X005981Y026600D01*
X006441Y027060D01*
X006457Y027065D01*
X006955Y026576D02*
X007100Y026636D01*
X007242Y026779D01*
X007319Y026965D01*
X007319Y027166D01*
X007242Y027352D01*
X007100Y027495D01*
X006918Y027570D01*
X006931Y027572D01*
X007007Y027596D01*
X007078Y027632D01*
X007143Y027679D01*
X007199Y027736D01*
X007246Y027800D01*
X007282Y027871D01*
X007307Y027947D01*
X007318Y028015D01*
X006507Y028015D01*
X006507Y028115D01*
X007318Y028115D01*
X007307Y028184D01*
X007282Y028260D01*
X007246Y028331D01*
X007199Y028395D01*
X007143Y028451D01*
X007078Y028498D01*
X007007Y028534D01*
X006931Y028559D01*
X006918Y028561D01*
X007100Y028636D01*
X007242Y028779D01*
X007319Y028965D01*
X007319Y029166D01*
X007242Y029352D01*
X007100Y029495D01*
X007126Y029662D02*
X007594Y029662D01*
X007594Y029564D02*
X006933Y029564D01*
X007224Y029761D02*
X007633Y029761D01*
X007678Y029859D02*
X007275Y029859D01*
X007316Y029958D02*
X007777Y029958D01*
X007767Y030155D02*
X007319Y030155D01*
X007319Y030056D02*
X007955Y030056D01*
X007669Y030253D02*
X007283Y030253D01*
X007242Y030352D02*
X007619Y030352D01*
X007579Y030450D02*
X007144Y030450D01*
X007139Y030647D02*
X007574Y030647D01*
X007574Y030549D02*
X006969Y030549D01*
X007237Y030746D02*
X007606Y030746D01*
X007646Y030844D02*
X007291Y030844D01*
X007332Y030943D02*
X007734Y030943D01*
X007874Y031041D02*
X007339Y031041D01*
X007339Y031140D02*
X007810Y031140D01*
X007712Y031238D02*
X007311Y031238D01*
X007270Y031337D02*
X007647Y031337D01*
X007607Y031435D02*
X007187Y031435D01*
X007058Y031534D02*
X007594Y031534D01*
X007594Y031632D02*
X002851Y031632D01*
X002851Y031534D02*
X005856Y031534D01*
X005726Y031435D02*
X002851Y031435D01*
X002851Y031337D02*
X005643Y031337D01*
X005602Y031238D02*
X002851Y031238D01*
X002851Y031140D02*
X005574Y031140D01*
X005574Y031041D02*
X002851Y031041D01*
X002851Y030943D02*
X005582Y030943D01*
X005623Y030844D02*
X002851Y030844D01*
X002851Y030746D02*
X005676Y030746D01*
X005775Y030647D02*
X002851Y030647D01*
X002851Y030549D02*
X005944Y030549D01*
X005769Y030450D02*
X002851Y030450D01*
X002851Y030352D02*
X005671Y030352D01*
X005630Y030253D02*
X002851Y030253D01*
X002851Y030155D02*
X005594Y030155D01*
X005594Y030056D02*
X002851Y030056D01*
X002851Y029958D02*
X005597Y029958D01*
X005638Y029859D02*
X002851Y029859D01*
X002851Y029761D02*
X005689Y029761D01*
X005788Y029662D02*
X002851Y029662D01*
X002851Y029564D02*
X005980Y029564D01*
X005784Y029465D02*
X002851Y029465D01*
X002851Y029367D02*
X005686Y029367D01*
X005637Y029268D02*
X002851Y029268D01*
X002851Y029170D02*
X005596Y029170D01*
X005594Y029071D02*
X002851Y029071D01*
X002851Y028973D02*
X005594Y028973D01*
X005632Y028874D02*
X002851Y028874D01*
X002851Y028776D02*
X005674Y028776D01*
X005773Y028677D02*
X002851Y028677D01*
X002851Y028579D02*
X005953Y028579D01*
X005810Y028480D02*
X002851Y028480D01*
X002851Y028382D02*
X005704Y028382D01*
X005643Y028283D02*
X002851Y028283D01*
X002851Y028185D02*
X005607Y028185D01*
X005600Y027988D02*
X002851Y027988D01*
X002851Y028086D02*
X006407Y028086D01*
X006407Y028115D02*
X006407Y028559D01*
X006507Y028559D01*
X006507Y028115D01*
X006407Y028115D01*
X006407Y028185D02*
X006507Y028185D01*
X006507Y028283D02*
X006407Y028283D01*
X006407Y028382D02*
X006507Y028382D01*
X006507Y028480D02*
X006407Y028480D01*
X006961Y028579D02*
X007594Y028579D01*
X007594Y028666D02*
X007594Y028465D01*
X007671Y028279D01*
X007814Y028136D01*
X007985Y028065D01*
X007814Y027995D01*
X007671Y027852D01*
X007594Y027666D01*
X007594Y027465D01*
X007671Y027279D01*
X007814Y027136D01*
X007985Y027065D01*
X007814Y026995D01*
X007671Y026852D01*
X007594Y026666D01*
X007594Y026465D01*
X007671Y026279D01*
X007814Y026136D01*
X007959Y026076D01*
X007802Y026011D01*
X007654Y025863D01*
X007574Y025670D01*
X007574Y025461D01*
X007654Y025267D01*
X007802Y025119D01*
X007959Y025055D01*
X007814Y024995D01*
X007671Y024852D01*
X007594Y024666D01*
X007594Y024465D01*
X007671Y024279D01*
X007700Y024250D01*
X007596Y024250D01*
X007169Y024677D01*
X007259Y024767D01*
X007339Y024961D01*
X007339Y025170D01*
X007259Y025363D01*
X007111Y025511D01*
X006981Y025565D01*
X007111Y025619D01*
X007259Y025767D01*
X007339Y025961D01*
X007339Y026170D01*
X007259Y026363D01*
X007111Y026511D01*
X006955Y026576D01*
X007033Y026609D02*
X007594Y026609D01*
X007594Y026510D02*
X007112Y026510D01*
X007211Y026412D02*
X007616Y026412D01*
X007657Y026313D02*
X007280Y026313D01*
X007321Y026215D02*
X007735Y026215D01*
X007862Y026116D02*
X007339Y026116D01*
X007339Y026018D02*
X007817Y026018D01*
X007710Y025919D02*
X007322Y025919D01*
X007281Y025821D02*
X007637Y025821D01*
X007596Y025722D02*
X007214Y025722D01*
X007115Y025624D02*
X007574Y025624D01*
X007574Y025525D02*
X007078Y025525D01*
X007196Y025427D02*
X007588Y025427D01*
X007629Y025328D02*
X007274Y025328D01*
X007314Y025230D02*
X007692Y025230D01*
X007791Y025131D02*
X007339Y025131D01*
X007339Y025033D02*
X007906Y025033D01*
X007753Y024934D02*
X007328Y024934D01*
X007287Y024836D02*
X007664Y024836D01*
X007624Y024737D02*
X007229Y024737D01*
X007207Y024639D02*
X007594Y024639D01*
X007594Y024540D02*
X007306Y024540D01*
X007404Y024442D02*
X007604Y024442D01*
X007645Y024343D02*
X007503Y024343D01*
X008457Y024565D02*
X008461Y024560D01*
X016521Y024560D01*
X016781Y024820D01*
X015961Y024920D02*
X013441Y027440D01*
X008581Y027440D01*
X008461Y027560D01*
X008457Y027565D01*
X007899Y027101D02*
X007319Y027101D01*
X007319Y027003D02*
X007833Y027003D01*
X007723Y026904D02*
X007294Y026904D01*
X007253Y026806D02*
X007652Y026806D01*
X007611Y026707D02*
X007171Y026707D01*
X007305Y027200D02*
X007750Y027200D01*
X007663Y027298D02*
X007264Y027298D01*
X007198Y027397D02*
X007622Y027397D01*
X007594Y027495D02*
X007098Y027495D01*
X006999Y027594D02*
X007594Y027594D01*
X007605Y027692D02*
X007156Y027692D01*
X007239Y027791D02*
X007646Y027791D01*
X007708Y027889D02*
X007288Y027889D01*
X007313Y027988D02*
X007807Y027988D01*
X007935Y028086D02*
X006507Y028086D01*
X006507Y027988D02*
X006407Y027988D01*
X006407Y027889D02*
X006507Y027889D01*
X006507Y027791D02*
X006407Y027791D01*
X006407Y027692D02*
X006507Y027692D01*
X006507Y027594D02*
X006407Y027594D01*
X005914Y027594D02*
X002851Y027594D01*
X002851Y027692D02*
X005758Y027692D01*
X005674Y027791D02*
X002851Y027791D01*
X002851Y027889D02*
X005625Y027889D01*
X005815Y027495D02*
X002851Y027495D01*
X002851Y027397D02*
X005716Y027397D01*
X005649Y027298D02*
X002851Y027298D01*
X002851Y027200D02*
X005608Y027200D01*
X005594Y027101D02*
X002851Y027101D01*
X002851Y027003D02*
X005594Y027003D01*
X005619Y026904D02*
X002851Y026904D01*
X002851Y026806D02*
X005660Y026806D01*
X005705Y026707D02*
X002851Y026707D01*
X002851Y026609D02*
X005607Y026609D01*
X005508Y026510D02*
X002851Y026510D01*
X002851Y026412D02*
X005410Y026412D01*
X005361Y026313D02*
X002851Y026313D01*
X002851Y026215D02*
X005361Y026215D01*
X005361Y026116D02*
X002851Y026116D01*
X002851Y026018D02*
X005361Y026018D01*
X005361Y025919D02*
X002851Y025919D01*
X002851Y025821D02*
X005361Y025821D01*
X005361Y025722D02*
X002851Y025722D01*
X002851Y025624D02*
X005361Y025624D01*
X005361Y025525D02*
X002851Y025525D01*
X002851Y025427D02*
X005361Y025427D01*
X005361Y025328D02*
X002851Y025328D01*
X002851Y025230D02*
X005361Y025230D01*
X005361Y025131D02*
X002851Y025131D01*
X002851Y025033D02*
X005361Y025033D01*
X005361Y024934D02*
X002851Y024934D01*
X002851Y024836D02*
X005361Y024836D01*
X005361Y024737D02*
X002851Y024737D01*
X002851Y024639D02*
X005361Y024639D01*
X005361Y024540D02*
X002851Y024540D01*
X002851Y024442D02*
X005361Y024442D01*
X005361Y024343D02*
X002851Y024343D01*
X002851Y024245D02*
X005361Y024245D01*
X005361Y024146D02*
X002851Y024146D01*
X002851Y024048D02*
X005361Y024048D01*
X005361Y023949D02*
X002851Y023949D01*
X002851Y023851D02*
X005361Y023851D01*
X005361Y023752D02*
X002851Y023752D01*
X002851Y023654D02*
X005361Y023654D01*
X005361Y023555D02*
X002851Y023555D01*
X002851Y023457D02*
X005361Y023457D01*
X005361Y023358D02*
X002851Y023358D01*
X002851Y023260D02*
X005438Y023260D01*
X002851Y023161D02*
X012810Y023161D01*
X012791Y023063D02*
X002851Y023063D01*
X008457Y026565D02*
X008461Y026560D01*
X008921Y026100D01*
X009981Y026100D01*
X010141Y025940D01*
X007765Y028185D02*
X007306Y028185D01*
X007270Y028283D02*
X007669Y028283D01*
X007629Y028382D02*
X007209Y028382D01*
X007103Y028480D02*
X007594Y028480D01*
X007594Y028666D02*
X007671Y028852D01*
X007814Y028995D01*
X007985Y029065D01*
X007814Y029136D01*
X007671Y029279D01*
X007594Y029465D01*
X007635Y029367D02*
X007228Y029367D01*
X007277Y029268D02*
X007682Y029268D01*
X007780Y029170D02*
X007318Y029170D01*
X007319Y029071D02*
X007971Y029071D01*
X007792Y028973D02*
X007319Y028973D01*
X007282Y028874D02*
X007693Y028874D01*
X007640Y028776D02*
X007239Y028776D01*
X007141Y028677D02*
X007599Y028677D01*
X008461Y029560D02*
X008457Y029565D01*
X008461Y029560D02*
X008941Y029080D01*
X014141Y029080D01*
X007890Y032026D02*
X002851Y032026D01*
X002851Y031928D02*
X007747Y031928D01*
X007662Y031829D02*
X002851Y031829D01*
X002851Y031731D02*
X007621Y031731D01*
X021798Y028382D02*
X022097Y028382D01*
X021999Y028283D02*
X021839Y028283D01*
X021851Y028185D02*
X021900Y028185D01*
X022982Y013902D02*
X023008Y013902D01*
X023641Y013607D02*
X025124Y013607D01*
X025026Y013508D02*
X023600Y013508D01*
X023505Y013410D02*
X024715Y013410D01*
X018921Y008200D02*
X017841Y009280D01*
X017461Y007800D02*
X015921Y009340D01*
X014996Y008682D02*
X014353Y008682D01*
X014323Y008780D02*
X014898Y008780D01*
X014738Y009240D02*
X014159Y009240D01*
X014210Y009277D01*
X014258Y009325D01*
X014297Y009379D01*
X014328Y009440D01*
X014349Y009504D01*
X014360Y009571D01*
X014360Y009575D01*
X013680Y009575D01*
X013680Y009635D01*
X014343Y009635D01*
X014738Y009240D01*
X014705Y009273D02*
X014204Y009273D01*
X014291Y009371D02*
X014607Y009371D01*
X014508Y009470D02*
X014338Y009470D01*
X014359Y009568D02*
X014410Y009568D01*
X013943Y010035D02*
X013680Y010035D01*
X013680Y009635D01*
X013620Y009635D01*
X013620Y010035D01*
X013336Y010035D01*
X013269Y010024D01*
X013205Y010003D01*
X013144Y009972D01*
X013121Y009955D01*
X013121Y010245D01*
X013126Y010240D01*
X013284Y010175D01*
X013803Y010175D01*
X013943Y010035D01*
X013917Y010061D02*
X013121Y010061D01*
X013121Y010159D02*
X013819Y010159D01*
X013680Y009962D02*
X013620Y009962D01*
X013620Y009864D02*
X013680Y009864D01*
X013680Y009765D02*
X013620Y009765D01*
X013620Y009667D02*
X013680Y009667D01*
X013130Y009962D02*
X013121Y009962D01*
X012721Y010061D02*
X010384Y010061D01*
X010483Y010159D02*
X012721Y010159D01*
X013650Y010605D02*
X013661Y010600D01*
X016821Y007440D01*
X013680Y008288D02*
X013620Y008288D01*
X013620Y008386D02*
X013680Y008386D01*
X013680Y008485D02*
X013620Y008485D01*
X012001Y008760D02*
X012001Y007040D01*
X012601Y007040D01*
X011701Y007150D02*
X011701Y008554D01*
X010650Y009605D01*
X011462Y009076D02*
X011848Y009076D01*
X011723Y008977D02*
X011560Y008977D01*
X011659Y008879D02*
X011671Y008879D01*
X010996Y008605D02*
X010650Y008605D01*
X010996Y008605D02*
X011451Y008150D01*
X011451Y007650D01*
X009701Y006150D01*
X010451Y005900D02*
X011701Y007150D01*
X010201Y007040D02*
X009921Y007040D01*
X009921Y007760D01*
X009421Y004400D02*
X005421Y004400D01*
X004681Y003660D01*
X004669Y003656D01*
X004288Y004052D02*
X002851Y004052D01*
X002851Y003954D02*
X004206Y003954D01*
X004156Y003855D02*
X002851Y003855D01*
X002851Y003757D02*
X004128Y003757D01*
X004744Y010817D02*
X004761Y010820D01*
X005981Y012040D01*
X007321Y012040D01*
X005364Y012326D02*
X002851Y012326D01*
X002851Y012228D02*
X005265Y012228D01*
X011061Y013016D02*
X013238Y013016D01*
X013074Y012917D02*
X011225Y012917D01*
X011306Y012819D02*
X012993Y012819D01*
X012952Y012720D02*
X011347Y012720D01*
X011360Y012622D02*
X012940Y012622D01*
X012940Y012523D02*
X011360Y012523D01*
X011320Y012425D02*
X012979Y012425D01*
X013040Y012326D02*
X011259Y012326D01*
X011173Y012240D02*
X011173Y012240D01*
X011106Y013213D02*
X013192Y013213D01*
X013055Y013311D02*
X011244Y013311D01*
X011314Y013410D02*
X012986Y013410D01*
X012950Y013508D02*
X011355Y013508D01*
X013620Y013410D02*
X013680Y013410D01*
X013680Y013311D02*
X013620Y013311D01*
X013620Y013213D02*
X013680Y013213D01*
X013650Y012605D02*
X013661Y012600D01*
X013861Y012400D01*
X014721Y012400D01*
X015071Y012425D02*
X016015Y012425D01*
X016100Y012326D02*
X015069Y012326D01*
X019381Y002378D02*
X019449Y002378D01*
X019527Y002279D02*
X019283Y002279D01*
X019184Y002181D02*
X019837Y002181D01*
X019936Y002082D02*
X019086Y002082D01*
X018987Y001984D02*
X020034Y001984D01*
X020133Y001885D02*
X018889Y001885D01*
X019761Y002540D02*
X020281Y002020D01*
X027901Y002020D01*
X028481Y002600D01*
X029441Y002600D01*
X029481Y002560D01*
X029500Y002554D01*
X028861Y002240D02*
X029441Y001660D01*
X038861Y001660D01*
X039461Y002260D01*
X039021Y002620D02*
X038421Y002020D01*
X028933Y001885D02*
X028049Y001885D01*
X028147Y001984D02*
X028622Y001984D01*
X028547Y002082D02*
X028246Y002082D01*
X028344Y002181D02*
X028511Y002181D01*
X028511Y002279D02*
X028443Y002279D01*
D18*
X028861Y002240D03*
X029321Y004000D03*
X028861Y005460D03*
X027841Y005980D03*
X026481Y005200D03*
X025481Y005000D03*
X024481Y004800D03*
X023481Y004600D03*
X020841Y005860D03*
X020861Y006360D03*
X019401Y005040D03*
X019761Y002540D03*
X015561Y007900D03*
X017401Y008360D03*
X017841Y009280D03*
X018341Y009280D03*
X019141Y010200D03*
X019641Y010380D03*
X019581Y011760D03*
X018101Y010740D03*
X017741Y011100D03*
X016321Y012600D03*
X015661Y013100D03*
X014721Y012400D03*
X017741Y013100D03*
X021401Y014700D03*
X022201Y015900D03*
X022001Y016800D03*
X023841Y017280D03*
X026141Y017160D03*
X026781Y016480D03*
X027201Y015650D03*
X028501Y015360D03*
X028501Y014860D03*
X028501Y014360D03*
X028501Y012960D03*
X030481Y012240D03*
X032121Y010860D03*
X033581Y012140D03*
X034021Y011860D03*
X035001Y011140D03*
X032661Y008920D03*
X032661Y007920D03*
X031301Y008280D03*
X030361Y008560D03*
X029641Y007840D03*
X029141Y007840D03*
X026561Y007760D03*
X026021Y009280D03*
X025401Y010400D03*
X026961Y011420D03*
X025451Y012650D03*
X024951Y013150D03*
X023301Y013700D03*
X022601Y012700D03*
X022661Y011940D03*
X022161Y011840D03*
X022721Y008920D03*
X015921Y009340D03*
X013601Y007760D03*
X012721Y008140D03*
X012361Y007780D03*
X012601Y007040D03*
X012001Y008760D03*
X009921Y007760D03*
X010201Y007040D03*
X009701Y006150D03*
X010451Y005900D03*
X008701Y006150D03*
X007881Y005660D03*
X007321Y006780D03*
X009421Y004400D03*
X005081Y012260D03*
X009001Y021200D03*
X009001Y021700D03*
X013161Y023040D03*
X013521Y022140D03*
X015961Y024920D03*
X016781Y024820D03*
X015541Y026060D03*
X016961Y027100D03*
X015581Y028180D03*
X015561Y028960D03*
X017081Y028960D03*
X019861Y029560D03*
X021481Y028180D03*
X021521Y027480D03*
X023081Y025900D03*
X025841Y027480D03*
X027241Y026500D03*
X026221Y025520D03*
X028221Y023520D03*
X028221Y023020D03*
X025241Y020540D03*
X024881Y019180D03*
X023501Y020560D03*
X026841Y019040D03*
X028841Y017280D03*
X027701Y016900D03*
X031451Y019400D03*
X032601Y017540D03*
X032141Y016580D03*
X034301Y014840D03*
X036101Y015160D03*
X036821Y016200D03*
X035021Y016200D03*
X039381Y019200D03*
X039741Y019560D03*
X039741Y020060D03*
X039741Y022220D03*
X040301Y022160D03*
X040381Y023380D03*
X038701Y023160D03*
X034701Y022440D03*
X031961Y023020D03*
X033641Y024640D03*
X033261Y026020D03*
X034061Y027060D03*
X035401Y027080D03*
X034061Y028240D03*
X032261Y027480D03*
X030801Y027860D03*
X029921Y028240D03*
X030561Y029320D03*
X030741Y030020D03*
X029021Y031560D03*
X034801Y030180D03*
X035881Y031940D03*
X029401Y025900D03*
X034661Y019840D03*
X035181Y019860D03*
X040301Y011200D03*
X035001Y007920D03*
X034281Y006800D03*
X034281Y006300D03*
X034641Y005440D03*
X036601Y004340D03*
X037461Y002980D03*
X038421Y002020D03*
X039461Y002260D03*
X039681Y002980D03*
X039681Y003480D03*
X039541Y003980D03*
X039181Y003620D03*
X040461Y005580D03*
X040461Y006580D03*
X031521Y003640D03*
X019541Y017520D03*
X019481Y024080D03*
X013281Y027060D03*
X010141Y025940D03*
X017321Y031560D03*
D19*
X018861Y030560D02*
X008461Y030560D01*
X008457Y030565D01*
X013281Y027060D02*
X011781Y025560D01*
X008461Y025560D01*
X008457Y025565D01*
X007501Y024020D02*
X016521Y024020D01*
X017161Y024660D01*
X017161Y026060D01*
X015541Y026060D01*
X016961Y027100D02*
X034021Y027100D01*
X034061Y027060D01*
X034061Y028240D01*
X033941Y029320D02*
X030561Y029320D01*
X030701Y029980D02*
X030741Y030020D01*
X031281Y030560D01*
X037481Y030560D01*
X037496Y030565D01*
X038401Y031040D02*
X038401Y032120D01*
X036061Y032120D01*
X035881Y031940D01*
X034801Y030180D02*
X033941Y029320D01*
X032261Y027480D02*
X025841Y027480D01*
X026221Y025520D02*
X027061Y024680D01*
X033601Y024680D01*
X033641Y024640D01*
X034261Y024020D01*
X038441Y024020D01*
X039481Y025060D01*
X039496Y025065D01*
X037496Y025565D02*
X037481Y025580D01*
X033701Y025580D01*
X033261Y026020D01*
X029401Y025900D02*
X023081Y025900D01*
X021521Y027480D02*
X024021Y029980D01*
X030701Y029980D01*
X038401Y031040D02*
X038921Y030520D01*
X039041Y030520D01*
X039481Y030080D01*
X039496Y030065D01*
X021481Y028180D02*
X015581Y028180D01*
X015561Y028960D02*
X017081Y028960D01*
X018861Y030560D02*
X019861Y029560D01*
X013161Y023040D02*
X012241Y022120D01*
X006201Y022120D01*
X004681Y020600D01*
X004669Y020585D01*
X007501Y024020D02*
X006461Y025060D01*
X006457Y025065D01*
M02*
