%
M48
M72
T01C0.0200
T02C0.0300
T03C0.0320
T04C0.0400
T05C0.0472
T06C0.0512
%
T01
X7881Y5660
X8701Y6150
X9701Y6150
X10451Y5900
X10201Y7040
X9921Y7760
X12001Y8760
X12721Y8140
X12361Y7780
X12601Y7040
X13601Y7760
X15561Y7900
X17401Y8360
X17841Y9280
X18341Y9280
X19141Y10200
X19641Y10380
X19581Y11760
X18101Y10740
X17741Y11100
X16321Y12600
X15661Y13100
X14721Y12400
X17741Y13100
X21401Y14700
X22201Y15900
X22001Y16800
X23841Y17280
X26141Y17160
X26781Y16480
X27201Y15650
X28501Y15360
X28501Y14860
X28501Y14360
X28501Y12960
X30481Y12240
X32121Y10860
X33581Y12140
X34021Y11860
X35001Y11140
X32661Y8920
X32661Y7920
X31301Y8280
X30361Y8560
X29641Y7840
X29141Y7840
X27841Y5980
X28861Y5460
X29321Y4000
X31521Y3640
X28861Y2240
X26481Y5200
X25481Y5000
X24481Y4800
X23481Y4600
X20841Y5860
X20861Y6360
X19401Y5040
X19761Y2540
X26561Y7760
X26021Y9280
X25401Y10400
X26961Y11420
X25451Y12650
X24951Y13150
X23301Y13700
X22601Y12700
X22661Y11940
X22161Y11840
X22721Y8920
X15921Y9340
X9421Y4400
X7321Y6780
X5081Y12260
X9001Y21200
X9001Y21700
X13161Y23040
X13521Y22140
X15961Y24920
X16781Y24820
X15541Y26060
X16961Y27100
X15581Y28180
X15561Y28960
X17081Y28960
X19861Y29560
X21481Y28180
X21521Y27480
X23081Y25900
X25841Y27480
X27241Y26500
X26221Y25520
X28221Y23520
X28221Y23020
X25241Y20540
X24881Y19180
X23501Y20560
X26841Y19040
X28841Y17280
X27701Y16900
X31451Y19400
X32601Y17540
X32141Y16580
X34301Y14840
X36101Y15160
X36821Y16200
X35021Y16200
X39381Y19200
X39741Y19560
X39741Y20060
X39741Y22220
X40301Y22160
X40381Y23380
X38701Y23160
X34701Y22440
X31961Y23020
X33641Y24640
X33261Y26020
X34061Y27060
X35401Y27080
X34061Y28240
X32261Y27480
X30801Y27860
X29921Y28240
X30561Y29320
X30741Y30020
X29021Y31560
X34801Y30180
X35881Y31940
X29401Y25900
X34661Y19840
X35181Y19860
X40301Y11200
X35001Y7920
X34281Y6800
X34281Y6300
X34641Y5440
X36601Y4340
X37461Y2980
X38421Y2020
X39461Y2260
X39681Y2980
X39681Y3480
X39541Y3980
X39181Y3620
X40461Y5580
X40461Y6580
X19541Y17520
X19481Y24080
X13281Y27060
X10141Y25940
X17321Y31560
T02
X7744Y13817
X4744Y13817
X4744Y10817
X7744Y10817
T03
X10650Y10605
X10650Y11605
X10650Y12605
X10650Y13605
X10650Y14605
X10650Y15605
X10650Y16605
X10650Y17605
X13650Y17605
X13650Y16605
X13650Y15605
X13650Y14605
X13650Y13605
X13650Y12605
X13650Y11605
X13650Y10605
X13650Y9605
X13650Y8605
X10650Y8605
X10650Y9605
T04
X13500Y2554
X14500Y2554
X15500Y2554
X16500Y2554
X17500Y2554
X18500Y2554
X20500Y2554
X21500Y2554
X22500Y2554
X23500Y2554
X24500Y2554
X25500Y2554
X26500Y2554
X27500Y2554
X29500Y2554
X30500Y2554
X31500Y2554
X32500Y2554
X33500Y2554
X34500Y2554
X35500Y2554
X36500Y2554
X37500Y4554
X38500Y4554
X38500Y5554
X37500Y5554
X37500Y6554
X38500Y6554
X38500Y7554
X37500Y7554
X37500Y8554
X38500Y8554
X38500Y9554
X37500Y9554
X37500Y10554
X38500Y10554
X38500Y11554
X37500Y11554
X37500Y12554
X38500Y12554
X38500Y13554
X37500Y13554
X37500Y14554
X38500Y14554
X38500Y15554
X37500Y15554
X37500Y16554
X38500Y16554
X38500Y17554
X37500Y17554
X37500Y18554
X38500Y18554
X38500Y19554
X37500Y19554
X37500Y20554
X38500Y20554
X38500Y21554
X37500Y21554
X34500Y21554
X33500Y21554
X32500Y21554
X31500Y21554
X30500Y21554
X29500Y21554
X28500Y21554
X27500Y21554
X25500Y21554
X24500Y21554
X23500Y21554
X22500Y21554
X21500Y21554
X20500Y21554
X19500Y21554
X18500Y21554
X16900Y21554
X15900Y21554
X14900Y21554
X13900Y21554
X12900Y21554
X11900Y21554
X10900Y21554
X9900Y21554
T05
X8457Y24565
X8457Y25565
X8457Y26565
X8457Y27565
X8457Y28565
X8457Y29565
X8457Y30565
X8457Y31565
X6457Y31065
X6457Y30065
X6457Y29065
X6457Y28065
X6457Y27065
X6457Y26065
X6457Y25065
X37496Y24565
X37496Y25565
X37496Y26565
X37496Y27565
X37496Y28565
X37496Y29565
X37496Y30565
X37496Y31565
X39496Y31065
X39496Y30065
X39496Y29065
X39496Y28065
X39496Y27065
X39496Y26065
X39496Y25065
T06
X4669Y3656
X4669Y5624
X4669Y18617
X4669Y20585
M30
